<svg width="234" height="143" viewBox="0 0 234 143" fill="none" xmlns="http://www.w3.org/2000/svg">
<mask id="mask0" style="mask-type:alpha" maskUnits="userSpaceOnUse" x="0" y="0" width="235" height="143">
<rect x="0.128906" y="0.13623" width="234.436" height="142.606" fill="#C4C4C4"/>
</mask>
<g mask="url(#mask0)">
<path d="M191.539 447.525C189.833 448.807 188.553 450.516 187.699 452.652C186.846 456.498 188.126 460.343 191.113 462.052L241.034 497.513C245.3 500.504 250.847 499.222 253.407 495.377C254.687 493.668 255.541 491.959 255.541 490.25C255.541 487.259 253.834 484.696 251.701 482.987L228.66 466.752C220.98 461.197 220.98 449.662 228.66 444.108L251.701 427.445C255.967 424.454 256.821 418.9 253.834 415.055C250.847 410.782 245.3 409.928 241.46 412.918L191.539 447.525Z" fill="white"/>
<path d="M191.54 202.713C189.833 203.995 188.553 205.704 187.7 207.84C186.846 211.685 188.126 215.53 191.113 217.239L241.034 252.701C245.301 255.692 250.847 254.41 253.408 250.565C254.688 248.856 255.541 247.147 255.541 245.01C255.541 242.02 254.261 239.456 251.701 237.747L228.66 221.512C220.98 215.958 220.98 204.422 228.66 198.868L252.127 182.632C256.394 179.642 257.248 174.087 254.261 170.242C251.274 165.97 245.727 165.115 241.887 168.106L191.54 202.713Z" fill="white"/>
<path d="M190.26 4.89732C188.98 6.60631 188.554 8.31534 188.554 10.0243C188.554 13.0151 189.834 15.5785 192.394 17.2875L236.768 48.4766C237.195 48.4766 237.195 48.9038 237.621 48.9038L241.461 51.4673C245.728 54.458 251.275 53.1763 253.835 49.331C255.115 47.6221 255.542 45.9131 255.542 44.2041C255.542 41.2134 254.262 38.6499 251.702 36.9409L207.327 5.75185C206.901 5.75185 206.901 5.32459 206.474 5.32459L203.061 2.7611C198.794 -0.229628 193.247 0.624851 190.26 4.89732Z" fill="white"/>
<path d="M126.685 340.286C128.392 339.005 129.672 337.296 130.525 335.159C131.379 331.314 130.099 327.469 127.112 325.76L14.8964 247.147C10.6296 244.156 5.08287 245.438 2.52282 249.283C1.24279 250.992 0.816113 252.701 0.816113 254.41C0.816113 257.4 2.09614 259.964 4.65619 261.673L90.4178 321.488C98.098 327.042 98.098 338.577 90.4178 344.132L4.65619 403.946C0.389444 406.937 -0.463905 412.491 2.52282 416.336C5.50954 420.609 11.0563 421.463 14.8964 418.473L126.685 340.286Z" fill="white"/>
<path d="M64.3903 340.286C66.097 339.005 67.377 337.296 68.2303 335.159C69.0837 331.314 67.8037 327.469 64.8169 325.76L14.896 290.726C10.6292 287.735 5.08247 289.017 2.52242 292.862C1.2424 294.571 0.815718 296.28 0.815718 297.989C0.815718 300.98 2.09575 303.543 4.6558 305.252L27.6962 321.488C35.3764 327.042 35.3764 338.577 27.6962 344.132L4.22911 360.367C-0.0376347 363.358 -0.890984 368.912 2.09574 372.757C5.08246 377.03 10.6292 377.884 14.4693 374.893L64.3903 340.286Z" fill="white"/>
<path d="M64.3896 4.04289C63.1096 5.75188 62.6829 7.46086 62.6829 9.16985C62.6829 12.1606 63.963 14.7241 66.523 16.4331L152.285 76.2477C159.965 81.8019 159.965 93.3376 152.285 98.8918L66.523 158.706L4.22849 202.286C2.5218 203.567 1.24178 205.276 0.388432 207.413C-0.464918 211.258 0.815103 215.103 3.80183 216.812L116.444 296.28L152.285 321.488C159.965 327.042 159.965 338.578 152.285 344.132L66.523 403.946L4.22849 447.526C2.5218 448.807 1.24178 450.516 0.388432 452.653C-0.464918 456.498 0.815103 460.343 3.80183 462.052L116.444 541.093C120.711 544.084 126.257 542.802 128.818 538.957C130.098 537.248 130.524 535.539 130.524 533.83C130.524 530.839 129.244 528.275 126.684 526.566L40.9225 466.752C33.2424 461.198 33.2424 449.662 40.9225 444.108L126.684 384.293L188.979 340.287C190.685 339.005 191.965 337.296 192.819 335.16C193.672 331.314 192.392 327.469 189.405 325.76L77.1899 247.147L41.3492 221.939C33.6691 216.385 33.6691 204.849 41.3492 199.295L127.111 139.48L189.405 95.9011C191.112 94.6193 192.392 92.9103 193.245 90.7741C194.099 86.9288 192.819 83.0837 189.832 81.3747L77.6165 2.76114C72.9231 -1.08408 67.3764 -0.229587 64.3896 4.04289Z" fill="white"/>
<path d="M126.685 4.04284C125.405 5.75183 124.978 7.46082 124.978 9.16981C124.978 12.1605 126.258 14.724 128.818 16.433L214.58 76.2477C222.26 81.8019 222.26 93.3375 214.58 98.8917L128.818 158.706L66.5234 202.286C64.8167 203.567 63.5367 205.276 62.6833 207.413C61.83 211.258 63.11 215.103 66.0967 216.812L178.739 296.28L214.58 321.488C222.26 327.042 222.26 338.578 214.58 344.132L128.818 403.946L66.5234 447.526C64.8167 448.807 63.5367 450.516 62.6833 452.653C61.83 456.498 63.11 460.343 66.0967 462.052L178.739 541.093C183.006 544.084 188.552 542.802 191.112 538.957C192.392 537.248 192.819 535.539 192.819 533.83C192.819 530.839 191.539 528.275 188.979 526.566L103.217 466.752C95.5373 461.198 95.5373 449.662 103.217 444.108L188.979 384.293L251.7 340.287C253.407 339.005 254.687 337.296 255.54 335.16C256.394 331.314 255.114 327.469 252.127 325.76L139.911 247.147L104.071 221.939C96.3907 216.385 96.3907 204.849 104.071 199.295L189.832 139.48L251.7 95.0465C253.407 93.7648 254.687 92.0558 255.54 89.9195C256.394 86.0743 255.114 82.2291 252.127 80.5201L139.911 1.90662C135.218 -1.08411 129.671 -0.229629 126.685 4.04284Z" fill="white"/>
<path d="M128.818 447.526C127.112 448.807 125.832 450.516 124.978 452.653C124.125 456.498 125.405 460.343 128.392 462.052L241.034 541.093C245.3 544.084 250.847 542.802 253.407 538.957C254.687 537.248 255.541 535.539 255.541 533.83C255.541 530.839 254.261 528.275 251.701 526.566L165.939 466.752C158.259 461.198 158.259 449.662 165.939 444.108L251.701 384.293C255.967 381.302 256.821 375.748 253.834 371.903C250.847 367.63 245.3 366.776 241.46 369.767L128.818 447.526Z" fill="white"/>
<path d="M126.685 95.0465C128.392 93.7648 129.672 92.0558 130.525 89.9196C131.379 86.0744 130.099 82.2291 127.112 80.5201L14.8964 1.90662C10.6296 -1.08411 5.08287 0.19766 2.52282 4.04289C1.24279 5.75188 0.816113 7.46086 0.816113 9.16985C0.816113 12.1606 2.09614 14.724 4.65619 16.433L90.4178 76.2477C98.098 81.8019 98.098 93.3376 90.4178 98.8918L4.65619 158.706C0.389444 161.697 -0.463905 167.251 2.52282 171.097C5.50954 175.369 11.0563 176.224 14.8964 173.233L126.685 95.0465Z" fill="white"/>
<path d="M64.3903 95.0466C66.097 93.7648 67.377 92.0558 68.2303 89.9196C69.0837 86.0744 67.8037 82.2291 64.8169 80.5201L14.896 45.4859C10.6292 42.4951 5.08247 43.7769 2.52242 47.6221C1.2424 49.3311 0.815718 51.0401 0.815718 52.7491C0.815718 55.7398 2.09575 58.3033 4.6558 60.0123L27.6962 76.2477C35.3764 81.8019 35.3764 93.3376 27.6962 98.8918L4.22911 115.127C-0.0376347 118.118 -0.890984 123.672 2.09574 127.517C5.08246 131.79 10.6292 132.644 14.4693 129.654L64.3903 95.0466Z" fill="white"/>
<path d="M128.818 202.713C127.112 203.995 125.832 205.704 124.978 207.84C124.125 211.685 125.405 215.53 128.392 217.239L241.034 296.28C245.3 299.271 250.847 297.989 253.407 294.144C254.687 292.435 255.541 290.726 255.541 289.017C255.541 286.026 254.261 283.463 251.701 281.754L165.939 221.939C158.259 216.385 158.259 204.849 165.939 199.295L251.701 139.48C255.967 136.49 256.821 130.935 253.834 127.09C250.847 122.818 245.3 121.963 241.46 124.954L128.818 202.713Z" fill="white"/>
<path d="M65.2439 538.956C66.5239 537.247 66.9505 535.538 66.9505 533.83C66.9505 530.839 65.6705 528.275 63.1105 526.566L18.7363 495.377C18.3096 495.377 18.3096 494.95 17.8829 494.95L14.4696 492.387C10.2028 489.396 4.65603 490.678 2.09598 494.523C0.815955 496.232 0.38929 497.941 0.38929 499.65C0.38929 502.64 1.6693 505.204 4.22935 506.913L48.6035 538.102C48.6035 538.529 49.0302 538.529 49.0302 538.529L52.4436 541.093C56.7104 544.083 62.2571 543.229 65.2439 538.956Z" fill="white"/>
</g>
</svg>
