<svg width="35" height="35" viewBox="0 0 35 35" fill="none" xmlns="http://www.w3.org/2000/svg">
<g clip-path="url(#clip0)">
<path d="M28.3106 27.708H14.5979C12.9719 27.708 11.531 26.6186 11.0965 25.0597L6.46042 8.87801C6.19792 7.94176 5.33604 7.29134 4.36042 7.29134H0.729167C0.326667 7.29134 0 6.96467 0 6.56217C0 6.15967 0.326667 5.83301 0.729167 5.83301H4.36042C5.98646 5.83301 7.42729 6.92238 7.86187 8.48134L8.77625 11.6663H32.811C33.5096 11.6663 34.1498 11.9872 34.5654 12.5472C34.9825 13.1072 35.1065 13.813 34.9052 14.4809L31.7683 25.1997C31.2637 26.7105 29.8769 27.708 28.3106 27.708ZM9.19333 13.1247L12.4994 24.663C12.7604 25.5993 13.6223 26.2497 14.5979 26.2497H28.3106C29.2352 26.2497 30.084 25.6386 30.3756 24.7651L33.5096 14.0638C33.5767 13.8407 33.5344 13.6059 33.3958 13.4193C33.2573 13.2311 33.0444 13.1247 32.811 13.1247H9.19333Z" fill="#030F26"/>
<path d="M16.0417 35.0003C14.4331 35.0003 13.125 33.6922 13.125 32.0837C13.125 30.4751 14.4331 29.167 16.0417 29.167C17.6502 29.167 18.9583 30.4751 18.9583 32.0837C18.9583 33.6922 17.6502 35.0003 16.0417 35.0003ZM16.0417 30.6253C15.2367 30.6253 14.5833 31.2801 14.5833 32.0837C14.5833 32.8872 15.2367 33.542 16.0417 33.542C16.8467 33.542 17.5 32.8872 17.5 32.0837C17.5 31.2801 16.8467 30.6253 16.0417 30.6253Z" fill="#030F26"/>
<path d="M26.2497 35.0003C24.6411 35.0003 23.333 33.6922 23.333 32.0837C23.333 30.4751 24.6411 29.167 26.2497 29.167C27.8582 29.167 29.1663 30.4751 29.1663 32.0837C29.1663 33.6922 27.8582 35.0003 26.2497 35.0003ZM26.2497 30.6253C25.4447 30.6253 24.7913 31.2801 24.7913 32.0837C24.7913 32.8872 25.4447 33.542 26.2497 33.542C27.0547 33.542 27.708 32.8872 27.708 32.0837C27.708 31.2801 27.0547 30.6253 26.2497 30.6253Z" fill="#030F26"/>
</g>
<defs>
<clipPath id="clip0">
<rect width="35" height="35" fill="white"/>
</clipPath>
</defs>
</svg>
