<svg width="35" height="35" viewBox="0 0 35 35" fill="none" xmlns="http://www.w3.org/2000/svg">
<g clip-path="url(#clip0)">
<path d="M33.8373 11.4502L19.8855 4.63462C18.6827 4.03325 16.638 4.03325 15.4353 4.63462L1.16266 11.4502C0.160367 11.9313 0 12.6129 0 12.9737C0 13.3345 0.160367 13.976 1.16266 14.4972L2.32531 15.0584V21.4731C1.60367 21.7537 1.08247 22.4754 1.08247 23.2772C1.08247 24.0791 1.60367 24.8007 2.28522 25.0814L0.4811 30.8145H5.53265L3.72852 25.0814C4.45017 24.8007 4.93127 24.0791 4.93127 23.2772C4.93127 22.4353 4.41008 21.7537 3.68843 21.4731V15.74L5.81329 16.7824V25.1214C5.81329 25.2417 5.85338 25.362 5.93356 25.4823C6.13402 25.7228 9.86254 30.8145 17.48 30.8145C25.0974 30.8145 28.8259 25.6827 28.9863 25.4823C29.0664 25.362 29.1065 25.2417 29.1065 25.1214V16.8225L33.8373 14.4972C34.8396 14.0161 35 13.3345 35 12.9737C34.9599 12.6129 34.8396 11.9313 33.8373 11.4502ZM27.8236 24.921C27.1821 25.7228 23.7342 29.5716 17.48 29.5716C11.2257 29.5716 7.77778 25.7228 7.13631 24.921V17.3437L15.4353 21.3127C16.0367 21.5934 16.8385 21.7537 17.6403 21.7537C18.4822 21.7537 19.2841 21.5934 19.8855 21.2726L27.8236 17.3838V24.921ZM33.2761 13.3746L28.4651 15.74C28.2646 15.74 28.1042 15.8202 28.0241 15.9806L19.3242 20.1902C18.4822 20.6312 16.8385 20.6312 15.9565 20.1902L5.252 15.0584L17.5601 13.6151C17.921 13.5751 18.1615 13.2543 18.1214 12.9336C18.0813 12.5728 17.7606 12.3322 17.4399 12.3723L3.16724 14.0562L1.72394 13.3746C1.36312 13.2142 1.28293 13.0138 1.28293 13.0138C1.28293 12.9737 1.36312 12.8133 1.72394 12.6529L15.9966 5.79728C16.4376 5.59682 17.0389 5.47655 17.6403 5.47655C18.2818 5.47655 18.9233 5.59682 19.3242 5.79728L33.2761 12.6129C33.6369 12.7732 33.7171 12.9336 33.7171 13.0138C33.7171 13.0138 33.5968 13.2142 33.2761 13.3746Z" fill="#030F26"/>
</g>
<defs>
<clipPath id="clip0">
<rect width="35" height="35" fill="white"/>
</clipPath>
</defs>
</svg>
