<svg width="120" height="120" viewBox="0 0 120 120" fill="none" xmlns="http://www.w3.org/2000/svg">
<path d="M105.211 16.6976L103.329 14.8171C100.211 11.7002 96.1643 10 91.9116 10C91.6539 10 91.3961 10 91.19 10.0258C90.3394 10.0773 89.5147 10.1803 88.6899 10.3606C85.1847 11.1077 81.9629 13.0654 79.5918 15.899L78.1742 17.5992L68.6637 29.0108L66.344 31.7929L60.1583 39.2117C58.8954 40.7058 57.4005 42.406 55.7768 44.1577C55.0293 44.9562 54.2561 45.7805 53.4571 46.6306C48.7405 51.5507 43.328 56.7285 39.23 60.1546L35.1577 63.5291L15.8789 79.5775C12.8634 82.102 10.9046 85.3993 10.2345 89.1087C10.1056 89.8042 10.0283 90.4997 10.0025 91.1953C10.0025 91.3498 10.0025 91.4786 10.0025 91.6074C9.92522 95.9608 11.6263 100.108 14.8222 103.302L16.7037 105.183C19.8223 108.3 23.8688 110 28.0957 110C32.8123 110 37.297 107.862 40.4414 104.101L53.4571 88.4905L55.7768 85.7084L56.4984 84.8326L59.8748 80.7625C60.2099 80.3503 60.5965 79.9124 60.9573 79.4745C61.6016 78.7532 62.2718 77.9804 62.9934 77.1819C64.0502 76.0227 65.1584 74.812 66.3183 73.6012C67.0657 72.8027 67.8647 72.0041 68.6379 71.2056C71.3441 68.4493 74.1793 65.7187 76.8082 63.323C77.5556 62.6275 78.3546 61.932 79.1021 61.2622C79.6433 60.7986 80.2103 60.3091 80.7773 59.8197L102.402 41.8135L104.103 40.3967C107.685 37.4086 109.773 33.287 109.979 28.779C110.211 24.2968 108.51 19.9948 105.211 16.6976ZM53.4314 84.8841L38.6372 102.633C35.9567 105.853 32.1164 107.682 28.0957 107.682C24.4616 107.682 21.0079 106.213 18.3275 103.534L16.446 101.654C13.7139 98.9232 12.2448 95.3684 12.3222 91.6332C12.3222 91.5301 12.3222 91.4013 12.3222 91.2983C12.3479 90.7058 12.3995 90.1133 12.5284 89.5209C13.0954 86.3524 14.7707 83.5188 17.3738 81.355L36.8073 65.1777L40.6991 61.932C44.3848 58.8666 49.1014 54.4101 53.4571 49.9794V81.8444V84.8841H53.4314ZM107.685 28.7017C107.505 32.5399 105.726 36.069 102.634 38.645L100.752 40.2164L79.3082 58.068C78.7154 58.5574 78.1484 59.0469 77.5814 59.5363C76.8082 60.2061 76.0092 60.9274 75.236 61.6229C73.0968 63.5549 70.8544 65.7187 68.6121 67.9341V32.6172L79.7722 19.2221L81.3186 17.3673C83.3547 14.9201 86.1125 13.2457 89.1281 12.6018C89.8239 12.4472 90.5456 12.3699 91.2673 12.3184C91.4477 12.3184 91.6539 12.2926 91.8858 12.3184C95.5199 12.3184 98.9736 13.7867 101.654 16.4657L103.536 18.3462C106.396 21.1798 107.866 24.8635 107.685 28.7017Z" fill="#030F26"/>
</svg>
