<svg width="120" height="120" viewBox="0 0 120 120" fill="none" xmlns="http://www.w3.org/2000/svg">
<path d="M26.3222 88.0102C29.1091 85.0225 31.9211 82.0599 34.708 79.0721C34.9089 78.8462 35.1097 78.6453 35.3106 78.4193C35.637 78.0929 35.9382 77.7414 36.2646 77.4151C37.1936 76.4108 38.1477 75.4316 39.0766 74.4273C44.9266 68.251 50.8518 62.1751 56.8775 56.1745C57.5052 55.5468 58.1329 54.9192 58.7856 54.2915C58.9112 54.1659 59.0367 54.0404 59.1622 53.94C63.2045 49.9731 67.2969 46.0313 71.4145 42.1397C73.2975 40.3571 75.1554 38.5996 77.0385 36.817C81.4071 32.6743 85.7757 28.5317 90.1443 24.389C90.9728 23.6107 91.8014 22.8324 92.6048 22.0541C92.655 22.0038 92.7052 21.9536 92.7554 21.9034C92.881 21.7779 92.9814 21.6774 93.0818 21.5519C93.1069 21.5268 93.1321 21.4766 93.1572 21.4515C93.2325 21.3511 93.3078 21.2506 93.3831 21.1502C93.4082 21.1251 93.4333 21.0749 93.4585 21.0498C93.5338 20.9493 93.6091 20.8489 93.6844 20.7234C93.7095 20.6983 93.7346 20.6481 93.7346 20.623C93.81 20.5225 93.8602 20.397 93.9355 20.2715C93.9606 20.2463 93.9606 20.1961 93.9857 20.171C94.0359 20.0455 94.1112 19.92 94.1614 19.7944C94.1865 19.7693 94.1866 19.7191 94.2117 19.694C94.2619 19.5685 94.3121 19.4429 94.3623 19.3174C94.3623 19.2923 94.3874 19.2421 94.3874 19.217C94.4376 19.0914 94.4627 18.9659 94.5129 18.8404C94.5129 18.7901 94.538 18.765 94.538 18.7148C94.5632 18.5893 94.5883 18.4637 94.6134 18.3382C94.6134 18.288 94.6385 18.2378 94.6385 18.1876C94.6636 18.062 94.6887 17.9365 94.6887 17.811C94.6887 17.7607 94.6887 17.6854 94.7138 17.6352C94.7138 17.5097 94.7389 17.4093 94.7389 17.2837C94.7389 17.2084 94.7389 17.1582 94.7389 17.0829C94.7389 16.9824 94.7389 16.882 94.7389 16.7565C94.7389 16.6811 94.7389 16.6058 94.7389 16.5054C94.7389 16.405 94.7138 16.3045 94.7138 16.2041C94.7138 16.1037 94.6887 16.0284 94.6887 15.9279C94.6636 15.8275 94.6636 15.7522 94.6385 15.6518C94.6134 15.5513 94.6134 15.4509 94.5883 15.3505C94.5632 15.2752 94.538 15.1747 94.538 15.0994C94.5129 14.999 94.4878 14.8985 94.4627 14.7981C94.4376 14.7228 94.4125 14.6224 94.3874 14.547C94.3623 14.4466 94.3121 14.3462 94.287 14.2709C94.287 14.2458 94.2619 14.2207 94.2619 14.1704C94.2368 14.0951 94.2117 14.0449 94.1866 13.9947C94.1614 13.9445 94.1363 13.8692 94.1112 13.8189C94.1112 13.7938 94.0861 13.7687 94.061 13.7436C94.0359 13.6683 93.9857 13.593 93.9606 13.5177C93.9104 13.4172 93.8602 13.3168 93.7848 13.2164C93.7597 13.1913 93.7346 13.1662 93.7346 13.1159C93.2074 12.2372 92.5044 11.484 91.701 10.9065C91.6507 10.8814 91.6005 10.8312 91.5503 10.8061C91.5001 10.7559 91.4248 10.7308 91.3746 10.6806C91.2741 10.6052 91.1737 10.5299 91.0482 10.4797C91.0231 10.4797 91.0231 10.4546 90.998 10.4546C89.9686 9.82693 88.8136 9.45032 87.6587 9.375C87.6085 9.375 87.5332 9.375 87.483 9.375C87.4076 9.375 87.3574 9.375 87.2821 9.375C87.1817 9.375 87.0562 9.375 86.9557 9.375C86.9306 9.375 86.9055 9.375 86.8804 9.375C86.8302 9.375 86.78 9.375 86.7298 9.375C86.6293 9.375 86.5289 9.375 86.4285 9.40011C86.328 9.40011 86.2276 9.42521 86.1272 9.45032C86.077 9.45032 86.0268 9.47543 85.9765 9.47543C83.5412 9.90225 82.085 11.6095 80.5032 13.2666C79.5743 14.2458 78.6704 15.1998 77.7414 16.179C73.7243 20.4221 69.7072 24.6401 65.7152 28.8832C60.1665 34.7582 54.5928 40.6081 48.9186 46.3577C47.7134 47.5628 46.5334 48.7679 45.3283 49.9731C44.6755 50.6259 44.0478 51.2535 43.395 51.9063C43.1691 52.1323 42.9431 52.3582 42.692 52.5842C37.4949 57.706 32.2475 62.7526 26.9248 67.7488C26.5984 68.025 26.021 68.3765 25.8452 68.7531C25.5439 69.0544 25.2175 69.3306 24.9163 69.6319C20.874 73.423 16.8318 77.1891 12.8147 80.9803C12.2372 81.5075 11.6346 82.0348 11.1074 82.5871L11.0823 82.6122C10.2537 83.4156 9.65118 84.445 9.45032 85.6251C9.45032 85.6753 9.42521 85.7004 9.42521 85.7506C9.42521 85.8008 9.42521 85.8259 9.40011 85.8761C9.40011 85.9515 9.375 86.0017 9.375 86.077C9.375 86.1272 9.375 86.1523 9.375 86.2025C9.375 86.2778 9.375 86.3281 9.375 86.4034C9.375 86.4536 9.375 86.4787 9.375 86.5289C9.375 86.5791 9.375 86.6293 9.375 86.6796C9.375 86.8051 9.375 86.9055 9.40011 87.0311C9.40011 87.0562 9.40011 87.0813 9.40011 87.1064C9.40011 87.1064 9.40011 87.1064 9.40011 87.1315C9.42521 87.2821 9.45032 87.4328 9.47543 87.5834C9.92735 89.7677 11.8104 91.2741 13.3921 92.8559C13.4172 92.881 13.4674 92.9312 13.5177 92.9563C14.07 93.4836 14.6224 93.9355 15.3003 94.2619C16.6058 94.8644 18.0369 94.9398 19.2421 94.5883C19.3676 94.5632 19.468 94.513 19.5936 94.4627C19.8948 94.3623 20.171 94.2117 20.4472 94.0359C21.6774 93.2827 22.6064 91.9771 23.5856 90.9226C23.6358 90.8724 23.686 90.8222 23.7362 90.772C24.5648 89.8933 25.4435 88.9643 26.3222 88.0102ZM25.318 86.3532C24.6903 87.0311 24.0375 87.7089 23.4098 88.3868C22.5311 89.3158 21.6523 90.2699 20.7736 91.1988C20.6983 91.2993 20.5978 91.3746 20.5225 91.475C19.8697 92.1529 19.0663 92.7555 18.1374 92.9563C17.0578 93.1321 15.8526 92.8057 14.8734 91.8767C14.6726 91.701 14.4968 91.5252 14.296 91.3244C14.0951 91.1235 13.8943 90.8975 13.6934 90.6967C13.5177 90.5209 13.3419 90.3703 13.1662 90.1945C12.9151 89.9435 12.664 89.6673 12.3878 89.4162C11.3333 88.3366 10.9819 86.9557 11.258 85.7506C11.484 85.0978 11.8857 84.5203 12.3627 83.968C12.4632 83.8676 12.5887 83.7671 12.6891 83.6667C14.5722 81.9092 16.4552 80.1266 18.3382 78.3691C19.694 77.0887 21.0749 75.8082 22.4307 74.5277C23.4349 73.5737 24.4392 72.6447 25.4435 71.6907C25.5439 71.5902 25.6946 71.4898 25.7699 71.3894C25.795 71.3643 25.8201 71.3643 25.8201 71.3392C25.8201 71.4145 25.8201 71.4898 25.8201 71.5651C25.8703 73.423 25.9205 75.3061 25.9707 77.164C26.0461 79.9007 26.1214 82.6122 26.1967 85.3489C25.9456 85.6753 25.6192 86.0268 25.318 86.3532ZM37.5451 60.2418C37.5702 60.1916 37.5702 60.1665 37.5953 60.1414C37.7208 59.9657 37.997 59.815 38.1226 59.6644C38.3234 59.4886 38.4992 59.2878 38.7 59.112C38.7251 59.0869 38.7502 59.0618 38.7753 59.0367C38.8256 58.9865 38.8507 58.9614 38.9009 58.9112C39.0013 58.8107 39.1017 58.7103 39.2022 58.635C39.4532 58.3839 39.7043 58.1329 39.9554 57.9069C40.0056 57.8567 40.0558 57.8065 40.106 57.7562C40.2064 57.6558 40.3069 57.5554 40.4324 57.455C40.6333 57.2541 40.8592 57.0533 41.0601 56.8273C41.512 56.3754 41.989 55.9234 42.441 55.4715C42.5665 55.346 42.6669 55.2455 42.7925 55.12C43.0184 54.894 43.2444 54.6681 43.4955 54.4421C44.6755 53.2621 45.8806 52.0821 47.0607 50.902C47.3368 50.6259 47.5879 50.3748 47.8641 50.0986C48.4415 49.5211 48.9939 48.9688 49.5714 48.3913C50.3246 47.6381 51.0778 46.8598 51.831 46.1066C51.9565 45.9811 52.0821 45.8555 52.2076 45.73C52.2578 45.6798 52.3331 45.6044 52.3833 45.5542C52.9608 44.9517 53.5383 44.3742 54.1157 43.7716C54.417 43.4703 54.6932 43.1691 54.9945 42.8678C57.1537 40.6333 59.3129 38.3987 61.4721 36.1391C61.9491 35.637 62.4262 35.1348 62.9032 34.6327L62.9283 34.6076C64.51 32.9505 66.0667 31.2934 67.6484 29.6113C67.774 29.4606 67.9246 29.3351 68.0501 29.1844C71.8162 25.2175 75.5822 21.2506 79.3483 17.2586C80.0011 16.5556 80.6539 15.8777 81.3066 15.1747C81.7335 14.7228 82.1854 14.2458 82.6122 13.7938C82.7377 13.6683 82.8633 13.5428 82.9888 13.4172C83.8173 12.5636 84.7463 11.8104 85.8761 11.4589C87.8596 10.9819 90.2448 11.6346 91.6758 13.4172C91.701 13.4423 91.701 13.4674 91.7261 13.4674C91.7763 13.5428 91.8265 13.593 91.8767 13.6683C91.9018 13.6934 91.9018 13.7185 91.9269 13.7185C91.9771 13.7938 92.0274 13.8692 92.0776 13.9445C92.3286 14.3211 92.5295 14.773 92.6801 15.2249C92.7303 15.3505 92.7554 15.476 92.7806 15.5764C93.0818 16.9071 92.881 18.2378 92.3035 19.3425C92.0273 19.8697 91.6507 20.3468 91.2239 20.7485C90.5963 21.3511 89.9686 21.9285 89.3409 22.5311C88.5877 23.2341 87.8596 23.9371 87.1064 24.6401C86.3532 25.3431 85.6251 26.0461 84.8718 26.7491C81.6079 29.8372 78.344 32.9254 75.0801 36.0387C73.9252 37.1183 72.7954 38.223 71.6404 39.3026C71.314 39.629 70.9626 39.9303 70.6362 40.2566C69.9332 40.9094 69.2553 41.5622 68.5523 42.215C68.4518 42.3154 68.3263 42.4159 68.2259 42.5163C65.8909 44.7257 63.556 46.9602 61.2712 49.1948C61.1708 49.2952 61.0453 49.3956 60.9448 49.5211C60.8193 49.6467 60.6687 49.7973 60.5431 49.9229C58.9865 51.4544 57.4299 52.9608 55.8732 54.4923C55.7226 54.643 55.5719 54.7936 55.3962 54.9443C53.8647 56.4507 52.3331 57.9822 50.8267 59.5137C50.7012 59.6393 50.5756 59.7648 50.4501 59.8903C48.9437 61.4219 47.4122 62.9534 45.9308 64.51C45.6547 64.7862 45.3785 65.0624 45.1023 65.3637C44.8763 65.5896 44.6504 65.8156 44.4244 66.0416C43.1691 67.3471 41.9137 68.6527 40.6584 69.9583C40.5579 70.0587 40.4575 70.1591 40.3571 70.2596C39.5285 71.1383 38.7 71.9919 37.8715 72.8707C37.8213 70.7868 37.7459 68.6778 37.6957 66.5939C37.6455 65.1377 37.6204 63.6815 37.5702 62.2253C37.5702 61.9742 37.5451 61.7483 37.5451 61.4972C37.5451 61.1708 37.4447 60.6938 37.4698 60.3423C37.4949 60.3674 37.52 60.2921 37.5451 60.2418Z" fill="#030F26"/>
<path d="M108.648 28.5065C107.317 25.6443 104.279 23.937 101.442 24.0374C98.4542 24.163 96.8222 26.0711 95.0647 27.929C90.1437 33.1262 85.1976 38.3485 80.2767 43.5456C74.6025 49.5211 68.9534 55.4966 63.1537 61.3465C55.5462 69.0293 47.738 76.5363 39.8292 83.9428C35.1091 88.3868 30.3388 92.7805 25.6438 97.2496C24.3884 98.4547 23.6603 100.162 24.0369 102.145C24.4386 104.38 26.3217 105.886 27.9285 107.468C29.9873 109.527 32.7239 109.979 34.858 108.798C35.9628 108.171 36.7662 107.116 37.5947 106.212C41.5114 102.045 45.403 97.9023 49.3197 93.7346C58.0067 84.4701 66.8444 75.3311 75.9332 66.4683C81.1303 61.3967 86.4028 56.4255 91.6753 51.4292C96.6213 46.7593 101.542 42.0643 106.489 37.3944C106.79 37.0931 107.116 36.7918 107.417 36.5156C109.3 34.6326 110.054 31.4691 108.648 28.5065ZM37.7956 103.225C37.1177 103.928 36.4649 104.656 35.787 105.359C35.31 105.886 34.8329 106.464 34.2806 106.915C33.0252 107.895 30.9162 107.945 29.46 106.489C28.0791 105.108 25.9953 103.576 25.7944 101.618C25.5936 99.8858 26.6229 98.9317 27.6523 97.9525C30.3639 95.4167 33.0754 92.8809 35.7619 90.32C36.5653 89.5668 37.3939 88.7885 38.1973 88.0353C38.2977 91.4498 38.3981 94.8644 38.4986 98.304C38.5237 99.5343 38.6241 100.789 38.599 102.02C38.599 102.597 38.1471 102.873 37.7956 103.225ZM105.936 35.3105C103.928 37.2689 101.869 39.177 99.835 41.1102C96.5209 44.2486 93.2319 47.387 89.9178 50.5254C87.6832 52.6344 85.4487 54.7433 83.2393 56.8523C83.1138 56.9528 83.0133 57.0783 82.8878 57.1787C73.8493 65.7653 64.9865 74.5528 56.3748 83.5662C54.3411 85.7003 52.3074 87.8344 50.2989 89.9936C50.1984 86.1774 50.0729 82.3611 49.9725 78.5448C49.9725 78.1431 49.8469 77.5656 49.9223 77.189C50.0227 76.7873 50.575 76.4358 50.8763 76.1596C51.3283 75.7328 51.7551 75.306 52.207 74.8792C53.0104 74.1009 53.7888 73.3477 54.5922 72.5693C57.9063 69.3556 61.1702 66.0917 64.409 62.8278C68.6772 58.5094 72.8952 54.1408 77.063 49.747C79.4481 47.2112 81.8584 44.7005 84.2436 42.1647C87.3317 38.9008 90.445 35.6118 93.5332 32.3479C95.1149 30.6908 96.6465 28.9584 98.2533 27.3516C100.387 25.2426 104.806 25.2928 106.815 28.8078C108.171 31.193 107.493 33.779 105.936 35.3105Z" fill="#030F26"/>
</svg>
