<svg width="348" height="256" viewBox="0 0 348 256" fill="none" xmlns="http://www.w3.org/2000/svg">
<path d="M257.287 614.386C254.929 616.108 253.147 618.42 251.943 621.323C250.71 626.56 252.398 631.832 256.459 634.217L324.217 683.486C330.01 687.642 337.626 685.985 341.196 680.777C342.978 678.465 344.175 676.145 344.204 673.812C344.254 669.727 341.96 666.198 339.068 663.828L307.792 641.268C297.37 633.554 297.564 617.8 308.173 610.345L340.002 587.979C345.895 583.967 347.157 576.396 343.132 571.095C339.114 565.21 331.534 563.949 326.225 567.969L257.287 614.386Z" fill="white" fill-opacity="0.2"/>
<path d="M261.407 280.066C259.049 281.788 257.267 284.1 256.063 287.003C254.83 292.24 256.518 297.512 260.579 299.897L328.337 349.166C334.129 353.322 341.746 351.665 345.316 346.457C347.097 344.145 348.295 341.825 348.331 338.908C348.381 334.824 346.671 331.302 343.195 328.925L311.919 306.365C301.497 298.65 301.691 282.897 312.3 275.441L344.706 253.666C350.599 249.654 351.861 242.083 347.836 236.782C343.818 230.897 336.238 229.636 330.929 233.656L261.407 280.066Z" fill="white" fill-opacity="0.2"/>
<path d="M262.984 9.90445C261.203 12.2167 260.59 14.5433 260.561 16.8772C260.511 20.9614 262.22 24.4837 265.697 26.8607L325.932 70.2016C326.517 70.2088 326.509 70.7923 327.094 70.7995L332.309 74.365C338.101 78.5212 345.717 76.8644 349.287 71.6565C351.069 69.3443 351.682 67.0177 351.711 64.6839C351.761 60.5997 350.051 57.0773 346.575 54.7003L286.339 11.3594C285.755 11.3522 285.762 10.7687 285.178 10.7615L280.547 7.20315C274.755 3.04694 267.146 4.12026 262.984 9.90445Z" fill="white" fill-opacity="0.2"/>
<path d="M170.289 466.845C172.647 465.123 174.429 462.811 175.633 459.908C176.866 454.671 175.178 449.399 171.117 447.014L18.7865 337.765C12.9945 333.609 5.37793 335.266 1.80782 340.474C0.0263549 342.786 -0.586645 345.112 -0.615402 347.446C-0.665727 351.53 1.04385 355.053 4.5205 357.43L120.945 440.561C131.368 448.275 131.174 464.028 120.564 471.484L2.12648 551.721C-3.76619 555.733 -5.02812 563.303 -1.00318 568.605C3.01457 574.49 10.5952 575.75 15.9037 571.731L170.289 466.845Z" fill="white" fill-opacity="0.2"/>
<path d="M84.99 465.794C87.3485 464.072 89.1299 461.76 90.3343 458.857C91.5675 453.62 89.8795 448.348 85.8186 445.963L18.0527 397.278C12.2607 393.121 4.64408 394.778 1.07397 399.986C-0.707489 402.298 -1.32049 404.625 -1.34925 406.959C-1.39957 411.043 0.310005 414.565 3.78666 416.942L35.0621 439.502C45.4849 447.217 45.2908 462.97 34.6811 470.426L2.27499 492.201C-3.61767 496.213 -4.8796 503.784 -0.854666 509.085C3.16308 514.97 10.7438 516.231 16.0522 512.211L84.99 465.794Z" fill="white" fill-opacity="0.2"/>
<path d="M90.647 6.61392C88.8656 8.92613 88.2526 11.2527 88.2238 13.5866C88.1735 17.6708 89.8831 21.1931 93.3597 23.5701L209.784 106.701C220.207 114.415 220.013 130.169 209.403 137.624L90.9657 217.861L4.93417 276.322C2.57566 278.044 0.794216 280.356 -0.410199 283.259C-1.64337 288.496 0.0446246 293.769 4.10551 296.153L157.006 406.576L205.658 441.605C216.08 449.319 215.886 465.072 205.277 472.528L86.8391 552.765L0.807539 611.226C-1.55097 612.948 -3.33241 615.26 -4.53683 618.163C-5.77 623.399 -4.08201 628.672 -0.0211213 631.056L152.887 740.896C158.679 745.052 166.295 743.396 169.865 738.188C171.647 735.875 172.26 733.549 172.289 731.215C172.339 727.131 170.629 723.609 167.153 721.231L50.7282 638.101C40.3054 630.386 40.4996 614.633 51.1092 607.178L169.547 526.941L255.586 467.896C257.944 466.174 259.726 463.862 260.93 460.959C262.163 455.722 260.475 450.45 256.414 448.065L104.083 338.816L55.4319 303.788C45.0091 296.073 45.2032 280.32 55.8129 272.865L174.251 192.628L260.282 134.166C262.641 132.445 264.422 130.132 265.626 127.229C266.86 121.993 265.172 116.72 261.111 114.336L108.78 5.08673C102.418 -0.243588 94.8086 0.829731 90.647 6.61392Z" fill="white" fill-opacity="0.2"/>
<path d="M175.946 7.6649C174.164 9.97711 173.551 12.3038 173.523 14.6376C173.472 18.7217 175.182 22.2441 178.659 24.6211L295.083 107.752C305.506 115.466 305.312 131.22 294.702 138.675L176.264 218.912L90.233 277.373C87.8745 279.095 86.093 281.407 84.8886 284.31C83.6554 289.547 85.3434 294.819 89.4043 297.204L242.305 407.627L290.957 442.656C301.379 450.37 301.185 466.123 290.575 473.579L172.138 553.816L86.1063 612.277C83.7478 613.999 81.9664 616.311 80.7619 619.214C79.5288 624.45 81.2168 629.723 85.2777 632.107L238.186 741.947C243.978 746.103 251.594 744.447 255.164 739.239C256.946 736.927 257.559 734.6 257.587 732.266C257.638 728.182 255.928 724.66 252.452 722.283L136.027 639.152C125.604 631.437 125.798 615.684 136.408 608.229L254.846 527.992L341.469 468.954C343.827 467.232 345.609 464.92 346.813 462.017C348.046 456.781 346.358 451.508 342.297 449.124L189.966 339.874L141.315 304.846C130.892 297.131 131.086 281.378 141.696 273.923L260.134 193.686L345.595 134.05C347.954 132.329 349.735 130.016 350.94 127.114C352.173 121.877 350.485 116.604 346.424 114.22L194.093 4.9708C187.717 0.80745 180.107 1.88071 175.946 7.6649Z" fill="white" fill-opacity="0.2"/>
<path d="M171.405 613.328C169.046 615.05 167.265 617.362 166.061 620.265C164.827 625.502 166.515 630.774 170.576 633.158L323.484 742.998C329.276 747.154 336.893 745.498 340.463 740.29C342.244 737.978 343.442 735.658 343.47 733.324C343.521 729.24 341.811 725.718 338.334 723.341L221.91 640.21C211.487 632.495 211.681 616.742 222.291 609.287L340.729 529.05C346.621 525.038 347.883 517.467 343.858 512.166C339.84 506.281 332.26 505.02 326.951 509.04L171.405 613.328Z" fill="white" fill-opacity="0.2"/>
<path d="M174.415 131.941C176.774 130.219 178.555 127.907 179.76 125.004C180.993 119.768 179.305 114.495 175.244 112.111L22.9132 2.86155C17.1212 -1.2946 9.50455 0.362169 5.93444 5.5701C4.15298 7.88231 3.53998 10.2089 3.51123 12.5428C3.4609 16.627 5.17048 20.1493 8.64713 22.5263L125.072 105.657C135.495 113.372 135.3 129.125 124.691 136.58L6.25311 216.817C0.360438 220.829 -0.901491 228.4 3.12345 233.701C7.1412 239.586 14.7219 240.847 20.0303 236.827L174.415 131.941Z" fill="white" fill-opacity="0.2"/>
<path d="M89.1166 130.89C91.4751 129.168 93.2565 126.856 94.461 123.953C95.6941 118.717 94.0061 113.444 89.9452 111.06L22.1793 62.3741C16.3873 58.2179 8.77071 59.8747 5.2006 65.0825C3.41914 67.3948 2.80614 69.7215 2.77738 72.0553C2.72706 76.1395 4.43663 79.6618 7.91328 82.0388L39.1887 104.599C49.6115 112.313 49.4174 128.067 38.8077 135.522L6.40162 157.297C0.508953 161.31 -0.752975 168.88 3.27196 174.182C7.28971 180.067 14.8704 181.327 20.1788 177.308L89.1166 130.89Z" fill="white" fill-opacity="0.2"/>
<path d="M175.524 279.008C173.166 280.73 171.384 283.042 170.18 285.945C168.947 291.181 170.635 296.454 174.696 298.838L327.604 408.678C333.396 412.834 341.012 411.177 344.582 405.97C346.364 403.657 347.561 401.338 347.59 399.004C347.64 394.92 345.931 391.398 342.454 389.021L226.029 305.89C215.607 298.175 215.801 282.422 226.41 274.967L344.848 194.73C350.741 190.717 352.003 183.147 347.978 177.845C343.96 171.961 336.379 170.7 331.071 174.719L175.524 279.008Z" fill="white" fill-opacity="0.2"/>
<path d="M82.8158 737.115C84.5972 734.803 85.2102 732.476 85.239 730.142C85.2893 726.058 83.5797 722.536 80.1031 720.159L19.8675 676.818C19.2833 676.811 19.2905 676.227 18.7062 676.22L14.0755 672.662C8.28346 668.505 0.666837 670.162 -2.90327 675.37C-4.68473 677.682 -5.29771 680.009 -5.32647 682.343C-5.37679 686.427 -3.66724 689.949 -0.19059 692.326L60.045 735.667C60.0378 736.251 60.622 736.258 60.622 736.258L65.2528 739.816C71.0448 743.972 78.6542 742.899 82.8158 737.115Z" fill="white" fill-opacity="0.2"/>
</svg>
