<svg width="129" height="86" viewBox="0 0 129 86" fill="none" xmlns="http://www.w3.org/2000/svg">
<path d="M34.7028 39.0559C35.543 39.6693 36.1776 40.493 36.6067 41.5271C37.046 43.3927 36.4447 45.2711 34.998 46.1205L10.8591 63.6725C8.79566 65.1531 6.08226 64.5629 4.81041 62.7076C4.17577 61.8838 3.74926 61.0576 3.73901 60.2261C3.72108 58.7711 4.53825 57.5138 5.56866 56.6695L16.7105 48.6325C20.4236 45.8843 20.3544 40.2722 16.5748 37.6162L5.23571 29.6484C3.13646 28.219 2.68691 25.522 4.12078 23.6334C5.5521 21.5369 8.2527 21.0878 10.1438 22.5197L34.7028 39.0559Z" fill="white" fill-opacity="0.2"/>
<path d="M33.2351 -80.0449C34.0753 -79.4316 34.71 -78.6079 35.139 -77.5737C35.5784 -75.7082 34.977 -73.8298 33.5303 -72.9804L9.3914 -55.4284C7.32801 -53.9478 4.6146 -54.538 3.34276 -56.3933C2.70812 -57.217 2.28161 -58.0433 2.26881 -59.0826C2.25088 -60.5376 2.85991 -61.7924 4.09846 -62.6392L15.2403 -70.6762C18.9534 -73.4244 18.8842 -79.0365 15.1045 -81.6925L3.55993 -89.4499C1.46068 -90.8793 1.01113 -93.5762 2.445 -95.4649C3.87632 -97.5614 6.57692 -98.0105 8.46804 -96.5786L33.2351 -80.0449Z" fill="white" fill-opacity="0.2"/>
<path d="M32.6733 -176.29C33.308 -175.466 33.5264 -174.637 33.5366 -173.806C33.5545 -172.351 32.9455 -171.096 31.707 -170.249L10.2481 -154.809C10.04 -154.806 10.0426 -154.598 9.83444 -154.596L7.97661 -153.326C5.91322 -151.845 3.19981 -152.435 1.92797 -154.29C1.29332 -155.114 1.07495 -155.943 1.06471 -156.774C1.04678 -158.229 1.65581 -159.484 2.89436 -160.331L24.3532 -175.771C24.5613 -175.774 24.5587 -175.982 24.7669 -175.984L26.4166 -177.252C28.48 -178.732 31.1908 -178.35 32.6733 -176.29Z" fill="white" fill-opacity="0.2"/>
<path d="M65.6959 -13.5055C64.8557 -14.1188 64.221 -14.9425 63.792 -15.9766C63.3526 -17.8422 63.954 -19.7206 65.4007 -20.57L119.668 -59.4898C121.732 -60.9704 124.445 -60.3802 125.717 -58.5249C126.352 -57.7012 126.57 -56.8723 126.58 -56.0409C126.598 -54.5859 125.989 -53.3311 124.751 -52.4843L83.2745 -22.8691C79.5614 -20.1208 79.6305 -14.5087 83.4102 -11.8528L125.603 16.7315C127.703 18.1608 128.152 20.8578 126.718 22.7464C125.287 24.8429 122.586 25.292 120.695 23.8601L65.6959 -13.5055Z" fill="white" fill-opacity="0.2"/>
<path d="M96.0834 -13.8799C95.2432 -14.4932 94.6086 -15.3169 94.1795 -16.3511C93.7402 -18.2166 94.3415 -20.095 95.7882 -20.9444L119.93 -38.2886C121.993 -39.7692 124.706 -39.179 125.978 -37.3237C126.613 -36.4999 126.831 -35.6711 126.842 -34.8397C126.86 -33.3847 126.25 -32.1299 125.012 -31.2831L113.87 -23.2461C110.157 -20.4978 110.226 -14.8857 114.006 -12.2298L125.55 -4.47232C127.65 -3.04298 128.099 -0.345991 126.665 1.54266C125.234 3.63916 122.533 4.08821 120.642 2.65631L96.0834 -13.8799Z" fill="white" fill-opacity="0.2"/>
<path d="M94.0681 -177.462C94.7027 -176.638 94.9211 -175.809 94.9314 -174.978C94.9493 -173.523 94.3402 -172.268 93.1017 -171.421L51.6257 -141.806C47.9126 -139.058 47.9817 -133.446 51.7614 -130.79L93.9546 -102.205L124.603 -81.3786C125.443 -80.7653 126.078 -79.9416 126.507 -78.9075C126.946 -77.0419 126.345 -75.1635 124.898 -74.3141L70.4278 -34.976L53.0958 -22.4972C49.3827 -19.7489 49.4518 -14.1368 53.2315 -11.4808L95.4247 17.1034L126.073 37.9302C126.913 38.5435 127.548 39.3672 127.977 40.4013C128.416 42.2669 127.815 44.1453 126.368 44.9947L71.8953 84.1249C69.8319 85.6055 67.1185 85.0153 65.8467 83.16C65.212 82.3363 64.9936 81.5074 64.9834 80.676C64.9655 79.221 65.5745 77.9662 66.8131 77.1194L108.289 47.5042C112.002 44.7559 111.933 39.1438 108.153 36.4879L65.9602 7.90365L35.3091 -13.131C34.4688 -13.7443 33.8342 -14.568 33.4051 -15.6022C32.9658 -17.4677 33.5672 -19.3461 35.0138 -20.1955L89.2814 -59.1153L106.613 -71.5942C110.327 -74.3425 110.257 -79.9546 106.478 -82.6105L64.2845 -111.195L33.6359 -132.022C32.7957 -132.635 32.1611 -133.459 31.732 -134.493C31.2927 -136.358 31.894 -138.237 33.3407 -139.086L87.6083 -178.006C89.8747 -179.905 92.5856 -179.522 94.0681 -177.462Z" fill="white" fill-opacity="0.2"/>
<path d="M63.6806 -177.087C64.3152 -176.264 64.5336 -175.435 64.5438 -174.603C64.5617 -173.148 63.9527 -171.894 62.7142 -171.047L21.2381 -141.432C17.525 -138.683 17.5942 -133.071 21.3739 -130.415L63.567 -101.831L94.2156 -81.0042C95.0558 -80.3909 95.6905 -79.5672 96.1195 -78.533C96.5588 -76.6675 95.9575 -74.7891 94.5108 -73.9397L40.0402 -34.6016L22.7082 -22.1227C18.9951 -19.3745 19.0643 -13.7624 22.844 -11.1064L65.0371 17.4778L95.6857 38.3046C96.5259 38.9179 97.1606 39.7416 97.5896 40.7758C98.029 42.6413 97.4276 44.5197 95.9809 45.3691L41.5078 84.4993C39.4444 85.98 36.731 85.3897 35.4591 83.5344C34.8245 82.7107 34.6061 81.8818 34.5959 81.0504C34.5779 79.5954 35.187 78.3406 36.4255 77.4938L77.9016 47.8786C81.6147 45.1303 81.5455 39.5183 77.7658 36.8623L35.5726 8.27808L4.71339 -12.754C3.87318 -13.3673 3.23854 -14.191 2.80947 -15.2252C2.37015 -17.0907 2.97149 -18.9691 4.41817 -19.8185L58.6858 -58.7383L76.0178 -71.2172C79.7309 -73.9655 79.6617 -79.5776 75.882 -82.2335L33.6888 -110.818L3.24329 -132.063C2.40307 -132.676 1.76843 -133.5 1.33936 -134.534C0.900047 -136.4 1.50139 -138.278 2.94807 -139.127L57.2156 -178.047C59.4872 -179.53 62.198 -179.148 63.6806 -177.087Z" fill="white" fill-opacity="0.2"/>
<path d="M65.2982 38.679C66.1384 39.2923 66.7731 40.1161 67.2022 41.1502C67.6415 43.0158 67.0401 44.8942 65.5934 45.7435L11.1203 84.8738C9.0569 86.3544 6.3435 85.7642 5.07165 83.9089C4.43701 83.0851 4.0105 82.2588 4.00025 81.4274C3.98232 79.9724 4.59135 78.7176 5.8299 77.8708L47.306 48.2556C51.019 45.5073 50.9499 39.8952 47.1702 37.2393L4.97704 8.65508C2.87778 7.22574 2.42823 4.52875 3.86211 2.6401C5.29342 0.543602 7.99402 0.0945491 9.88514 1.52645L65.2982 38.679Z" fill="white" fill-opacity="0.2"/>
<path d="M64.2258 -132.814C63.3856 -133.428 62.7509 -134.251 62.3219 -135.285C61.8825 -137.151 62.4839 -139.029 63.9306 -139.879L118.198 -178.799C120.262 -180.279 122.975 -179.689 124.247 -177.834C124.881 -177.01 125.1 -176.181 125.11 -175.35C125.128 -173.895 124.519 -172.64 123.28 -171.793L81.8043 -142.178C78.0913 -139.43 78.1604 -133.817 81.9401 -131.162L124.133 -102.577C126.233 -101.148 126.682 -98.451 125.248 -96.5623C123.817 -94.4658 121.116 -94.0168 119.225 -95.4487L64.2258 -132.814Z" fill="white" fill-opacity="0.2"/>
<path d="M94.6133 -133.189C93.7731 -133.802 93.1385 -134.626 92.7094 -135.66C92.2701 -137.525 92.8714 -139.404 94.3181 -140.253L118.46 -157.597C120.523 -159.078 123.236 -158.488 124.508 -156.632C125.143 -155.809 125.361 -154.98 125.371 -154.148C125.389 -152.693 124.78 -151.439 123.542 -150.592L112.4 -142.555C108.687 -139.807 108.756 -134.194 112.536 -131.539L124.08 -123.781C126.18 -122.352 126.629 -119.655 125.195 -117.766C123.764 -115.67 121.063 -115.221 119.172 -116.652L94.6133 -133.189Z" fill="white" fill-opacity="0.2"/>
<path d="M63.8307 -80.4219C64.6709 -79.8086 65.3055 -78.9849 65.7346 -77.9508C66.1739 -76.0852 65.5726 -74.2068 64.1259 -73.3574L9.65275 -34.2272C7.58936 -32.7466 4.87595 -33.3368 3.60411 -35.1921C2.96947 -36.0158 2.54295 -36.8421 2.53271 -37.6735C2.51478 -39.1285 3.12381 -40.3833 4.36236 -41.2301L45.8384 -70.8453C49.5515 -73.5936 49.4824 -79.2057 45.7027 -81.8617L3.50949 -110.446C1.41024 -111.875 0.960689 -114.572 2.39457 -116.461C3.82588 -118.557 6.52648 -119.006 8.4176 -117.575L63.8307 -80.4219Z" fill="white" fill-opacity="0.2"/>
<path d="M96.858 82.7778C96.2233 81.9541 96.005 81.1253 95.9947 80.2938C95.9768 78.8388 96.5858 77.584 97.8244 76.7372L119.283 61.2971C119.491 61.2945 119.489 61.0867 119.697 61.0841L121.347 59.8165C123.41 58.3358 126.123 58.926 127.395 60.7814C128.03 61.6051 128.248 62.4339 128.258 63.2654C128.276 64.7203 127.667 65.9752 126.429 66.822L104.97 82.2621C104.973 82.47 104.764 82.4725 104.764 82.4725L103.115 83.7402C101.051 85.2208 98.3405 84.8384 96.858 82.7778Z" fill="white" fill-opacity="0.2"/>
</svg>
