<svg width="35" height="35" viewBox="0 0 35 35" fill="none" xmlns="http://www.w3.org/2000/svg">
<g clip-path="url(#clip0)">
<path d="M2.80406 15.2614C2.98622 15.3343 3.19748 15.3343 3.37965 15.2469L9.06977 12.6604C9.43403 12.4856 9.58703 12.0484 9.41217 11.6842C9.24463 11.3345 8.82934 11.1742 8.47232 11.3345L4.48704 13.1486C6.3886 7.45847 11.6853 3.65535 17.7834 3.65535C24.1729 3.65535 29.761 7.92477 31.3711 14.0374C31.4731 14.4235 31.8738 14.6567 32.26 14.5547C32.6461 14.4527 32.8793 14.052 32.7772 13.6659C30.9995 6.91935 24.8358 2.19824 17.7833 2.19824C11.0587 2.19824 5.20826 6.39478 3.09544 12.675L1.41976 8.48582C1.29592 8.10694 0.880641 7.89568 0.501764 8.01951C0.122887 8.14334 -0.0883744 8.55863 0.0354591 8.9375C0.0427675 8.96667 0.057316 8.99577 0.0718646 9.02493L2.39601 14.8534C2.46889 15.0356 2.61458 15.1886 2.80406 15.2614Z" fill="#030F26"/>
<path d="M34.9562 26.0142C34.9489 25.9996 34.9417 25.985 34.9417 25.9705L32.6175 20.142C32.5446 19.9598 32.3989 19.8068 32.2095 19.734C32.0274 19.6611 31.8161 19.6684 31.6339 19.7485L25.9438 22.335C25.5723 22.488 25.3974 22.9178 25.5504 23.2894C25.7034 23.6609 26.1332 23.8358 26.5048 23.6828C26.5193 23.6755 26.534 23.6682 26.5485 23.6609L30.5338 21.8468C28.6177 27.5369 23.3137 31.34 17.2229 31.34C10.8333 31.34 5.24526 27.0706 3.63515 20.958C3.53317 20.5719 3.13244 20.3387 2.74632 20.4407C2.3602 20.5427 2.12702 20.9434 2.22906 21.3295C3.99948 28.0834 10.1705 32.7972 17.223 32.7972C23.9476 32.7972 29.7907 28.6006 31.9108 22.3204L33.5865 26.5096C33.725 26.8885 34.1403 27.0852 34.5191 26.9467C34.8979 26.8083 35.0946 26.3931 34.9562 26.0142Z" fill="#030F26"/>
</g>
<defs>
<clipPath id="clip0">
<rect width="35" height="35" fill="white"/>
</clipPath>
</defs>
</svg>
