<svg width="20" height="20" viewBox="0 0 20 20" fill="none" xmlns="http://www.w3.org/2000/svg">
<path fill-rule="evenodd" clip-rule="evenodd" d="M1.25 2.5C1.25 2.15482 1.52982 1.875 1.875 1.875H6.875C7.22018 1.875 7.5 2.15482 7.5 2.5C7.5 2.84518 7.22018 3.125 6.875 3.125H2.5V16.875H6.875C7.22018 16.875 7.5 17.1548 7.5 17.5C7.5 17.8452 7.22018 18.125 6.875 18.125H1.875C1.52982 18.125 1.25 17.8452 1.25 17.5V2.5ZM12.0581 4.55806C12.3021 4.31398 12.6979 4.31398 12.9419 4.55806L17.9419 9.55806C18.186 9.80214 18.186 10.1979 17.9419 10.4419L12.9419 15.4419C12.6979 15.686 12.3021 15.686 12.0581 15.4419C11.814 15.1979 11.814 14.8021 12.0581 14.5581L15.9911 10.625H5C4.65482 10.625 4.375 10.3452 4.375 10C4.375 9.65482 4.65482 9.375 5 9.375H15.9911L12.0581 5.44194C11.814 5.19786 11.814 4.80214 12.0581 4.55806Z" fill="#030F26"/>
</svg>
