<svg width="20" height="20" viewBox="0 0 20 20" fill="none" xmlns="http://www.w3.org/2000/svg">
<g opacity="0.7">
<path d="M10 5C4.79004 5 0.78125 9.58984 0.78125 9.58984L0.410156 10L0.78125 10.4102C0.78125 10.4102 4.43604 14.5776 9.29688 14.9609C9.52881 14.9902 9.76074 15 10 15C10.2393 15 10.4712 14.9902 10.7031 14.9609C15.564 14.5776 19.2188 10.4102 19.2188 10.4102L19.5898 10L19.2188 9.58984C19.2188 9.58984 15.21 5 10 5ZM10 6.25C11.377 6.25 12.6465 6.62598 13.75 7.12891C14.148 7.78809 14.375 8.54736 14.375 9.375C14.375 11.6333 12.6807 13.4888 10.4883 13.7305C10.4761 13.7329 10.4614 13.728 10.4492 13.7305C10.3003 13.7378 10.1514 13.75 10 13.75C9.83399 13.75 9.67285 13.7402 9.51172 13.7305C7.31934 13.4888 5.625 11.6333 5.625 9.375C5.625 8.55957 5.84473 7.80029 6.23047 7.14844H6.21094C7.32422 6.63574 8.6084 6.25 10 6.25ZM10 7.5C8.96484 7.5 8.125 8.33984 8.125 9.375C8.125 10.4102 8.96484 11.25 10 11.25C11.0352 11.25 11.875 10.4102 11.875 9.375C11.875 8.33984 11.0352 7.5 10 7.5ZM4.53125 8.08594C4.43359 8.50586 4.375 8.92822 4.375 9.375C4.375 10.4712 4.6875 11.4966 5.23438 12.3633C3.65967 11.4526 2.56592 10.3662 2.20703 10C2.50732 9.69238 3.34473 8.87695 4.53125 8.08594ZM15.4688 8.08594C16.6553 8.87695 17.4927 9.69238 17.793 10C17.4341 10.3662 16.3403 11.4526 14.7656 12.3633C15.3125 11.4966 15.625 10.4712 15.625 9.375C15.625 8.92822 15.5664 8.50098 15.4688 8.08594Z" fill="#030F26"/>
</g>
</svg>
