<svg viewBox="0 0 25 25" id="flag-uk2" xmlns="http://www.w3.org/2000/svg">
<path fill-rule="evenodd" clip-rule="evenodd" d="M1 5H24.125V20H1V5ZM2.47304 5.625L10.6875 10.3947V5.625H2.47304ZM11.3125 5.625V11.25H1.625V13.75H11.3125V19.375H13.8125V13.75H23.5V11.25H13.8125V5.625H11.3125ZM14.4375 5.625V10.3947L22.652 5.625H14.4375ZM23.5 5.85531L15.2855 10.625H23.5V5.85531ZM14.4375 19.375H22.652L14.4375 14.6053V19.375ZM15.2855 14.375H23.5V19.1447L15.2855 14.375ZM10.6875 19.375V14.6053L2.47304 19.375H10.6875ZM1.625 19.1447V14.375H9.83946L1.625 19.1447ZM9.83946 10.625L1.625 5.85531V10.625H9.83946Z"/>
</svg>
