<svg width="25" height="25" viewBox="0 0 25 25" fill="none" xmlns="http://www.w3.org/2000/svg">
<path d="M25 10.5225V9.79004H22.998V7.44629H1.95312V9.79004H0V10.5225H1.95312V12.1338H0V12.8662H1.95312V14.4775H0V15.21H1.95312V15.6006C1.95312 16.6641 2.84277 17.5537 3.90625 17.5537H9.19058C9.92588 17.5537 10.5978 17.133 10.9266 16.4753L11.7188 14.9067V14.9037C11.8652 14.5975 12.1686 14.4059 12.5109 14.4059C12.8533 14.4059 13.1555 14.5953 13.3086 14.9014L14.0871 16.4757C14.4159 17.1334 15.0742 17.5537 15.8095 17.5537H21.0938C22.1572 17.5537 22.998 16.6641 22.998 15.6006V15.21H25V14.4775H22.998V12.8662H25V12.1338H22.998V10.5225H25ZM22.2656 15.6006C22.2656 16.2603 21.7534 16.8213 21.0938 16.8213H15.8094C15.3534 16.8213 14.9434 16.5557 14.7394 16.1478L13.9582 14.5792C13.6803 14.0233 13.1215 13.6749 12.5 13.6749C11.8785 13.6749 11.3197 14.0187 11.0418 14.5746L10.2606 16.1485C10.0566 16.5564 9.64663 16.8212 9.19058 16.8212H3.90625C3.24658 16.8212 2.68555 16.2602 2.68555 15.6005V9.74116H22.2656V15.6006ZM22.2656 9.00879H2.68555V8.17871H22.2656V9.00879Z" fill="#030F26"/>
</svg>
