<svg width="25" height="25" viewBox="0 0 25 25" fill="none" xmlns="http://www.w3.org/2000/svg">
<g clip-path="url(#clip0)">
<path d="M22.5686 3.30469H2.32963C1.3668 3.30469 0.55957 4.06641 0.55957 5.08203V19.916C0.55957 20.8828 1.31817 21.6934 2.32963 21.6934H22.5637C23.5266 21.6934 24.3338 20.8828 24.3338 19.8672V5.08203C24.3387 4.12012 23.5801 3.30469 22.5686 3.30469ZM23.3758 19.8623C23.3758 20.3213 23.0208 20.6729 22.5686 20.6729H2.32963C1.87253 20.6729 1.5224 20.3164 1.5224 19.8623V5.08203C1.5224 4.62305 1.87739 4.27148 2.32963 4.27148H22.5637C23.0208 4.27148 23.371 4.62793 23.371 5.08203V19.8623H23.3758Z" fill="#030F26"/>
<path d="M8.65755 6.55664H3.396V11.8398H8.65755V6.55664ZM7.69471 10.873H4.40746V7.57227H7.69471V10.873Z" fill="#030F26"/>
<path d="M14.371 14.3809H3.90137V15.3965H14.371V14.3809Z" fill="#030F26"/>
<path d="M14.371 17.5781H3.90137V18.5938H14.371V17.5781Z" fill="#030F26"/>
</g>
<defs>
<clipPath id="clip0">
<rect width="24.8975" height="25" fill="white"/>
</clipPath>
</defs>
</svg>
