<svg width="14" height="14" viewBox="0 0 14 14" fill="none" xmlns="http://www.w3.org/2000/svg">
<path fill-rule="evenodd" clip-rule="evenodd" d="M4.35523 0.621996C5.03948 0.590496 5.25765 0.583496 7.00065 0.583496C8.74365 0.583496 8.96182 0.591079 9.64548 0.621996C10.3292 0.652913 10.7958 0.761996 11.2042 0.920079C11.6317 1.08166 12.0197 1.33425 12.3405 1.66091C12.6672 1.98116 12.9192 2.3685 13.0802 2.79666C13.2388 3.205 13.3473 3.67166 13.3788 4.35416C13.4103 5.03958 13.4173 5.25775 13.4173 7.00016C13.4173 8.74316 13.4097 8.96133 13.3788 9.64558C13.3479 10.3281 13.2388 10.7947 13.0802 11.2031C12.9191 11.6313 12.6667 12.0193 12.3405 12.34C12.0197 12.6667 11.6317 12.9187 11.2042 13.0797C10.7958 13.2383 10.3292 13.3468 9.64665 13.3783C8.96182 13.4098 8.74365 13.4168 7.00065 13.4168C5.25765 13.4168 5.03948 13.4092 4.35523 13.3783C3.67273 13.3474 3.20607 13.2383 2.79773 13.0797C2.36952 12.9186 1.98155 12.6662 1.66082 12.34C1.33437 12.0196 1.08175 11.6318 0.920568 11.2037C0.762484 10.7953 0.653984 10.3287 0.622484 9.64616C0.590984 8.96075 0.583984 8.74258 0.583984 7.00016C0.583984 5.25716 0.591568 5.039 0.622484 4.35533C0.653401 3.67166 0.762484 3.205 0.920568 2.79666C1.08199 2.36854 1.3348 1.98076 1.6614 1.66033C1.98167 1.33396 2.36926 1.08134 2.79715 0.920079C3.20548 0.761996 3.67215 0.653496 4.35465 0.621996H4.35523ZM9.59357 1.777C8.9169 1.74608 8.7139 1.73966 7.00065 1.73966C5.2874 1.73966 5.0844 1.74608 4.40773 1.777C3.78182 1.80558 3.44232 1.91 3.21598 1.99808C2.91673 2.11475 2.70265 2.253 2.47807 2.47758C2.26518 2.68469 2.10134 2.93683 1.99857 3.2155C1.91048 3.44183 1.80607 3.78133 1.77748 4.40725C1.74657 5.08391 1.74015 5.28691 1.74015 7.00016C1.74015 8.71341 1.74657 8.91641 1.77748 9.59308C1.80607 10.219 1.91048 10.5585 1.99857 10.7848C2.10123 11.0631 2.26515 11.3157 2.47807 11.5227C2.68515 11.7357 2.93773 11.8996 3.21598 12.0022C3.44232 12.0903 3.78182 12.1947 4.40773 12.2233C5.0844 12.2542 5.28682 12.2607 7.00065 12.2607C8.71448 12.2607 8.9169 12.2542 9.59357 12.2233C10.2195 12.1947 10.559 12.0903 10.7853 12.0022C11.0846 11.8856 11.2987 11.7473 11.5232 11.5227C11.7362 11.3157 11.9001 11.0631 12.0027 10.7848C12.0908 10.5585 12.1952 10.219 12.2238 9.59308C12.2547 8.91641 12.2612 8.71341 12.2612 7.00016C12.2612 5.28691 12.2547 5.08391 12.2238 4.40725C12.1952 3.78133 12.0908 3.44183 12.0027 3.2155C11.8861 2.91625 11.7478 2.70216 11.5232 2.47758C11.3161 2.2647 11.064 2.10087 10.7853 1.99808C10.559 1.91 10.2195 1.80558 9.59357 1.777ZM6.18107 8.97825C6.63879 9.16878 7.14846 9.1945 7.62303 9.051C8.0976 8.9075 8.50763 8.6037 8.78309 8.19147C9.05855 7.77924 9.18235 7.28417 9.13334 6.79081C9.08434 6.29744 8.86557 5.8364 8.5144 5.48641C8.29054 5.26269 8.01986 5.09139 7.72185 4.98483C7.42383 4.87828 7.1059 4.83912 6.79094 4.87019C6.47598 4.90125 6.17182 5.00177 5.90037 5.16449C5.62892 5.32721 5.39692 5.5481 5.22108 5.81124C5.04524 6.07439 4.92993 6.37325 4.88345 6.68631C4.83698 6.99936 4.86049 7.31883 4.9523 7.62171C5.04411 7.92459 5.20193 8.20335 5.4144 8.43792C5.62688 8.67248 5.88872 8.85702 6.18107 8.97825ZM4.66848 4.668C4.97475 4.36173 5.33834 4.11879 5.73849 3.95304C6.13865 3.78729 6.56753 3.70198 7.00065 3.70198C7.43377 3.70198 7.86266 3.78729 8.26281 3.95304C8.66296 4.11879 9.02655 4.36173 9.33282 4.668C9.63908 4.97426 9.88202 5.33785 10.0478 5.738C10.2135 6.13816 10.2988 6.56704 10.2988 7.00016C10.2988 7.43329 10.2135 7.86217 10.0478 8.26232C9.88202 8.66248 9.63908 9.02606 9.33282 9.33233C8.71429 9.95086 7.87538 10.2983 7.00065 10.2983C6.12592 10.2983 5.28701 9.95086 4.66848 9.33233C4.04996 8.7138 3.70247 7.87489 3.70247 7.00016C3.70247 6.12543 4.04996 5.28652 4.66848 4.668ZM11.0303 4.19316C11.1062 4.12157 11.167 4.03548 11.209 3.93998C11.251 3.84449 11.2735 3.74153 11.275 3.63721C11.2765 3.53288 11.2571 3.42932 11.2178 3.33264C11.1786 3.23595 11.1204 3.14813 11.0466 3.07435C10.9729 3.00058 10.885 2.94235 10.7883 2.90313C10.6917 2.86391 10.5881 2.84448 10.4838 2.846C10.3795 2.84752 10.2765 2.86996 10.181 2.91199C10.0855 2.95401 9.99941 3.01477 9.92782 3.09066C9.78858 3.23826 9.71235 3.43432 9.71531 3.63721C9.71827 3.84009 9.80018 4.03384 9.94366 4.17732C10.0871 4.3208 10.2809 4.40271 10.4838 4.40567C10.6867 4.40863 10.8827 4.3324 11.0303 4.19316Z" fill="white"/>
</svg>
