<svg width="35" height="35" viewBox="0 0 35 35" fill="none" xmlns="http://www.w3.org/2000/svg">
<g clip-path="url(#clip0)">
<path d="M21.4571 14.2489L16.1983 19.2159L13.6745 16.6195C13.3947 16.3314 12.934 16.3249 12.6462 16.6047C12.3582 16.8847 12.3516 17.3452 12.6314 17.6332L15.6584 20.7405C15.9396 21.0235 16.394 21.0332 16.6869 20.7622L22.4711 15.3066C22.6116 15.1741 22.6936 14.9911 22.699 14.7983C22.7044 14.6054 22.6329 14.4182 22.5002 14.278C22.2187 13.9854 21.7545 13.9726 21.4571 14.2489Z" fill="#030F26"/>
<path d="M17.5557 6.60645C11.5456 6.60645 6.65869 11.4934 6.65869 17.5035C6.65869 23.5139 11.5456 28.4008 17.5557 28.4008C23.5661 28.4008 28.4531 23.5139 28.4531 17.5035C28.4531 11.4934 23.5661 6.60645 17.5557 6.60645ZM17.5557 26.942C12.348 26.942 8.11748 22.7041 8.11748 17.5035C8.11748 12.3028 12.348 8.06523 17.5557 8.06523C22.7686 8.06523 26.9943 12.2909 26.9943 17.5035C26.9943 22.7161 22.7686 26.942 17.5557 26.942Z" fill="#030F26"/>
<path d="M32.5544 13.4892L32.7951 9.16383C32.8119 8.87349 32.6541 8.60082 32.394 8.4709L28.5427 6.52347L26.5953 2.67221C26.4628 2.41436 26.1918 2.25737 25.9024 2.27105L21.5696 2.50468L17.9591 0.119331C17.7158 -0.041079 17.4004 -0.041079 17.1567 0.119331L13.5462 2.50468L9.22116 2.26392C8.93054 2.24683 8.65815 2.40467 8.52823 2.66509L6.58052 6.51635L2.72954 8.46378C2.47141 8.59598 2.3147 8.86694 2.32838 9.1567L2.56885 13.4821L0.183784 17.0926C0.0233741 17.3359 0.0233741 17.6513 0.183784 17.8949L2.56172 21.5125L2.32097 25.8379C2.30416 26.1282 2.46172 26.4009 2.72213 26.5308L6.5734 28.4783L8.52082 32.3295C8.65303 32.5877 8.92398 32.7444 9.21375 32.7307L13.5391 32.4899L17.1496 34.875C17.3915 35.0405 17.7101 35.0405 17.952 34.875L21.5625 32.4899L25.8878 32.7307C26.1782 32.7475 26.4505 32.5896 26.5808 32.3295L28.5282 28.4783L32.3794 26.5308C32.6373 26.3983 32.7943 26.1277 32.7806 25.8379L32.5399 21.5125L34.9249 17.902C35.0853 17.6587 35.0853 17.343 34.9249 17.0997L32.5544 13.4892ZM31.1976 20.9145C31.1087 21.045 31.0674 21.202 31.0811 21.3595L31.307 25.4513L27.6674 27.2893C27.5287 27.3588 27.4161 27.4716 27.3466 27.6104L25.5083 31.25L21.4166 31.024C21.2599 31.0183 21.1052 31.0588 20.9715 31.1405L17.5579 33.3946L14.1446 31.1405C14.026 31.0605 13.8864 31.0172 13.7434 31.0166H13.7069L9.61492 31.2428L7.7769 27.603C7.70738 27.4642 7.59483 27.3517 7.45579 27.2822L3.80882 25.4513L4.03505 21.3595C4.04074 21.2028 4 21.0481 3.91823 20.9145L1.66451 17.5009L3.91823 14.0872C4.00741 13.957 4.04872 13.7998 4.03505 13.6425L3.80882 9.55046L7.44867 7.71244C7.58743 7.64292 7.69997 7.53038 7.76949 7.39162L9.60751 3.75177L13.6995 3.978C13.8559 3.98341 14.0107 3.94296 14.1446 3.86118L17.5579 1.60747L20.9715 3.86118C21.102 3.95036 21.2593 3.99168 21.4166 3.978L25.5083 3.75177L27.3466 7.39162C27.4161 7.53038 27.5287 7.64292 27.6674 7.71244L31.307 9.55046L31.0811 13.6425C31.0754 13.7989 31.1161 13.9536 31.1976 14.0872L33.4516 17.5009L31.1976 20.9145Z" fill="#030F26"/>
</g>
<defs>
<clipPath id="clip0">
<rect width="35" height="35" fill="white"/>
</clipPath>
</defs>
</svg>
