<svg width="25" height="25" viewBox="0 0 25 25" fill="none" xmlns="http://www.w3.org/2000/svg">
<path d="M22.833 21.1367L23.0098 21.3135L22.833 21.4903L21.71 22.6133L21.5332 22.7901L21.3564 22.6133L15.2886 16.5455C13.9276 17.5972 12.2251 18.2188 10.376 18.2188C5.93187 18.2188 2.31347 14.6004 2.31347 10.1562C2.31347 5.71215 5.93187 2.09375 10.376 2.09375C14.8201 2.09375 18.4385 5.71215 18.4385 10.1562C18.4385 12.0054 17.817 13.7079 16.7652 15.0689L22.833 21.1367ZM10.376 4.15625C7.05335 4.15625 4.37597 6.83363 4.37597 10.1562C4.37597 13.4789 7.05335 16.1562 10.376 16.1562C13.6986 16.1562 16.376 13.4789 16.376 10.1562C16.376 6.83363 13.6986 4.15625 10.376 4.15625Z" fill="#030F26" stroke="#030F26" stroke-width="0.5"/>
</svg>
