<svg width="40" height="40" viewBox="0 0 40 40" fill="none" xmlns="http://www.w3.org/2000/svg">
<path d="M23.75 3.75C16.8604 3.75 11.25 9.36035 11.25 16.25C11.25 19.2432 12.2998 21.9873 14.0625 24.1406L4.10156 34.1016L5.89844 35.8984L15.8594 25.9375C18.0127 27.7002 20.7568 28.75 23.75 28.75C30.6397 28.75 36.25 23.1396 36.25 16.25C36.25 9.36035 30.6397 3.75 23.75 3.75ZM23.75 6.25C29.2871 6.25 33.75 10.7129 33.75 16.25C33.75 21.7871 29.2871 26.25 23.75 26.25C18.2129 26.25 13.75 21.7871 13.75 16.25C13.75 10.7129 18.2129 6.25 23.75 6.25Z" fill="#030F26"/>
</svg>
