<svg width="18" height="18" viewBox="0 0 18 18" fill="none" xmlns="http://www.w3.org/2000/svg">
<g opacity="0.5">
<path fill-rule="evenodd" clip-rule="evenodd" d="M6.61531 2.7022C5.73666 1.82355 4.31229 1.82355 3.43365 2.7022L2.94465 3.1912C2.20313 3.93271 1.9074 4.98974 2.10053 6.01335C2.50282 8.14125 3.72491 10.4186 5.6529 12.3466C7.58088 14.2746 9.85852 15.4967 11.9864 15.899C13.01 16.0922 14.0668 15.7964 14.8083 15.0549L15.2966 14.5666C16.1752 13.688 16.1752 12.2636 15.2966 11.3849L14.4168 10.5052C13.6847 9.77305 12.4969 9.7724 11.7649 10.5056L11.1759 11.0953C10.3082 10.6937 9.44799 10.1039 8.67181 9.3277C7.89569 8.55158 7.30656 7.69138 6.90564 6.82363L7.43206 6.29786C8.20091 5.52901 8.25477 4.34166 7.49581 3.5827L6.61531 2.7022ZM4.49431 3.76286C4.78716 3.47 5.26179 3.47 5.55465 3.76286L6.43515 4.64336C6.50727 4.71548 6.53991 4.80337 6.53741 4.89617C6.53491 4.98889 6.49546 5.11314 6.3714 5.2372C6.3714 5.2372 6.12262 5.48522 5.75747 5.85037C5.39232 6.21552 5.24971 6.78918 5.47673 7.30387C5.95449 8.38734 6.66956 9.44677 7.61115 10.3884C8.55262 11.3298 9.61176 12.0455 10.6952 12.5241C11.2099 12.7512 11.7839 12.6088 12.1491 12.2436L12.8265 11.5654C12.972 11.4197 13.2093 11.419 13.3561 11.5659L14.2359 12.4456C14.5288 12.7385 14.5288 13.2131 14.2359 13.5059L13.7476 13.9942C13.3777 14.3641 12.8308 14.5318 12.2645 14.425C10.473 14.0863 8.45898 13.0314 6.71356 11.2859C4.96813 9.54052 3.91319 7.52624 3.57442 5.7347C3.46766 5.16841 3.63538 4.62178 4.00531 4.25186L4.49431 3.76286Z" fill="#C4C4C4"/>
</g>
</svg>
