<svg width="15" height="14" viewBox="0 0 15 14" fill="none" xmlns="http://www.w3.org/2000/svg">
<path d="M14.7772 2.88049C14.2553 3.09632 13.6947 3.24216 13.1053 3.30807C13.7134 2.96845 14.1684 2.43393 14.3853 1.80424C13.814 2.12098 13.1887 2.34394 12.5366 2.46341C12.098 2.02641 11.5172 1.73676 10.8843 1.63943C10.2513 1.5421 9.60162 1.64254 9.03609 1.92514C8.47055 2.20774 8.0208 2.6567 7.75666 3.20232C7.49252 3.74793 7.42877 4.35968 7.57531 4.94257C6.41762 4.88832 5.28508 4.60748 4.2512 4.11827C3.21733 3.62906 2.30521 2.94242 1.57406 2.10291C1.32406 2.50541 1.18031 2.97207 1.18031 3.46907C1.18003 3.91649 1.29808 4.35705 1.52399 4.75167C1.74989 5.14629 2.07666 5.48276 2.47531 5.73124C2.01299 5.71751 1.56086 5.60091 1.15656 5.39116V5.42616C1.15652 6.05367 1.38908 6.66188 1.8148 7.14757C2.24052 7.63327 2.83317 7.96653 3.49219 8.09082C3.0633 8.19916 2.61365 8.21512 2.17719 8.13749C2.36312 8.67743 2.72531 9.14959 3.21304 9.48786C3.70077 9.82614 4.28964 10.0136 4.89719 10.024C3.86583 10.7796 2.59212 11.1895 1.28094 11.1877C1.04868 11.1878 0.81661 11.1751 0.585938 11.1498C1.91686 11.9485 3.46615 12.3724 5.04844 12.3707C10.4047 12.3707 13.3328 8.23024 13.3328 4.63924C13.3328 4.52257 13.3297 4.40474 13.3241 4.28807C13.8936 3.90364 14.3853 3.4276 14.7759 2.88224L14.7772 2.88049Z" fill="white"/>
</svg>
