<svg width="40" height="40" viewBox="0 0 40 40" fill="none" xmlns="http://www.w3.org/2000/svg">
<circle cx="20" cy="20" r="20" fill="#030F26"/>
<g clip-path="url(#clip0_2534_33698)">
<path d="M32.9094 25.9943V21.6155L26.4717 15.2012L19.9625 21.4929L13.5496 15.2012L7.10547 21.4929V25.9771L13.5496 19.5814L19.9625 25.9943L26.4717 19.5814L32.9094 25.9943Z" fill="white"/>
<path d="M32.908 25.9954H29.4607L26.4564 22.9912L23.4522 25.9954L16.5441 25.9955L13.5532 22.9913L10.6188 25.9955L7.10156 25.9954V26.7515H32.908V25.9954ZM11.6181 25.9954L13.5532 24.0604L15.4882 25.9955L11.6181 25.9954ZM26.4564 24.0604L28.3914 25.9955H24.5214L26.4564 24.0604Z" fill="white"/>
<path d="M13.5532 11.7372L20.0048 18.1888L23.761 14.435L23.2264 13.9004L20.0048 17.1196L13.5532 10.668L7.10156 17.1195V18.1888L13.5532 11.7372Z" fill="white"/>
<path d="M26.4561 11.7372L32.9077 18.1888V17.1195L26.4561 10.668L23.1826 13.9414L23.7172 14.476L26.4561 11.7372Z" fill="white"/>
</g>
<defs>
<clipPath id="clip0_2534_33698">
<rect width="25.8065" height="25.8065" fill="white" transform="translate(7.10156 5.80664)"/>
</clipPath>
</defs>
</svg>
