<svg width="28" height="28" viewBox="0 0 28 28" fill="none" xmlns="http://www.w3.org/2000/svg">
<path d="M19.7333 15.3307C20.7333 15.3307 21.6132 14.7841 22.0666 13.9574L26.8399 5.30406C27.3333 4.42406 26.6933 3.33073 25.6799 3.33073H5.94659L4.69325 0.664062H0.333252V3.33073H2.99992L7.79992 13.4507L5.99992 16.7041C5.02659 18.4907 6.30658 20.6641 8.33325 20.6641H24.3333V17.9974H8.33325L9.79992 15.3307H19.7333ZM7.21325 5.9974H23.4132L19.7333 12.6641H10.3733L7.21325 5.9974ZM8.33325 21.9974C6.86658 21.9974 5.67992 23.1974 5.67992 24.6641C5.67992 26.1307 6.86658 27.3307 8.33325 27.3307C9.79992 27.3307 10.9999 26.1307 10.9999 24.6641C10.9999 23.1974 9.79992 21.9974 8.33325 21.9974ZM21.6666 21.9974C20.1999 21.9974 19.0133 23.1974 19.0133 24.6641C19.0133 26.1307 20.1999 27.3307 21.6666 27.3307C23.1333 27.3307 24.3333 26.1307 24.3333 24.6641C24.3333 23.1974 23.1333 21.9974 21.6666 21.9974Z" fill="#373E4A"/>
</svg>
