<svg width="12" height="16" viewBox="0 0 12 16" fill="none" xmlns="http://www.w3.org/2000/svg">
<path d="M11.61 8.26554C10.4325 5.20553 6.24 5.04053 7.2525 0.593035C7.3275 0.263035 6.975 0.00803501 6.69 0.180535C3.9675 1.78554 2.01 5.00303 3.6525 9.21803C3.7875 9.56304 3.3825 9.88554 3.09 9.66053C1.7325 8.63303 1.59 7.15553 1.71 6.09803C1.755 5.70803 1.245 5.52053 1.0275 5.84303C0.5175 6.62303 0 7.88303 0 9.78053C0.285 13.9805 3.8325 15.2705 5.1075 15.4355C6.93 15.668 8.9025 15.3305 10.32 14.033C11.88 12.5855 12.45 10.2755 11.61 8.26554ZM4.65 12.038C5.73 11.7755 6.285 10.9955 6.435 10.3055C6.6825 9.23304 5.715 8.18303 6.3675 6.48803C6.615 7.89053 8.82 8.76803 8.82 10.298C8.88 12.1955 6.825 13.823 4.65 12.038Z" fill="url(#paint0_linear_1045_23076)"/>
<defs>
<linearGradient id="paint0_linear_1045_23076" x1="1.18551e-07" y1="6.9882" x2="11.9972" y2="6.9882" gradientUnits="userSpaceOnUse">
<stop stop-color="#DE525C"/>
<stop offset="1" stop-color="#E97251"/>
</linearGradient>
</defs>
</svg>
