<svg width="28" height="25" viewBox="0 0 28 25" fill="none" xmlns="http://www.w3.org/2000/svg">
<path d="M20.0011 0C17.6811 0 15.4544 1.08 14.0011 2.78667C12.5477 1.08 10.3211 0 8.00106 0C3.89439 0 0.667725 3.22667 0.667725 7.33333C0.667725 12.3733 5.20106 16.48 12.0677 22.72L14.0011 24.4667L15.9344 22.7067C22.8011 16.48 27.3344 12.3733 27.3344 7.33333C27.3344 3.22667 24.1077 0 20.0011 0ZM14.1344 20.7333L14.0011 20.8667L13.8677 20.7333C7.52106 14.9867 3.33439 11.1867 3.33439 7.33333C3.33439 4.66667 5.33439 2.66667 8.00106 2.66667C10.0544 2.66667 12.0544 3.98667 12.7611 5.81333H15.2544C15.9477 3.98667 17.9477 2.66667 20.0011 2.66667C22.6677 2.66667 24.6677 4.66667 24.6677 7.33333C24.6677 11.1867 20.4811 14.9867 14.1344 20.7333Z" fill="#373E4A"/>
</svg>
