<svg width="179" height="235" viewBox="0 0 179 235" fill="none" xmlns="http://www.w3.org/2000/svg">
<mask id="mask0_3154_24355" style="mask-type:alpha" maskUnits="userSpaceOnUse" x="0" y="0" width="179" height="235">
<rect width="179" height="235" fill="#C4C4C4"/>
</mask>
<g mask="url(#mask0_3154_24355)">
<g opacity="0.1">
<path d="M134.142 312.95C132.955 313.838 132.065 315.022 131.471 316.502C130.877 319.166 131.768 321.83 133.845 323.014L168.569 347.582C171.537 349.654 175.396 348.766 177.176 346.102C178.067 344.918 178.66 343.734 178.66 342.55C178.66 340.478 177.473 338.702 175.989 337.518L159.963 326.27C154.62 322.422 154.62 314.43 159.963 310.582L175.989 299.038C178.957 296.966 179.551 293.119 177.473 290.455C175.396 287.495 171.537 286.903 168.866 288.975L134.142 312.95Z" fill="white"/>
<path d="M134.142 143.345C132.955 144.233 132.065 145.417 131.471 146.897C130.878 149.561 131.768 152.225 133.845 153.409L168.57 177.976C171.538 180.048 175.396 179.16 177.176 176.496C178.067 175.312 178.66 174.128 178.66 172.648C178.66 170.576 177.77 168.8 175.989 167.616L159.963 156.369C154.621 152.521 154.621 144.529 159.963 140.681L176.286 129.433C179.254 127.361 179.848 123.513 177.77 120.849C175.693 117.889 171.834 117.297 169.163 119.369L134.142 143.345Z" fill="white"/>
<path d="M133.252 6.29858C132.362 7.48257 132.065 8.66656 132.065 9.85056C132.065 11.9225 132.956 13.6985 134.736 14.8825L165.602 36.4902C165.899 36.4902 165.899 36.7862 166.196 36.7862L168.867 38.5621C171.835 40.6341 175.693 39.7461 177.474 37.0822C178.364 35.8982 178.661 34.7142 178.661 33.5302C178.661 31.4583 177.771 29.6823 175.99 28.4983L145.124 6.89059C144.827 6.89059 144.827 6.59457 144.53 6.59457L142.156 4.8186C139.188 2.74664 135.33 3.33862 133.252 6.29858Z" fill="white"/>
<path d="M89.0305 238.655C90.2177 237.767 91.108 236.583 91.7016 235.103C92.2952 232.439 91.4048 229.775 89.3273 228.591L11.272 174.128C8.30413 172.056 4.4459 172.944 2.66517 175.608C1.7748 176.792 1.47801 177.976 1.47801 179.16C1.47801 181.232 2.36838 183.008 4.14911 184.192L63.8035 225.631C69.1457 229.479 69.1457 237.471 63.8035 241.319L4.14911 282.759C1.18123 284.831 0.58765 288.679 2.66517 291.343C4.74268 294.302 8.60092 294.894 11.272 292.823L89.0305 238.655Z" fill="white"/>
<path d="M45.6992 238.655C46.8863 237.767 47.7767 236.583 48.3702 235.103C48.9638 232.439 48.0735 229.775 45.9959 228.591L11.2717 204.32C8.30386 202.248 4.44562 203.136 2.66489 205.8C1.77453 206.984 1.47774 208.168 1.47774 209.352C1.47774 211.424 2.3681 213.2 4.14883 214.384L20.1754 225.631C25.5176 229.479 25.5176 237.471 20.1754 241.319L3.85204 252.567C0.884157 254.639 0.290581 258.487 2.3681 261.151C4.44561 264.111 8.30386 264.703 10.975 262.631L45.6992 238.655Z" fill="white"/>
<path d="M45.6987 5.70663C44.8084 6.89062 44.5116 8.07458 44.5116 9.25858C44.5116 11.3305 45.4019 13.1065 47.1827 14.2905L106.837 55.7299C112.179 59.5779 112.179 67.5698 106.837 71.4177L47.1827 112.857L3.85161 143.049C2.66446 143.937 1.7741 145.121 1.18052 146.601C0.586945 149.265 1.47731 151.929 3.55482 153.113L81.9069 208.168L106.837 225.632C112.179 229.48 112.179 237.471 106.837 241.319L47.1827 282.759L3.85161 312.95C2.66446 313.838 1.7741 315.022 1.18052 316.502C0.586945 319.166 1.47731 321.83 3.55482 323.014L81.9069 377.773C84.8748 379.845 88.733 378.957 90.5137 376.293C91.4041 375.109 91.7009 373.925 91.7009 372.741C91.7009 370.67 90.8105 368.894 89.0298 367.71L29.3754 326.27C24.0332 322.422 24.0332 314.43 29.3754 310.582L89.0298 269.143L132.361 238.655C133.548 237.767 134.438 236.583 135.032 235.103C135.626 232.439 134.735 229.775 132.658 228.592L54.6024 174.128L29.6722 156.665C24.33 152.817 24.33 144.825 29.6722 140.977L89.3266 99.5373L132.658 69.3457C133.845 68.4578 134.735 67.2737 135.329 65.7938C135.922 63.1298 135.032 60.4659 132.954 59.2819L54.8992 4.81863C51.6345 2.15469 47.7762 2.74667 45.6987 5.70663Z" fill="white"/>
<path d="M89.0301 5.7066C88.1397 6.89059 87.8429 8.07455 87.8429 9.25854C87.8429 11.3305 88.7333 13.1065 90.514 14.2905L150.168 55.7299C155.511 59.5779 155.511 67.5697 150.168 71.4177L90.514 112.857L47.183 143.049C45.9958 143.937 45.1054 145.121 44.5119 146.601C43.9183 149.265 44.8086 151.929 46.8862 153.113L125.238 208.168L150.168 225.632C155.511 229.479 155.511 237.471 150.168 241.319L90.514 282.759L47.183 312.95C45.9958 313.838 45.1054 315.022 44.5119 316.502C43.9183 319.166 44.8086 321.83 46.8862 323.014L125.238 377.773C128.206 379.845 132.064 378.957 133.845 376.293C134.735 375.109 135.032 373.925 135.032 372.741C135.032 370.67 134.142 368.894 132.361 367.71L72.7067 326.27C67.3645 322.422 67.3645 314.43 72.7067 310.582L132.361 269.143L175.989 238.655C177.176 237.767 178.066 236.583 178.66 235.103C179.254 232.439 178.363 229.775 176.286 228.592L98.2305 174.128L73.3003 156.664C67.9581 152.817 67.9581 144.825 73.3003 140.977L132.955 99.5373L175.989 68.7537C177.176 67.8657 178.066 66.6817 178.66 65.2018C179.254 62.5378 178.363 59.8739 176.286 58.6899L98.2305 4.22662C94.9658 2.15466 91.1076 2.74664 89.0301 5.7066Z" fill="white"/>
<path d="M90.5142 312.95C89.3271 313.838 88.4367 315.022 87.8431 316.502C87.2495 319.166 88.1399 321.83 90.2174 323.014L168.569 377.773C171.537 379.845 175.396 378.957 177.176 376.293C178.067 375.109 178.66 373.925 178.66 372.741C178.66 370.67 177.77 368.894 175.989 367.71L116.335 326.27C110.993 322.422 110.993 314.43 116.335 310.582L175.989 269.143C178.957 267.071 179.551 263.223 177.473 260.559C175.396 257.599 171.537 257.007 168.866 259.079L90.5142 312.95Z" fill="white"/>
<path d="M89.0305 68.7537C90.2177 67.8657 91.108 66.6818 91.7016 65.2018C92.2952 62.5378 91.4048 59.8739 89.3273 58.6899L11.272 4.22662C8.30413 2.15466 4.4459 3.04266 2.66517 5.70663C1.7748 6.89062 1.47801 8.07458 1.47801 9.25858C1.47801 11.3305 2.36838 13.1065 4.14911 14.2905L63.8035 55.7299C69.1457 59.5779 69.1457 67.5698 63.8035 71.4177L4.14911 112.857C1.18123 114.929 0.58765 118.777 2.66517 121.441C4.74268 124.401 8.60092 124.993 11.272 122.921L89.0305 68.7537Z" fill="white"/>
<path d="M45.6992 68.7537C46.8863 67.8658 47.7767 66.6818 48.3702 65.2018C48.9638 62.5378 48.0735 59.8739 45.9959 58.6899L11.2717 34.4182C8.30386 32.3463 4.44562 33.2342 2.66489 35.8982C1.77453 37.0822 1.47774 38.2662 1.47774 39.4502C1.47774 41.5221 2.3681 43.2981 4.14883 44.4821L20.1754 55.7299C25.5176 59.5779 25.5176 67.5698 20.1754 71.4177L3.85204 82.6656C0.884157 84.7375 0.290581 88.5854 2.3681 91.2494C4.44561 94.2094 8.30386 94.8014 10.975 92.7294L45.6992 68.7537Z" fill="white"/>
<path d="M90.5142 143.345C89.3271 144.233 88.4367 145.417 87.8431 146.897C87.2495 149.561 88.1399 152.225 90.2174 153.409L168.569 208.168C171.537 210.24 175.396 209.352 177.176 206.688C178.067 205.504 178.66 204.32 178.66 203.136C178.66 201.064 177.77 199.288 175.989 198.104L116.335 156.665C110.993 152.817 110.993 144.825 116.335 140.977L175.989 99.5373C178.957 97.4653 179.551 93.6174 177.473 90.9534C175.396 87.9934 171.537 87.4015 168.866 89.4734L90.5142 143.345Z" fill="white"/>
<path d="M46.2929 376.293C47.1833 375.109 47.4801 373.925 47.4801 372.741C47.4801 370.669 46.5897 368.893 44.809 367.709L13.943 346.102C13.6462 346.102 13.6462 345.806 13.3494 345.806L10.9751 344.03C8.00724 341.958 4.14899 342.846 2.36826 345.51C1.4779 346.694 1.18112 347.878 1.18112 349.062C1.18112 351.134 2.07148 352.91 3.8522 354.094L34.7182 375.701C34.7182 375.997 35.0149 375.997 35.0149 375.997L37.3893 377.773C40.3571 379.845 44.2154 379.253 46.2929 376.293Z" fill="white"/>
</g>
</g>
</svg>
