<svg width="120" height="20" viewBox="0 0 120 20" fill="none" xmlns="http://www.w3.org/2000/svg">
<g opacity="0.5">
<path d="M108.8 4.26716C108.256 4.40028 108.051 5.00028 108.46 5.40028L114.383 11.2003C114.792 11.6003 115.405 11.4003 115.54 10.8672L115.676 10.334L109.413 4.13403L108.8 4.26716Z" fill="#ED4A4A"/>
<path d="M0.75 19.0671L4.29064 10.9339H6.46915L9.94149 19.0671H7.49043L6.87766 17.6002H3.74553L3.13277 19.0671H0.75ZM4.4266 15.8671H6.26489L5.31191 13.5339L4.4266 15.8671ZM13.1419 19.0671V11.0002H17.0228C18.2483 11.0002 19.1336 11.2671 19.6781 11.8671C20.1549 12.3339 20.4268 13.0002 20.4268 13.8002C20.4268 14.4002 20.2908 14.8671 19.95 15.3333C19.6774 15.7333 19.2689 16.0664 18.7245 16.2664L20.6987 19.0664H18.0434L16.4094 16.5996H15.3881V19.0664H13.1413L13.1419 19.0671ZM15.3887 14.8671H16.8868C17.2953 14.8671 17.5679 14.8002 17.7721 14.6002C17.9764 14.4002 18.1123 14.2002 18.1123 13.8671C18.1123 13.5339 17.9764 13.3339 17.7721 13.1339C17.5679 13.0008 17.2277 12.8671 16.8868 12.8671H15.3887V14.8671ZM23.4906 12.9333V10.9333H30.7079V12.9333H28.2568V19.0664H25.9417V12.9333H23.4906ZM34.0436 19.0671V11.0002H37.9245C39.15 11.0002 40.0353 11.2671 40.5798 11.8671C41.0566 12.3339 41.3285 13.0002 41.3285 13.8002C41.3285 14.4002 41.1926 14.8671 40.8517 15.3333C40.5791 15.7333 40.1706 16.0664 39.6262 16.2664L41.6004 19.0664H38.9451L37.3111 16.5996H36.2898V19.0664H34.043L34.0436 19.0671ZM36.3587 14.8671H37.8568C38.2653 14.8671 38.5379 14.8002 38.7421 14.6002C38.9464 14.4002 39.0823 14.2002 39.0823 13.8671C39.0823 13.5339 38.9464 13.3339 38.7421 13.1339C38.5379 13.0008 38.1977 12.8671 37.8568 12.8671H36.3587V14.8671ZM44.5972 15.0671C44.5972 14.4671 44.7332 13.9339 44.9375 13.4002C45.1417 12.8664 45.4819 12.4671 45.8904 12.0671C46.2989 11.6671 46.7757 11.4002 47.3202 11.2002C47.8647 11.0002 48.4774 10.8671 49.0902 10.8671C49.703 10.8671 50.3157 11.0002 50.8602 11.2002C51.4047 11.4002 51.8815 11.7333 52.29 12.0671C52.6985 12.4671 52.9711 12.8671 53.1753 13.4002C53.3796 13.9333 53.5155 14.4671 53.5155 15.0671C53.5155 15.6671 53.3796 16.2002 53.1753 16.7339C52.9711 17.2677 52.6309 17.6671 52.2223 18.0671C51.8138 18.4671 51.337 18.7339 50.7926 18.9339C50.2481 19.1339 49.6353 19.2671 49.0226 19.2671C48.2055 19.2671 47.4568 19.0671 46.7757 18.7339C46.0947 18.3339 45.5502 17.8671 45.21 17.2008C44.8015 16.5339 44.5972 15.8008 44.5972 15.0677V15.0671ZM46.9117 15.0671C46.9117 15.6671 47.116 16.2002 47.5245 16.6002C47.933 17.0002 48.4098 17.2671 49.0226 17.2671C49.6353 17.2671 50.1121 17.0671 50.5206 16.6002C50.9292 16.2002 51.1334 15.6671 51.1334 15.0671C51.1334 14.4671 50.9292 13.9339 50.5206 13.5339C50.1121 13.1339 49.6353 12.8671 49.0226 12.8671C48.4098 12.8671 47.933 13.0671 47.5245 13.5339C47.116 13.9339 46.9117 14.4008 46.9117 15.0671ZM56.716 15.0671C56.716 14.4671 56.8519 13.9339 57.0562 13.4002C57.2604 12.8664 57.6006 12.4671 57.9415 12.0671C58.35 11.6671 58.7585 11.4002 59.303 11.2002C59.8474 11.0002 60.3926 10.8671 61.0053 10.8671C62.5034 10.8671 63.5923 11.4002 64.4777 12.5339L62.7753 13.8008C62.2985 13.2008 61.6857 12.8677 60.937 12.8677C60.3926 12.8677 59.9157 13.0677 59.5072 13.4677C59.167 13.8677 58.9628 14.4008 58.9628 15.0008C58.9628 15.6008 59.167 16.1339 59.5072 16.5339C59.8474 16.9339 60.3243 17.1339 60.937 17.1339C61.3455 17.1339 61.6857 17.0671 61.9583 16.8671C62.2309 16.7339 62.5028 16.4671 62.7753 16.1339L64.4777 17.3339C64.2051 17.7339 63.9332 18.0008 63.5923 18.2671C63.2515 18.5333 62.9113 18.7339 62.4351 18.8671C61.9583 19.0002 61.4138 19.1339 60.8694 19.1339C60.1206 19.1339 59.3713 18.9339 58.7585 18.6008C58.1457 18.2677 57.6013 17.7339 57.1928 17.0677C56.9202 16.5346 56.716 15.8008 56.716 15.0677V15.0671ZM67.95 19.0671V11.0002H70.2651V14.2671L73.1247 11.0002H75.8483L72.7162 14.4671L75.916 19.0671H73.1923L71.1498 16.0671L70.3328 17.0002V19.0671H67.95ZM78.9121 19.0671V11.0002H85.5166V12.9333H81.1589V14.1333H85.1081V15.9333H81.1589V17.2002H85.5843V19.1333H78.9121V19.0664V19.0671ZM88.6481 12.9333V10.9333H95.8653V12.9333H93.4143V19.0664H91.1674V12.9333H88.6481ZM98.5883 17.8671L99.8821 16.4002C100.699 17.0671 101.584 17.4002 102.537 17.4002C102.81 17.4002 103.082 17.3333 103.219 17.2671C103.355 17.2008 103.491 17.0002 103.491 16.8671C103.491 16.6671 103.423 16.5339 103.219 16.4671C103.014 16.3339 102.674 16.2671 102.129 16.1339C101.856 16.0671 101.584 16.0008 101.38 15.9339C101.176 15.8671 100.972 15.8008 100.699 15.7339C100.495 15.6671 100.291 15.5339 100.086 15.4671C99.9504 15.4002 99.7462 15.2671 99.6096 15.1339C99.473 15.0008 99.337 14.8671 99.2694 14.7339C99.2011 14.6008 99.1334 14.4008 99.0651 14.2008C98.9968 14.0008 98.9968 13.8008 98.9968 13.5339C98.9968 12.8008 99.2694 12.1339 99.8821 11.6671C100.427 11.2002 101.244 10.9339 102.197 10.9339C103.559 10.9339 104.648 11.2671 105.601 12.0008L104.444 13.6008C103.695 13.0677 102.878 12.8008 102.129 12.8008C101.856 12.8008 101.652 12.8677 101.516 12.9339C101.38 13.0002 101.312 13.1339 101.312 13.3339C101.312 13.5339 101.38 13.6671 101.584 13.8008C101.789 13.9346 102.129 14.0008 102.742 14.1339C103.219 14.2671 103.695 14.3339 104.036 14.4671C104.376 14.6002 104.717 14.7339 104.989 14.9339C105.261 15.1339 105.465 15.4008 105.601 15.6671C105.737 15.9333 105.806 16.2671 105.806 16.6671C105.806 17.4671 105.533 18.1339 104.92 18.6002C104.307 19.0664 103.49 19.3333 102.469 19.3333C101.72 19.3333 101.039 19.2002 100.358 19.0002C99.6772 18.6671 99.0645 18.3333 98.5883 17.8671ZM118.265 0.800185L109.346 2.66706C108.802 2.80018 108.597 3.40018 109.006 3.80018L109.346 4.13331L115.951 10.6664C116.359 11.0664 116.972 10.8664 117.108 10.3333L119.082 1.60018C119.15 1.06706 118.742 0.66706 118.265 0.800185Z" fill="white"/>
</g>
</svg>
