<svg width="493" height="742" viewBox="0 0 493 742" fill="none" xmlns="http://www.w3.org/2000/svg">
<g clip-path="url(#clip0_2534_40248)">
<g opacity="0.5">
<path d="M324.729 519.732C320.514 522.908 317.353 527.143 315.245 532.437C313.138 541.967 316.299 551.496 323.675 555.731L446.966 643.613C457.503 651.025 471.202 647.848 477.525 638.319C480.686 634.084 482.794 629.848 482.794 625.613C482.794 618.201 478.579 611.848 473.31 607.613L416.407 567.378C397.439 553.614 397.439 525.026 416.407 511.261L473.31 469.967C483.848 462.556 485.955 448.791 478.579 439.262C471.202 428.673 457.503 426.556 448.02 433.968L324.729 519.732Z" fill="white"/>
<path d="M324.73 -86.9689C320.515 -83.7925 317.353 -79.5573 315.246 -74.2632C313.138 -64.7339 316.3 -55.2045 323.676 -50.9692L446.966 36.9124C457.504 44.3241 471.203 41.1476 477.526 31.6183C480.687 27.383 482.794 23.1478 482.794 17.8537C482.794 10.442 479.633 4.08911 473.31 -0.146179L416.407 -40.381C397.439 -54.1456 397.439 -82.7336 416.407 -96.4982L474.364 -136.733C484.902 -144.145 487.009 -157.909 479.633 -167.439C472.257 -178.027 458.558 -180.145 449.074 -172.733L324.73 -86.9689Z" fill="white"/>
<path d="M321.57 -577.2C318.409 -572.965 317.355 -568.73 317.355 -564.495C317.355 -557.083 320.516 -550.73 326.839 -546.495L436.43 -469.201C437.484 -469.201 437.484 -468.142 438.538 -468.142L448.022 -461.789C458.56 -454.378 472.258 -457.554 478.581 -467.084C481.742 -471.319 482.796 -475.554 482.796 -479.789C482.796 -487.201 479.635 -493.554 473.312 -497.789L363.721 -575.083C362.667 -575.083 362.667 -576.141 361.613 -576.141L353.183 -582.494C342.646 -589.906 328.947 -587.789 321.57 -577.2Z" fill="white"/>
<path d="M164.558 253.969C168.773 250.793 171.934 246.557 174.042 241.263C176.149 231.734 172.988 222.205 165.612 217.969L-111.529 23.1475C-122.066 15.7358 -135.765 18.9123 -142.088 28.4416C-145.249 32.6769 -146.303 36.912 -146.303 41.1473C-146.303 48.559 -143.141 54.9119 -136.819 59.1471L74.9877 207.381C93.9555 221.146 93.9555 249.734 74.9877 263.498L-136.819 411.732C-147.357 419.144 -149.464 432.909 -142.088 442.438C-134.711 453.026 -121.012 455.144 -111.529 447.732L164.558 253.969Z" fill="white"/>
<path d="M10.7071 253.969C14.9222 250.793 18.0835 246.557 20.191 241.263C22.2985 231.734 19.1372 222.205 11.7609 217.969L-111.53 131.147C-122.067 123.735 -135.766 126.911 -142.089 136.441C-145.25 140.676 -146.304 144.911 -146.304 149.146C-146.304 156.558 -143.142 162.911 -136.82 167.146L-79.9166 207.381C-60.9489 221.146 -60.9489 249.734 -79.9166 263.498L-137.874 303.733C-148.411 311.145 -150.519 324.91 -143.142 334.439C-135.766 345.027 -122.067 347.145 -112.583 339.733L10.7071 253.969Z" fill="white"/>
<path d="M10.7056 -579.318C7.54431 -575.083 6.49052 -570.847 6.49052 -566.612C6.49052 -559.2 9.65182 -552.847 15.9744 -548.612L227.781 -400.378C246.749 -386.614 246.749 -358.026 227.781 -344.261L15.9744 -196.027L-137.875 -88.0278C-142.09 -84.8514 -145.252 -80.6161 -147.359 -75.322C-149.467 -65.7927 -146.305 -56.2634 -138.929 -52.0281L139.265 144.911L227.781 207.382C246.749 221.146 246.749 249.734 227.781 263.499L15.9744 411.733L-137.875 519.732C-142.09 522.908 -145.252 527.144 -147.359 532.438C-149.467 541.967 -146.305 551.496 -138.929 555.732L139.265 751.612C149.803 759.024 163.501 755.848 169.824 746.318C172.985 742.083 174.039 737.848 174.039 733.612C174.039 726.201 170.878 719.848 164.555 715.613L-47.2514 567.379C-66.2192 553.614 -66.2192 525.026 -47.2514 511.261L164.555 363.027L318.405 253.969C322.62 250.793 325.781 246.558 327.889 241.264C329.996 231.734 326.835 222.205 319.459 217.97L42.3185 23.1478L-46.1977 -39.3223C-65.1654 -53.0869 -65.1654 -81.6749 -46.1977 -95.4395L165.609 -243.674L319.459 -351.673C323.674 -354.849 326.835 -359.084 328.942 -364.379C331.05 -373.908 327.889 -383.437 320.512 -387.672L43.3723 -582.494C31.7809 -592.024 18.082 -589.906 10.7056 -579.318Z" fill="white"/>
<path d="M164.556 -579.318C161.395 -575.083 160.341 -570.847 160.341 -566.612C160.341 -559.2 163.502 -552.848 169.825 -548.612L381.632 -400.378C400.599 -386.614 400.599 -358.026 381.632 -344.261L169.825 -196.027L15.9754 -88.0278C11.7604 -84.8514 8.59908 -80.6162 6.49155 -75.3221C4.38402 -65.7928 7.5453 -56.2635 14.9217 -52.0283L293.115 144.911L381.632 207.382C400.599 221.146 400.599 249.734 381.632 263.499L169.825 411.733L15.9754 519.732C11.7604 522.908 8.59908 527.144 6.49155 532.438C4.38402 541.967 7.5453 551.496 14.9217 555.732L293.115 751.612C303.653 759.024 317.352 755.848 323.675 746.318C326.836 742.083 327.89 737.848 327.89 733.612C327.89 726.201 324.728 719.848 318.406 715.613L106.599 567.379C87.6314 553.614 87.6314 525.026 106.599 511.261L318.406 363.027L473.309 253.969C477.524 250.793 480.685 246.558 482.793 241.264C484.901 231.734 481.739 222.205 474.363 217.97L197.223 23.1477L108.707 -39.3224C89.739 -53.087 89.739 -81.675 108.707 -95.4396L320.513 -243.674L473.309 -353.791C477.524 -356.967 480.685 -361.202 482.793 -366.496C484.901 -376.026 481.739 -385.555 474.363 -389.79L197.223 -584.612C185.632 -592.024 171.933 -589.906 164.556 -579.318Z" fill="white"/>
<path d="M169.826 519.732C165.611 522.908 162.449 527.144 160.342 532.438C158.234 541.967 161.396 551.496 168.772 555.732L446.966 751.612C457.503 759.024 471.202 755.848 477.525 746.318C480.686 742.083 482.794 737.848 482.794 733.612C482.794 726.201 479.633 719.848 473.31 715.613L261.503 567.379C242.536 553.614 242.536 525.026 261.503 511.261L473.31 363.027C483.848 355.616 485.955 341.851 478.579 332.322C471.202 321.734 457.503 319.616 448.02 327.028L169.826 519.732Z" fill="white"/>
<path d="M164.558 -353.791C168.773 -356.967 171.934 -361.202 174.042 -366.496C176.149 -376.026 172.988 -385.555 165.612 -389.79L-111.529 -584.612C-122.066 -592.024 -135.765 -588.847 -142.088 -579.318C-145.249 -575.083 -146.303 -570.847 -146.303 -566.612C-146.303 -559.2 -143.141 -552.848 -136.819 -548.612L74.9877 -400.378C93.9555 -386.614 93.9555 -358.026 74.9877 -344.261L-136.819 -196.027C-147.357 -188.615 -149.464 -174.851 -142.088 -165.321C-134.711 -154.733 -121.012 -152.616 -111.529 -160.027L164.558 -353.791Z" fill="white"/>
<path d="M10.7071 -353.79C14.9222 -356.967 18.0835 -361.202 20.191 -366.496C22.2985 -376.026 19.1372 -385.555 11.7609 -389.79L-111.53 -476.613C-122.067 -484.025 -135.766 -480.848 -142.089 -471.319C-145.25 -467.084 -146.304 -462.848 -146.304 -458.613C-146.304 -451.201 -143.142 -444.849 -136.82 -440.613L-79.9166 -400.378C-60.9489 -386.614 -60.9489 -358.026 -79.9166 -344.261L-137.874 -304.026C-148.411 -296.614 -150.519 -282.85 -143.142 -273.32C-135.766 -262.732 -122.067 -260.615 -112.583 -268.026L10.7071 -353.79Z" fill="white"/>
<path d="M169.826 -86.969C165.611 -83.7925 162.449 -79.5573 160.342 -74.2632C158.234 -64.7339 161.396 -55.2045 168.772 -50.9692L446.966 144.911C457.503 152.323 471.202 149.147 477.525 139.617C480.686 135.382 482.794 131.147 482.794 126.912C482.794 119.5 479.633 113.147 473.31 108.912L261.503 -39.3223C242.536 -53.0869 242.536 -81.675 261.503 -95.4396L473.31 -243.674C483.848 -251.085 485.955 -264.85 478.579 -274.379C471.202 -284.967 457.503 -287.085 448.02 -279.673L169.826 -86.969Z" fill="white"/>
<path d="M12.8153 746.318C15.9766 742.083 17.0303 737.848 17.0303 733.612C17.0303 726.201 13.869 719.848 7.54645 715.612L-102.045 638.319C-103.099 638.319 -103.099 637.26 -104.153 637.26L-112.583 630.907C-123.12 623.496 -136.819 626.672 -143.142 636.201C-146.303 640.437 -147.357 644.672 -147.357 648.907C-147.357 656.319 -144.196 662.672 -137.873 666.907L-28.2816 744.2C-28.2816 745.259 -27.2278 745.259 -27.2278 745.259L-18.7977 751.612C-8.26001 759.024 5.43892 756.906 12.8153 746.318Z" fill="white"/>
</g>
</g>
<defs>
<clipPath id="clip0_2534_40248">
<rect width="518" height="742" fill="white" transform="translate(-25)"/>
</clipPath>
</defs>
</svg>
