<svg width="167" height="93" viewBox="0 0 167 93" fill="none" xmlns="http://www.w3.org/2000/svg">
<mask id="mask0_2658:19214" style="mask-type:alpha" maskUnits="userSpaceOnUse" x="0" y="-64" width="167" height="373">
<g opacity="0.1">
<path d="M122.966 232.481C121.914 233.282 121.125 234.349 120.599 235.684C120.074 238.086 120.862 240.489 122.703 241.557L153.466 263.713C156.095 265.581 159.513 264.78 161.091 262.378C161.88 261.31 162.406 260.242 162.406 259.175C162.406 257.306 161.354 255.705 160.039 254.637L145.841 244.493C141.108 241.023 141.108 233.815 145.841 230.345L160.039 219.935C162.669 218.066 163.194 214.596 161.354 212.193C159.513 209.524 156.095 208.99 153.729 210.859L122.966 232.481Z" fill="white"/>
<path d="M122.966 79.5241C121.914 80.325 121.125 81.3927 120.6 82.7274C120.074 85.1299 120.862 87.5323 122.703 88.6001L153.466 110.756C156.095 112.625 159.514 111.824 161.091 109.421C161.88 108.354 162.406 107.286 162.406 105.951C162.406 104.083 161.617 102.481 160.039 101.413L145.841 91.2695C141.108 87.7993 141.108 80.5919 145.841 77.1217L160.302 66.9779C162.932 65.1094 163.458 61.6391 161.617 59.2367C159.776 56.5673 156.358 56.0334 153.992 57.902L122.966 79.5241Z" fill="white"/>
<path d="M122.178 -44.0692C121.389 -43.0014 121.126 -41.9337 121.126 -40.8659C121.126 -38.9973 121.915 -37.3957 123.492 -36.3279L150.837 -16.8413C151.1 -16.8413 151.1 -16.5744 151.363 -16.5744L153.729 -14.9727C156.359 -13.1041 159.777 -13.905 161.355 -16.3074C162.143 -17.3752 162.406 -18.4429 162.406 -19.5107C162.406 -21.3793 161.617 -22.9809 160.04 -24.0487L132.695 -43.5353C132.432 -43.5353 132.432 -43.8022 132.169 -43.8022L130.066 -45.4039C127.436 -47.2725 124.018 -46.7386 122.178 -44.0692Z" fill="white"/>
<path d="M83.0003 165.479C84.052 164.678 84.8408 163.61 85.3667 162.275C85.8925 159.873 85.1037 157.471 83.2632 156.403L14.112 107.286C11.4826 105.417 8.06453 106.218 6.48693 108.621C5.69814 109.688 5.4352 110.756 5.4352 111.824C5.4352 113.692 6.224 115.294 7.8016 116.362L60.651 153.733C65.3838 157.204 65.3838 164.411 60.651 167.881L7.8016 205.253C5.17227 207.121 4.64641 210.592 6.48693 212.994C8.32746 215.663 11.7456 216.197 14.112 214.329L83.0003 165.479Z" fill="white"/>
<path d="M44.6119 165.479C45.6636 164.678 46.4524 163.61 46.9783 162.275C47.5041 159.873 46.7154 157.471 44.8748 156.403L14.1117 134.514C11.4824 132.645 8.06429 133.446 6.48669 135.848C5.69789 136.916 5.43496 137.984 5.43496 139.052C5.43496 140.92 6.22376 142.522 7.80135 143.59L21.9997 153.733C26.7325 157.204 26.7325 164.411 21.9997 167.881L7.53841 178.025C4.90909 179.894 4.38323 183.364 6.22375 185.766C8.06428 188.436 11.4824 188.97 13.8488 187.101L44.6119 165.479Z" fill="white"/>
<path d="M44.6115 -44.6031C43.8227 -43.5353 43.5598 -42.4675 43.5598 -41.3998C43.5598 -39.5312 44.3486 -37.9295 45.9262 -36.8618L98.7756 0.509827C103.508 3.98007 103.508 11.1874 98.7756 14.6577L45.9262 52.0293L7.53803 79.2572C6.4863 80.058 5.69751 81.1257 5.17165 82.4604C4.64578 84.8629 5.43458 87.2654 7.2751 88.3331L76.6893 137.984L98.7756 153.733C103.508 157.204 103.508 164.411 98.7756 167.881L45.9262 205.253L7.53803 232.481C6.4863 233.282 5.69751 234.349 5.17165 235.684C4.64578 238.087 5.43458 240.489 7.2751 241.557L76.6893 290.941C79.3186 292.809 82.7367 292.008 84.3143 289.606C85.1031 288.538 85.366 287.47 85.366 286.403C85.366 284.534 84.5772 282.932 82.9996 281.865L30.1502 244.493C25.4174 241.023 25.4174 233.816 30.1502 230.345L82.9996 192.974L121.388 165.479C122.44 164.678 123.228 163.61 123.754 162.276C124.28 159.873 123.491 157.471 121.651 156.403L52.4995 107.286L30.4132 91.5364C25.6804 88.0662 25.6804 80.8588 30.4132 77.3886L83.2626 40.017L121.651 12.7891C122.702 11.9883 123.491 10.9205 124.017 9.58578C124.543 7.18332 123.754 4.78088 121.914 3.7131L52.7624 -45.4039C49.8702 -47.8063 46.452 -47.2725 44.6115 -44.6031Z" fill="white"/>
<path d="M82.9999 -44.6031C82.2111 -43.5353 81.9482 -42.4676 81.9482 -41.3998C81.9482 -39.5312 82.737 -37.9296 84.3146 -36.8618L137.164 0.509796C141.897 3.98004 141.897 11.1874 137.164 14.6576L84.3146 52.0293L45.9264 79.2572C44.8747 80.058 44.0859 81.1257 43.56 82.4604C43.0342 84.8629 43.823 87.2654 45.6635 88.3331L115.078 137.984L137.164 153.733C141.897 157.204 141.897 164.411 137.164 167.881L84.3146 205.253L45.9264 232.481C44.8747 233.282 44.0859 234.349 43.56 235.684C43.0342 238.087 43.823 240.489 45.6635 241.557L115.078 290.941C117.707 292.809 121.125 292.008 122.703 289.606C123.491 288.538 123.754 287.47 123.754 286.403C123.754 284.534 122.966 282.932 121.388 281.865L68.5386 244.493C63.8058 241.023 63.8058 233.816 68.5386 230.345L121.388 192.974L160.039 165.479C161.091 164.678 161.88 163.61 162.405 162.276C162.931 159.873 162.143 157.471 160.302 156.403L91.1508 107.286L69.0645 91.5364C64.3317 88.0662 64.3317 80.8588 69.0645 77.3886L121.914 40.0169L160.039 12.2552C161.091 11.4543 161.88 10.3866 162.405 9.05188C162.931 6.64941 162.143 4.24698 160.302 3.17923L91.1508 -45.9378C88.2585 -47.8064 84.8404 -47.2725 82.9999 -44.6031Z" fill="white"/>
<path d="M84.3147 232.481C83.263 233.282 82.4742 234.349 81.9484 235.684C81.4225 238.087 82.2113 240.489 84.0518 241.557L153.466 290.941C156.095 292.809 159.513 292.008 161.091 289.606C161.88 288.538 162.406 287.47 162.406 286.403C162.406 284.534 161.617 282.932 160.039 281.865L107.19 244.493C102.457 241.023 102.457 233.816 107.19 230.345L160.039 192.974C162.669 191.105 163.194 187.635 161.354 185.232C159.513 182.563 156.095 182.029 153.729 183.898L84.3147 232.481Z" fill="white"/>
<path d="M83.0003 12.2552C84.052 11.4543 84.8408 10.3866 85.3667 9.05191C85.8925 6.64944 85.1037 4.24698 83.2632 3.17923L14.112 -45.9378C11.4826 -47.8064 8.06453 -47.0055 6.48693 -44.6031C5.69814 -43.5353 5.4352 -42.4675 5.4352 -41.3998C5.4352 -39.5312 6.224 -37.9296 7.8016 -36.8618L60.651 0.509827C65.3838 3.98007 65.3838 11.1874 60.651 14.6577L7.8016 52.0293C5.17227 53.8978 4.64641 57.368 6.48693 59.7705C8.32746 62.4399 11.7456 62.9738 14.112 61.1052L83.0003 12.2552Z" fill="white"/>
<path d="M44.6119 12.2552C45.6636 11.4544 46.4524 10.3866 46.9783 9.05191C47.5041 6.64944 46.7154 4.24698 44.8748 3.17923L14.1117 -18.7099C11.4824 -20.5785 8.06429 -19.7776 6.48669 -17.3752C5.69789 -16.3074 5.43496 -15.2396 5.43496 -14.1719C5.43496 -12.3033 6.22376 -10.7017 7.80135 -9.63391L21.9997 0.509827C26.7325 3.98007 26.7325 11.1874 21.9997 14.6577L7.53841 24.8014C4.90909 26.67 4.38323 30.1402 6.22375 32.5426C8.06428 35.212 11.4824 35.7459 13.8488 33.8773L44.6119 12.2552Z" fill="white"/>
<path d="M84.3147 79.5241C83.263 80.3249 82.4742 81.3927 81.9484 82.7274C81.4225 85.1298 82.2113 87.5323 84.0518 88.6001L153.466 137.984C156.095 139.853 159.513 139.052 161.091 136.649C161.88 135.582 162.406 134.514 162.406 133.446C162.406 131.577 161.617 129.976 160.039 128.908L107.19 91.5364C102.457 88.0662 102.457 80.8588 107.19 77.3886L160.039 40.017C162.669 38.1484 163.194 34.6781 161.354 32.2757C159.513 29.6063 156.095 29.0724 153.729 30.941L84.3147 79.5241Z" fill="white"/>
<path d="M45.1379 289.606C45.9267 288.538 46.1896 287.47 46.1896 286.403C46.1896 284.534 45.4008 282.932 43.8232 281.865L16.4783 262.378C16.2153 262.378 16.2153 262.111 15.9524 262.111L13.8489 260.509C11.2196 258.641 7.8015 259.442 6.2239 261.844C5.4351 262.912 5.17218 263.98 5.17218 265.047C5.17218 266.916 5.96097 268.518 7.53856 269.585L34.8835 289.072C34.8835 289.339 35.1465 289.339 35.1465 289.339L37.2499 290.941C39.8793 292.809 43.2974 292.275 45.1379 289.606Z" fill="white"/>
</g>
</mask>
<g mask="url(#mask0_2658:19214)">
<rect x="4" width="163" height="93" fill="#C4C4C4"/>
</g>
</svg>
