<svg width="12" height="13" viewBox="0 0 12 13" fill="none" xmlns="http://www.w3.org/2000/svg">
<g clip-path="url(#clip0_2534_33565)">
<path d="M8.26901 5.38335C7.96137 5.07571 7.36376 4.65194 6.49903 4.6674L5.28591 5.88053C5.14671 6.01972 5.14669 6.23849 5.28591 6.37771C5.42513 6.51693 5.64389 6.5169 5.78309 6.37771C6.19575 5.96504 6.86196 5.96504 7.27465 6.37771C7.68731 6.79037 7.68731 7.45658 7.27465 7.86927L4.20073 10.9407C3.78809 11.3533 3.12185 11.3533 2.70917 10.9407C2.2965 10.528 2.29653 9.86174 2.70917 9.4491L3.56067 8.60012C3.4662 8.52557 3.38166 8.45097 3.29714 8.36645C3.0386 8.10791 2.8298 7.80958 2.68064 7.49141L1.71478 8.45474C0.755229 9.41429 0.755229 10.9755 1.71478 11.935C2.67434 12.8946 4.23551 12.8946 5.19506 11.935L8.26899 8.86363C8.85092 8.28175 9.53709 6.65144 8.26901 5.38335Z" fill="url(#paint0_linear_2534_33565)"/>
<path d="M8.76575 4.88577C9.02928 5.1493 9.23314 5.44262 9.38224 5.76081L10.2875 4.85424C11.247 3.89469 11.247 2.33352 10.2875 1.37396C9.32792 0.414408 7.76675 0.414408 6.80719 1.37396L3.7939 4.38859C2.8624 5.32009 2.80922 6.88421 3.7939 7.86887C4.28867 8.36363 4.9793 8.60492 5.56388 8.58481L6.777 7.37169C6.91622 7.23247 6.91622 7.01373 6.777 6.87451C6.63778 6.73529 6.41904 6.73529 6.27982 6.87451C5.86718 7.28715 5.20095 7.28717 4.78826 6.87451C4.37557 6.46185 4.37562 5.79559 4.78826 5.38295L7.80155 2.36832C8.21421 1.95566 8.88042 1.95566 9.29311 2.36832C9.70578 2.78099 9.70578 3.4472 9.29311 3.85988L8.50226 4.65207C8.59172 4.72168 8.68123 4.80125 8.76575 4.88577Z" fill="url(#paint1_linear_2534_33565)"/>
</g>
<defs>
<linearGradient id="paint0_linear_2534_33565" x1="0.995117" y1="8.23175" x2="8.98519" y2="8.23175" gradientUnits="userSpaceOnUse">
<stop stop-color="#DE525C"/>
<stop offset="1" stop-color="#E97251"/>
</linearGradient>
<linearGradient id="paint1_linear_2534_33565" x1="3.0752" y1="4.19405" x2="11.0071" y2="4.19405" gradientUnits="userSpaceOnUse">
<stop stop-color="#DE525C"/>
<stop offset="1" stop-color="#E97251"/>
</linearGradient>
<clipPath id="clip0_2534_33565">
<rect width="12" height="12" fill="white" transform="translate(0 0.654297)"/>
</clipPath>
</defs>
</svg>
