<svg width="175" height="55" viewBox="0 0 175 55" fill="none" xmlns="http://www.w3.org/2000/svg" id="logo">
<path d="M26.2101 0.786133C25.7687 0.786133 25.4745 1.12945 25.4745 1.47277L25.548 15.6863C25.548 16.8535 24.0032 17.4715 23.1204 16.6476L12.6006 6.69125C12.3064 6.41659 11.865 6.41659 11.5707 6.69125C11.2765 6.96591 11.2765 7.37789 11.4972 7.65255L25.7687 23.5826C25.8423 23.6513 25.9159 23.6513 26.063 23.5826C26.8722 22.9647 27.8286 22.5527 28.8585 22.4153C28.932 22.4153 29.0056 22.3467 29.0056 22.278L26.9458 1.40411C26.9458 1.06079 26.6515 0.786133 26.2101 0.786133Z" fill="#10BFEB"/>
<path d="M47.5397 6.69125C47.2454 6.4166 46.804 6.4166 46.5098 6.69125L35.9164 16.6476C35.0337 17.4715 33.4888 16.9222 33.4888 15.6863L33.5624 1.47277C33.5624 1.06079 33.1945 0.786133 32.8267 0.786133C32.4589 0.786133 32.0911 1.06079 32.0911 1.40411L30.0312 22.278C30.0312 22.3467 30.1048 22.4153 30.1784 22.4153C31.2819 22.484 32.2382 22.896 33.0474 23.514C33.121 23.5826 33.2681 23.5826 33.3417 23.514L47.5397 7.65255C47.8339 7.37789 47.7604 6.96591 47.5397 6.69125Z" fill="#10BFEB"/>
<path d="M57.6194 23.9938L42.3914 24.0625C41.1408 24.0625 40.4788 22.6205 41.3615 21.7966L52.102 11.9776C52.3963 11.7029 52.3963 11.2909 52.102 11.0163C51.8077 10.7416 51.3664 10.7416 51.0721 10.9476L34.0786 24.1998C34.005 24.2685 34.005 24.3371 34.0786 24.4745C34.7407 25.2298 35.1821 26.1224 35.2556 27.1524C35.2556 27.221 35.3292 27.2897 35.4763 27.2897L57.6929 25.4358C58.0608 25.4358 58.355 25.0924 58.355 24.7491C58.4286 24.3371 58.0608 23.9938 57.6194 23.9938Z" fill="#10BFEB"/>
<path d="M52.0975 44.5947C52.3917 44.32 52.3917 43.9081 52.0975 43.6334L41.4305 33.7458C40.5478 32.9218 41.1363 31.4798 42.4605 31.4798L57.6884 31.5485C58.1298 31.5485 58.424 31.2052 58.424 30.8619C58.424 30.5185 58.1298 30.1752 57.7619 30.1752L35.4718 28.3213C35.3982 28.3213 35.2511 28.39 35.2511 28.4586C35.104 29.4886 34.6626 30.3812 34.0005 31.1365C33.9269 31.2052 33.9269 31.3425 34.0005 31.4112L50.994 44.6634C51.3618 44.8694 51.8032 44.8007 52.0975 44.5947Z" fill="#10BFEB"/>
<path d="M32.7531 54.7559C33.1945 54.7559 33.4888 54.4126 33.4888 54.0693L33.4152 39.8558C33.4152 38.6885 34.9601 38.0705 35.8429 38.8945L46.3626 48.8508C46.6569 49.1254 47.0983 49.1254 47.3926 48.8508C47.6868 48.5761 47.6868 48.1641 47.4661 47.8895L33.3417 32.0281C33.2681 31.9594 33.1945 31.9594 33.0474 32.0281C32.2382 32.5774 31.2819 32.9894 30.1784 33.058C30.1048 33.058 30.0312 33.1267 30.0312 33.264L32.0175 54.1379C32.0911 54.4812 32.3853 54.7559 32.7531 54.7559Z" fill="#10BFEB"/>
<path d="M11.4941 48.8504C11.7884 49.1251 12.2298 49.1251 12.524 48.8504L23.0438 38.8941C23.9266 38.0701 25.4715 38.6195 25.4715 39.8554L25.3979 54.0689C25.3979 54.4809 25.7657 54.7555 26.1335 54.7555C26.5014 54.7555 26.8692 54.4809 26.8692 54.1376L28.8554 33.195C28.8554 33.1263 28.7819 32.989 28.7083 32.989C27.6784 32.8517 26.7221 32.4397 25.9128 31.8904C25.8393 31.8217 25.6922 31.8217 25.6186 31.8904L11.4941 47.8891C11.1999 48.1638 11.1999 48.5758 11.4941 48.8504Z" fill="#10BFEB"/>
<path d="M0.605469 30.8605C0.605469 31.2725 0.973293 31.5472 1.34112 31.5472L16.569 31.4785C17.8196 31.4785 18.4817 32.9204 17.599 33.7444L6.93205 43.5634C6.63779 43.838 6.63779 44.25 6.93205 44.5247C7.22631 44.7993 7.6677 44.7993 7.96196 44.5933L25.1026 31.2038C25.1761 31.1352 25.1761 31.0665 25.1026 30.9292C24.5141 30.1739 24.0727 29.2812 23.9255 28.3199C23.9255 28.2513 23.852 28.1826 23.7048 28.1826L1.26755 30.1052C0.899728 30.1739 0.605469 30.4485 0.605469 30.8605Z" fill="#10BFEB"/>
<path d="M6.93205 10.9478C6.63779 11.2224 6.63779 11.6344 6.93205 11.9091L17.599 21.728C18.4817 22.552 17.8932 23.994 16.569 23.994H1.34112C0.899728 23.994 0.605469 24.3373 0.605469 24.6806C0.605469 25.0239 0.899728 25.3672 1.26755 25.3672L23.7048 27.2212C23.7784 27.2212 23.9255 27.1525 23.9255 27.0838C24.0727 26.1225 24.4405 25.2299 25.029 24.4746C25.1026 24.4059 25.1026 24.2686 25.029 24.1999L7.96195 10.9478C7.6677 10.6731 7.22631 10.7418 6.93205 10.9478Z" fill="#10BFEB"/>
<path d="M72.134 14.9678C73.6789 14.9678 74.8559 15.2424 75.6651 15.7917C76.4743 16.3411 76.9157 17.165 76.9157 18.2637C76.9157 18.9503 76.7686 19.4996 76.4008 19.9803C76.0329 20.3922 75.5916 20.7356 75.003 21.0102C75.2237 21.2849 75.4444 21.5595 75.6651 21.8342C75.8858 22.1775 76.1065 22.5208 76.3272 22.8642C76.5479 23.2075 76.7686 23.5508 76.9893 23.9628C77.21 24.3748 77.3571 24.7181 77.5778 25.0614H75.003C74.7823 24.7181 74.6352 24.3748 74.4145 24.1001C74.1938 23.7568 74.0467 23.4135 73.826 23.1388C73.6053 22.7955 73.3846 22.5208 73.2375 22.2462C73.0168 21.9715 72.8697 21.6969 72.649 21.4909H71.4719V25.1301H69.1914V15.2424C69.7064 15.1738 70.2213 15.1051 70.7363 15.0364C71.2512 14.9678 71.7662 14.9678 72.134 14.9678ZM72.2811 16.8904C72.134 16.8904 71.9869 16.8904 71.8397 16.8904C71.6926 16.8904 71.5455 16.8904 71.4719 16.8904V19.5683H72.134C73.0168 19.5683 73.6053 19.4309 73.9731 19.225C74.341 19.019 74.5616 18.6756 74.5616 18.1263C74.5616 17.6457 74.341 17.3024 73.9731 17.0964C73.6053 16.959 73.0168 16.8904 72.2811 16.8904Z" fill="#10BFEB"/>
<path d="M83.3189 25.2681C82.5832 25.2681 81.9947 25.1995 81.4797 24.9935C80.9648 24.7875 80.5234 24.5128 80.1556 24.1695C79.7877 23.8262 79.567 23.4142 79.4199 22.9336C79.2728 22.4529 79.1992 21.9036 79.1992 21.3543V15.2432H81.4797V21.2169C81.4797 21.6289 81.5533 21.9723 81.6269 22.2469C81.7004 22.5216 81.8476 22.7276 81.9947 22.9336C82.1418 23.1395 82.3625 23.2082 82.5832 23.2769C82.8039 23.3455 83.0982 23.4142 83.3189 23.4142C83.9074 23.4142 84.3488 23.2769 84.7166 22.9336C85.0844 22.5902 85.2315 22.0409 85.2315 21.2169V15.2432H87.5121V21.3543C87.5121 21.9036 87.4385 22.4529 87.2914 22.9336C87.1442 23.4142 86.85 23.8262 86.5557 24.1695C86.1879 24.5128 85.7465 24.7875 85.2315 24.9935C84.643 25.1308 84.0545 25.2681 83.3189 25.2681Z" fill="#10BFEB"/>
<path d="M93.0311 23.3454C93.3989 23.3454 93.6932 23.3454 93.9139 23.2767C94.1346 23.2081 94.2817 23.1394 94.4288 23.0708C94.576 23.0021 94.6495 22.8648 94.7231 22.7274C94.7967 22.5901 94.7967 22.4528 94.7967 22.3155C94.7967 21.9721 94.6495 21.6975 94.2817 21.4915C93.9139 21.2855 93.3989 21.0795 92.5897 20.8048C92.2219 20.6675 91.8541 20.5302 91.5598 20.3929C91.192 20.2555 90.8977 20.0495 90.6035 19.8435C90.3092 19.6375 90.0885 19.3629 89.9414 19.0196C89.7943 18.6762 89.6471 18.3329 89.6471 17.8523C89.6471 17.3716 89.7207 16.9596 89.9414 16.6163C90.1621 16.273 90.3828 15.9297 90.7506 15.655C91.1184 15.3804 91.4863 15.1744 92.0012 15.037C92.5162 14.8997 93.0311 14.8311 93.6196 14.8311C94.3553 14.8311 94.9438 14.8997 95.5323 15.037C96.0473 15.1744 96.4887 15.3117 96.8565 15.5177L96.1208 17.303C95.8266 17.1656 95.4588 17.0283 95.0909 16.9596C94.7231 16.8223 94.2817 16.8223 93.7668 16.8223C93.1782 16.8223 92.7369 16.891 92.5162 17.0283C92.2955 17.1656 92.1483 17.3716 92.1483 17.7149C92.1483 17.9209 92.2219 18.0583 92.2955 18.1956C92.369 18.3329 92.5162 18.4016 92.6633 18.5389C92.8104 18.6076 93.0311 18.7449 93.2518 18.8136C93.4725 18.8822 93.6932 18.9509 93.9875 19.0882C94.576 19.2942 95.0174 19.4316 95.4588 19.6375C95.9001 19.8435 96.1944 20.0495 96.4887 20.2555C96.7829 20.5302 97.0036 20.8048 97.0772 21.1482C97.2243 21.4915 97.2979 21.9035 97.2979 22.3841C97.2979 23.2767 96.9301 24.0321 96.268 24.5127C95.5323 24.9934 94.5024 25.268 93.1047 25.268C92.5897 25.268 92.2219 25.268 91.7805 25.1993C91.4127 25.1307 91.0449 25.062 90.7506 24.9934C90.4563 24.9247 90.2356 24.856 90.015 24.7187C89.7943 24.65 89.6471 24.5814 89.5 24.444L90.1621 22.6588C90.4563 22.7961 90.8977 22.9334 91.3391 23.0708C91.7805 23.2767 92.2955 23.3454 93.0311 23.3454Z" fill="#10BFEB"/>
<path d="M101.93 23.3454C102.297 23.3454 102.592 23.3454 102.812 23.2767C103.033 23.2081 103.18 23.1394 103.327 23.0708C103.474 23.0021 103.548 22.8648 103.622 22.7274C103.695 22.5901 103.695 22.4528 103.695 22.3155C103.695 21.9721 103.548 21.6975 103.18 21.4915C102.812 21.2855 102.297 21.0795 101.488 20.8048C101.12 20.6675 100.753 20.5302 100.458 20.3929C100.09 20.2555 99.7962 20.0495 99.5019 19.8435C99.2077 19.6375 98.987 19.3629 98.8398 19.0196C98.6927 18.6762 98.5456 18.3329 98.5456 17.8523C98.5456 17.3716 98.6191 16.9596 98.8398 16.6163C99.0605 16.273 99.2812 15.9297 99.649 15.655C100.017 15.3804 100.385 15.1744 100.9 15.037C101.415 14.8997 101.93 14.8311 102.518 14.8311C103.254 14.8311 103.842 14.8997 104.431 15.037C104.946 15.1744 105.387 15.3117 105.755 15.5177L105.019 17.303C104.725 17.1656 104.357 17.0283 103.989 16.9596C103.622 16.8223 103.18 16.8223 102.665 16.8223C102.077 16.8223 101.635 16.891 101.415 17.0283C101.194 17.1656 101.047 17.3716 101.047 17.7149C101.047 17.9209 101.12 18.0583 101.194 18.1956C101.267 18.3329 101.415 18.4016 101.562 18.5389C101.709 18.6076 101.93 18.7449 102.15 18.8136C102.371 18.8822 102.592 18.9509 102.886 19.0882C103.474 19.2942 103.916 19.4316 104.357 19.6375C104.799 19.8435 105.093 20.0495 105.387 20.2555C105.681 20.5302 105.902 20.8048 105.976 21.1482C106.123 21.4915 106.196 21.9035 106.196 22.3841C106.196 23.2767 105.828 24.0321 105.166 24.5127C104.431 24.9934 103.401 25.268 102.003 25.268C101.488 25.268 101.12 25.268 100.679 25.1993C100.311 25.1307 99.9433 25.062 99.649 24.9934C99.3548 24.9247 99.1341 24.856 98.9134 24.7187C98.6927 24.65 98.5456 24.5814 98.3984 24.444L99.0605 22.6588C99.3548 22.7961 99.7962 22.9334 100.238 23.0708C100.679 23.2767 101.267 23.3454 101.93 23.3454Z" fill="#10BFEB"/>
<path d="M108.332 15.2432H110.98V25.0621H108.332V15.2432Z" fill="#10BFEB"/>
<path d="M131.578 25.0621C130.916 23.9635 130.181 22.8649 129.372 21.7663C128.562 20.6676 127.753 19.6377 126.87 18.6764V25.1308H124.59V15.2432H126.503C126.797 15.5865 127.165 15.9298 127.606 16.4105C127.974 16.8911 128.415 17.3718 128.857 17.8524C129.298 18.3331 129.666 18.8824 130.107 19.4317C130.549 19.981 130.916 20.5303 131.284 21.011V15.2432H133.638V25.0621H131.578Z" fill="#10BFEB"/>
<path d="M120.761 25.0621C120.614 24.7188 120.541 24.3755 120.394 24.0322C120.246 23.6889 120.099 23.3455 120.026 22.9336H115.98C115.833 23.2769 115.685 23.6202 115.612 24.0322C115.465 24.3755 115.391 24.7188 115.244 25.0621H112.816C113.184 24.0322 113.552 23.0022 113.92 22.1096C114.288 21.2169 114.582 20.393 114.95 19.569C115.318 18.745 115.612 17.9897 115.906 17.3031C116.2 16.6164 116.568 15.8611 116.936 15.2432H119.143C119.511 15.9298 119.805 16.6164 120.173 17.3031C120.467 17.9897 120.835 18.745 121.203 19.569C121.571 20.393 121.865 21.2169 122.233 22.1096C122.601 23.0022 122.968 23.9635 123.336 25.0621H120.761ZM117.966 17.4404L116.495 21.1483H119.437L117.966 17.4404Z" fill="#10BFEB"/>
<path d="M129.223 54.6564C127.384 54.6564 125.986 54.2444 125.03 53.2831C124.074 52.3905 123.559 51.1545 123.559 49.5066C123.559 48.6826 123.706 47.9273 124 47.3093C124.294 46.6913 124.662 46.142 125.177 45.6614C125.692 45.1807 126.28 44.9061 127.016 44.6314C127.752 44.4254 128.487 44.2881 129.297 44.2881C129.812 44.2881 130.179 44.2881 130.621 44.3567C130.989 44.4254 131.356 44.4941 131.651 44.5627C131.945 44.6314 132.166 44.7001 132.386 44.8374C132.607 44.9747 132.754 44.9747 132.828 45.0434L132.092 46.8287C131.724 46.6913 131.356 46.554 130.841 46.4167C130.4 46.2793 129.885 46.2793 129.297 46.2793C128.929 46.2793 128.487 46.348 128.12 46.4167C127.752 46.554 127.384 46.6913 127.09 46.966C126.795 47.2406 126.575 47.5153 126.428 47.9273C126.28 48.3393 126.133 48.8199 126.133 49.3692C126.133 49.8499 126.207 50.2619 126.28 50.6739C126.428 51.0858 126.575 51.4292 126.869 51.7038C127.09 51.9785 127.458 52.1845 127.899 52.3905C128.34 52.5278 128.782 52.6651 129.37 52.6651C129.738 52.6651 130.106 52.6651 130.4 52.5964C130.694 52.5278 130.989 52.5278 131.209 52.4591C131.43 52.3905 131.651 52.3218 131.798 52.2531C131.945 52.1845 132.166 52.1158 132.239 52.0471L132.975 53.8324C132.607 54.0384 132.092 54.1757 131.43 54.3131C130.842 54.5877 130.106 54.6564 129.223 54.6564Z" fill="#10BFEB"/>
<path d="M107.079 44.3574C108.624 44.3574 109.801 44.6321 110.61 45.1814C111.42 45.7307 111.861 46.5547 111.861 47.6533C111.861 48.34 111.714 48.8893 111.346 49.3699C110.978 49.7819 110.537 50.1252 109.948 50.3999C110.169 50.6745 110.39 50.9492 110.61 51.2238C110.831 51.5672 111.052 51.9105 111.273 52.2538C111.493 52.5971 111.714 52.9405 111.935 53.3524C112.155 53.7644 112.302 54.1077 112.523 54.4511H109.948C109.728 54.1077 109.581 53.7644 109.36 53.4898C109.139 53.1464 108.992 52.8031 108.771 52.5285C108.551 52.1851 108.33 51.9105 108.183 51.6358C107.962 51.3612 107.815 51.0865 107.594 50.8805H106.417V54.5197H104.137V44.6321C104.652 44.5634 105.167 44.4947 105.682 44.4261C106.197 44.4261 106.711 44.3574 107.079 44.3574ZM107.226 46.28C107.079 46.28 106.932 46.28 106.785 46.28C106.638 46.28 106.491 46.28 106.417 46.28V48.9579H107.079C107.962 48.9579 108.551 48.8206 108.918 48.6146C109.286 48.4086 109.507 48.0653 109.507 47.516C109.507 47.0353 109.286 46.692 108.918 46.486C108.551 46.4173 107.962 46.28 107.226 46.28Z" fill="#10BFEB"/>
<path d="M159.677 44.3564C161.222 44.3564 162.399 44.6311 163.208 45.1804C164.017 45.7297 164.459 46.5537 164.459 47.6523C164.459 48.339 164.312 48.8883 163.944 49.3689C163.576 49.7809 163.135 50.1242 162.546 50.3989C162.767 50.6736 162.987 50.9482 163.208 51.2229C163.429 51.5662 163.649 51.9095 163.87 52.2528C164.091 52.5962 164.312 52.9395 164.532 53.3515C164.753 53.7634 164.9 54.1068 165.121 54.4501H162.546C162.325 54.1068 162.178 53.7634 161.957 53.4888C161.737 53.1455 161.59 52.8021 161.369 52.5275C161.148 52.1842 160.928 51.9095 160.78 51.6349C160.56 51.3602 160.413 51.0855 160.192 50.8795H159.015V54.5188H156.734V44.6311C157.249 44.5624 157.764 44.4938 158.279 44.4251C158.721 44.4251 159.236 44.3564 159.677 44.3564ZM159.824 46.279C159.677 46.279 159.53 46.279 159.383 46.279C159.236 46.279 159.088 46.279 159.015 46.279V48.957H159.677C160.56 48.957 161.148 48.8196 161.516 48.6136C161.884 48.4076 162.105 48.0643 162.105 47.515C162.105 47.0344 161.884 46.691 161.516 46.485C161.075 46.4164 160.56 46.279 159.824 46.279Z" fill="#10BFEB"/>
<path d="M117.749 54.6568C117.013 54.6568 116.424 54.5881 115.909 54.3821C115.394 54.1762 114.953 53.9015 114.585 53.5582C114.217 53.2149 113.997 52.8029 113.85 52.3222C113.702 51.8416 113.629 51.2923 113.629 50.7429V44.6318H115.909V50.6056C115.909 51.0176 115.983 51.3609 116.057 51.6356C116.13 51.9102 116.277 52.1162 116.424 52.3222C116.571 52.5282 116.792 52.5969 117.013 52.6655C117.234 52.7342 117.528 52.8029 117.749 52.8029C118.337 52.8029 118.778 52.6655 119.146 52.3222C119.514 51.9789 119.661 51.4296 119.661 50.6056V44.6318H121.942V50.7429C121.942 51.2923 121.868 51.8416 121.721 52.3222C121.574 52.8029 121.28 53.2149 120.985 53.5582C120.618 53.9015 120.176 54.1762 119.661 54.3821C119.073 54.5881 118.484 54.6568 117.749 54.6568Z" fill="#10BFEB"/>
<path d="M88.5428 52.8024C88.9106 52.8024 89.2049 52.8024 89.4256 52.7338C89.6463 52.6651 89.7934 52.5964 89.9405 52.5278C90.0877 52.4591 90.1612 52.3218 90.2348 52.1845C90.3084 52.0471 90.3084 51.9098 90.3084 51.7725C90.3084 51.4292 90.1612 51.1545 89.7934 50.9485C89.4256 50.7425 88.9106 50.5365 88.1014 50.2619C87.7336 50.1245 87.3658 49.9872 87.0715 49.8499C86.7037 49.7125 86.4094 49.5066 86.1152 49.3006C85.8209 49.0946 85.6002 48.8199 85.4531 48.4766C85.306 48.1333 85.1588 47.79 85.1588 47.3093C85.1588 46.8287 85.2324 46.4167 85.4531 46.0734C85.6738 45.73 85.8945 45.3867 86.2623 45.1121C86.6301 44.8374 86.998 44.6314 87.5129 44.4941C88.0279 44.3568 88.5428 44.2881 89.1313 44.2881C89.867 44.2881 90.4555 44.3568 91.044 44.4941C91.559 44.6314 92.0004 44.7687 92.3682 44.9747L91.6325 46.76C91.3383 46.6227 90.9704 46.4853 90.6026 46.4167C90.2348 46.2793 89.7934 46.2793 89.2785 46.2793C88.6899 46.2793 88.2486 46.348 88.0279 46.4853C87.8072 46.6227 87.66 46.8287 87.66 47.172C87.66 47.378 87.7336 47.5153 87.8072 47.6526C87.8807 47.79 88.0279 47.8586 88.175 47.9959C88.3221 48.0646 88.5428 48.2019 88.7635 48.2706C88.9842 48.3393 89.2049 48.4079 89.4992 48.5453C90.0877 48.7512 90.5291 48.8886 90.9704 49.0946C91.4118 49.3006 91.7061 49.5066 92.0004 49.7125C92.2946 49.9872 92.5153 50.2619 92.5889 50.6052C92.736 50.9485 92.8096 51.3605 92.8096 51.8411C92.8096 52.7338 92.4417 53.4891 91.7797 53.9697C91.044 54.4504 90.0141 54.725 88.6164 54.725C88.1014 54.725 87.7336 54.725 87.2922 54.6564C86.9244 54.5877 86.5566 54.519 86.2623 54.4504C85.9681 54.3817 85.7474 54.313 85.5267 54.1757C85.306 54.1071 85.1588 54.0384 85.0117 53.9011L85.6738 52.1158C85.9681 52.2531 86.4094 52.3904 86.8508 52.5278C87.2922 52.7338 87.8807 52.8024 88.5428 52.8024Z" fill="#10BFEB"/>
<path d="M169.98 52.8024C170.348 52.8024 170.642 52.8024 170.863 52.7338C171.084 52.6651 171.231 52.5964 171.378 52.5278C171.525 52.4591 171.599 52.3218 171.672 52.1845C171.746 52.0471 171.746 51.9098 171.746 51.7725C171.746 51.4292 171.599 51.1545 171.231 50.9485C170.863 50.7425 170.348 50.5365 169.539 50.2619C169.171 50.1245 168.803 49.9872 168.509 49.8499C168.141 49.7125 167.847 49.5066 167.553 49.3006C167.258 49.0946 167.038 48.8199 166.891 48.4766C166.743 48.1333 166.596 47.79 166.596 47.3093C166.596 46.8287 166.67 46.4167 166.891 46.0734C167.111 45.73 167.332 45.3867 167.7 45.1121C168.068 44.8374 168.435 44.6314 168.95 44.4941C169.465 44.3568 169.98 44.2881 170.569 44.2881C171.305 44.2881 171.893 44.3568 172.482 44.4941C172.997 44.6314 173.438 44.7687 173.806 44.9747L173.07 46.76C172.776 46.6227 172.408 46.4853 172.04 46.4167C171.672 46.2793 171.231 46.2793 170.716 46.2793C170.127 46.2793 169.686 46.348 169.465 46.4853C169.245 46.6227 169.098 46.8287 169.098 47.172C169.098 47.378 169.171 47.5153 169.245 47.6526C169.318 47.79 169.465 47.8586 169.613 47.9959C169.76 48.0646 169.98 48.2019 170.201 48.2706C170.422 48.3393 170.642 48.4079 170.937 48.5453C171.525 48.7512 171.967 48.8886 172.408 49.0946C172.849 49.3006 173.144 49.5066 173.438 49.7125C173.732 49.9872 173.953 50.2619 174.026 50.6052C174.174 50.9485 174.247 51.3605 174.247 51.8411C174.247 52.7338 173.879 53.4891 173.217 53.9697C172.482 54.4504 171.452 54.725 170.054 54.725C169.539 54.725 169.171 54.725 168.73 54.6564C168.362 54.5877 167.994 54.519 167.7 54.4504C167.406 54.3817 167.185 54.313 166.964 54.1757C166.743 54.1071 166.596 54.0384 166.449 53.9011L167.111 52.1158C167.406 52.2531 167.847 52.3904 168.288 52.5278C168.73 52.7338 169.318 52.8024 169.98 52.8024Z" fill="#10BFEB"/>
<path d="M81.4066 54.4518C80.7446 53.3532 80.0089 52.2545 79.1997 51.1559C78.3905 50.0573 77.5813 49.0273 76.6985 48.066V54.5204H74.418V44.6328H76.3307C76.6249 44.9761 76.9927 45.3195 77.4341 45.8001C77.802 46.2807 78.2433 46.7614 78.6847 47.242C79.1261 47.7227 79.494 48.272 79.9353 48.8213C80.3767 49.3706 80.7446 49.9199 81.1124 50.4006V44.6328H83.4665V54.4518H81.4066Z" fill="#10BFEB"/>
<path d="M102.811 44.6328V46.4867H99.5746V54.3831H97.147V46.4867H93.9102V44.6328H102.811Z" fill="#10BFEB"/>
<path d="M143.272 44.6318V46.4858H140.036V54.3821H137.608V46.4858H134.371V44.6318H143.272Z" fill="#10BFEB"/>
<path d="M68.3477 44.6318H70.996V54.4508H68.3477V44.6318Z" fill="#10BFEB"/>
<path d="M155.339 49.5758C155.339 50.4685 155.192 51.2238 154.897 51.9104C154.603 52.5971 154.235 53.1464 153.72 53.627C153.205 54.1077 152.617 54.451 151.955 54.657C151.293 54.863 150.557 55.0003 149.748 55.0003C149.012 55.0003 148.277 54.863 147.614 54.657C146.952 54.451 146.364 54.1077 145.849 53.627C145.334 53.1464 144.966 52.5971 144.672 51.9104C144.378 51.2238 144.23 50.4685 144.23 49.5758C144.23 48.6832 144.378 47.9279 144.672 47.2413C144.966 46.5546 145.408 46.0053 145.849 45.5247C146.364 45.044 146.952 44.7007 147.614 44.4947C148.277 44.2887 149.012 44.1514 149.748 44.1514C150.483 44.1514 151.219 44.2887 151.881 44.4947C152.543 44.7007 153.132 45.044 153.647 45.5247C154.162 46.0053 154.53 46.5546 154.824 47.2413C155.192 47.8592 155.339 48.6832 155.339 49.5758ZM146.879 49.5758C146.879 50.0565 146.952 50.5371 147.099 50.9491C147.247 51.3611 147.394 51.7044 147.688 51.9791C147.909 52.2537 148.277 52.5284 148.571 52.6657C148.939 52.803 149.38 52.8717 149.821 52.8717C150.263 52.8717 150.704 52.803 151.072 52.6657C151.44 52.5284 151.734 52.2537 152.028 51.9791C152.249 51.7044 152.47 51.3611 152.617 50.9491C152.764 50.5371 152.838 50.0565 152.838 49.5758C152.838 49.0952 152.764 48.6145 152.617 48.2025C152.47 47.7906 152.323 47.4472 152.028 47.1726C151.808 46.8979 151.44 46.6233 151.072 46.4859C150.704 46.3486 150.263 46.28 149.821 46.28C149.38 46.28 148.939 46.3486 148.571 46.5546C148.203 46.6919 147.909 46.9666 147.688 47.2413C147.467 47.5159 147.247 47.8592 147.099 48.2712C146.952 48.6145 146.879 49.0265 146.879 49.5758Z" fill="#10BFEB"/>
<path d="M77.2852 39.7574V29.9385H84.2738V31.7924H79.5657V33.715H83.6853V35.5003H79.5657V37.8349H84.5681V39.6888H77.2852V39.7574Z" fill="#10BFEB"/>
<path d="M118.262 39.7574V29.9385H125.25V31.7924H120.542V33.715H124.662V35.5003H120.542V37.8349H125.545V39.6888H118.262V39.7574Z" fill="#10BFEB"/>
<path d="M142.977 39.7574V29.9385H150.333V31.7924H145.331V33.715H149.45V35.5003H145.331V39.6888H142.977V39.7574Z" fill="#10BFEB"/>
<path d="M102.586 31.585C101.482 31.585 100.673 31.8597 100.158 32.4776C99.6431 33.027 99.4224 33.8509 99.4224 34.8122C99.4224 35.2929 99.496 35.7049 99.5696 36.1168C99.7167 36.5288 99.8638 36.8721 100.085 37.1468C100.305 37.4215 100.599 37.6275 100.967 37.8334C101.335 37.9708 101.777 38.0394 102.218 38.0394C102.512 38.0394 102.733 38.0394 102.88 38.0394C103.101 38.0394 103.248 38.0394 103.395 37.9708V34.5376H105.749V39.4127C105.455 39.55 105.013 39.6187 104.351 39.756C103.689 39.8934 102.954 39.962 101.997 39.962C101.188 39.962 100.452 39.8247 99.8638 39.6187C99.2017 39.4127 98.6868 39.0694 98.2454 38.5888C97.804 38.1768 97.4362 37.6275 97.2155 37.0095C96.9948 36.3915 96.8477 35.6362 96.8477 34.8122C96.8477 33.9883 96.9948 33.2329 97.2891 32.615C97.5833 31.997 97.9511 31.4477 98.3925 30.967C98.8339 30.555 99.4224 30.2117 100.085 29.9371C100.747 29.7311 101.409 29.5938 102.144 29.5938C102.659 29.5938 103.101 29.5938 103.468 29.6624C103.836 29.7311 104.204 29.7997 104.498 29.8684C104.793 29.9371 105.013 30.0057 105.234 30.1431C105.455 30.2117 105.528 30.2804 105.602 30.3491L104.94 32.1343C104.646 31.997 104.278 31.8597 103.836 31.7223C103.542 31.6537 103.101 31.585 102.586 31.585Z" fill="#10BFEB"/>
<path d="M111.932 39.9634C111.196 39.9634 110.608 39.8948 110.093 39.6888C109.578 39.4828 109.137 39.2081 108.769 38.8648C108.401 38.5215 108.18 38.1095 108.033 37.6289C107.886 37.1482 107.812 36.5989 107.812 36.0496V29.9385H110.093V35.9123C110.093 36.3242 110.167 36.6676 110.24 36.9422C110.314 37.2169 110.461 37.4229 110.608 37.6289C110.755 37.8348 110.976 37.9035 111.196 37.9722C111.417 38.0408 111.711 38.1095 111.932 38.1095C112.521 38.1095 112.962 37.9722 113.33 37.6289C113.698 37.2855 113.845 36.7362 113.845 35.9123V29.9385H116.125V36.0496C116.125 36.5989 116.052 37.1482 115.905 37.6289C115.758 38.1095 115.463 38.5215 115.169 38.8648C114.801 39.2081 114.36 39.4828 113.845 39.6888C113.33 39.8948 112.668 39.9634 111.932 39.9634Z" fill="#10BFEB"/>
<path d="M93.6911 39.7574C93.544 39.4141 93.4704 39.0708 93.3233 38.7275C93.1761 38.3842 93.029 38.0408 92.9554 37.6289H88.9094C88.7622 37.9722 88.6151 38.3155 88.5416 38.7275C88.3944 39.0708 88.3209 39.4141 88.1737 39.7574H85.7461C86.1139 38.7275 86.4817 37.6975 86.8496 36.8049C87.2174 35.9123 87.5117 35.0883 87.8795 34.2643C88.2473 33.4403 88.5416 32.685 88.8358 31.9984C89.1301 31.3118 89.4979 30.5565 89.8657 29.9385H92.0727C92.4405 30.6251 92.7348 31.3118 93.1026 31.9984C93.3968 32.685 93.7647 33.4403 94.1325 34.2643C94.5003 35.0883 94.7946 35.9123 95.1624 36.8049C95.5302 37.6975 95.898 38.6588 96.2659 39.7574H93.6911ZM90.8956 32.1357L89.4243 35.8436H92.3669L90.8956 32.1357Z" fill="#10BFEB"/>
<path d="M141.136 34.8122C141.136 35.7048 140.989 36.4601 140.694 37.1467C140.4 37.8334 140.032 38.3827 139.517 38.8633C139.002 39.344 138.414 39.6873 137.752 39.8933C137.09 40.0993 136.354 40.2366 135.545 40.2366C134.809 40.2366 134.073 40.0993 133.411 39.8933C132.749 39.6873 132.161 39.344 131.646 38.8633C131.131 38.3827 130.763 37.8334 130.469 37.1467C130.174 36.4601 130.027 35.7048 130.027 34.8122C130.027 33.9195 130.174 33.1642 130.469 32.4776C130.763 31.7909 131.204 31.2416 131.646 30.761C132.161 30.2803 132.749 29.937 133.411 29.731C134.073 29.525 134.809 29.3877 135.545 29.3877C136.28 29.3877 137.016 29.525 137.678 29.731C138.34 29.937 138.929 30.2803 139.444 30.761C139.959 31.2416 140.326 31.7909 140.621 32.4776C140.915 33.1642 141.136 33.9195 141.136 34.8122ZM132.676 34.8122C132.676 35.2928 132.749 35.7735 132.896 36.1854C133.044 36.5974 133.191 36.9408 133.485 37.2154C133.706 37.4901 134.073 37.7647 134.368 37.9021C134.736 38.0394 135.177 38.108 135.618 38.108C136.06 38.108 136.501 38.0394 136.869 37.9021C137.237 37.7647 137.531 37.4901 137.825 37.2154C138.046 36.9408 138.267 36.5974 138.414 36.1854C138.561 35.7735 138.634 35.2928 138.634 34.8122C138.634 34.3315 138.561 33.8509 138.414 33.4389C138.267 33.0269 138.119 32.6836 137.825 32.4089C137.605 32.1343 137.237 31.8596 136.869 31.7223C136.501 31.5849 136.06 31.5163 135.618 31.5163C135.177 31.5163 134.736 31.5849 134.368 31.7909C134 31.9283 133.706 32.2029 133.485 32.4776C133.264 32.7522 133.044 33.0956 132.896 33.5075C132.749 33.8509 132.676 34.3315 132.676 34.8122Z" fill="#10BFEB"/>
<path d="M75.9587 37.8349V39.7574H69.1172V29.9385H71.4713V37.8349H75.9587Z" fill="#10BFEB"/>
<path d="M76.1058 10.2994C75.4438 9.20082 74.7081 8.10219 73.8989 7.00356C73.0897 5.90494 72.2805 4.87497 71.3977 3.91368V10.2994H69.1172V0.480469H71.0299C71.3241 0.82379 71.692 1.16711 72.1333 1.64776C72.5747 2.05974 72.9425 2.54039 73.3839 3.08971C73.8253 3.57036 74.1932 4.11967 74.6345 4.66898C75.0759 5.2183 75.4438 5.76761 75.8116 6.24826V0.480469H78.1656V10.2994H76.1058Z" fill="#10BFEB"/>
<path d="M87.4333 10.2994C87.2861 9.95612 87.2126 9.6128 87.0654 9.26948C86.9183 8.92616 86.7712 8.58284 86.6976 8.17085H82.6516C82.5044 8.51418 82.3573 8.8575 82.2837 9.26948C82.1366 9.6128 82.063 9.95612 81.9159 10.2994H79.4883C79.8561 9.26948 80.2239 8.23952 80.5918 7.34688C80.9596 6.45425 81.2538 5.63028 81.6217 4.80631C81.9895 3.98234 82.2837 3.22704 82.578 2.54039C82.8723 1.85375 83.2401 1.09845 83.6079 0.480469H85.8148C86.1827 1.16711 86.4769 1.85375 86.8448 2.54039C87.139 3.22704 87.5068 3.98234 87.8747 4.80631C88.2425 5.63028 88.5367 6.45425 88.9046 7.34688C89.2724 8.23952 89.6402 9.20082 90.008 10.2994H87.4333ZM84.6378 2.74639L83.1665 6.45425H86.1091L84.6378 2.74639Z" fill="#10BFEB"/>
<path d="M125.543 10.2994C124.881 9.20082 124.146 8.10219 123.336 7.00356C122.527 5.90494 121.718 4.87497 120.835 3.91368V10.2994H118.555V0.480469H120.467C120.762 0.82379 121.129 1.16711 121.571 1.64776C121.939 2.12841 122.38 2.60906 122.821 3.08971C123.263 3.57036 123.631 4.11967 124.072 4.66898C124.513 5.2183 124.881 5.76761 125.249 6.24826V0.480469H127.603V10.2994H125.543Z" fill="#10BFEB"/>
<path d="M136.797 10.2994C136.649 9.95612 136.576 9.6128 136.429 9.26948C136.282 8.92616 136.134 8.58284 136.061 8.17085H132.015C131.868 8.51417 131.721 8.8575 131.647 9.26948C131.5 9.6128 131.426 9.95612 131.279 10.2994H128.852C129.219 9.26948 129.587 8.23952 129.955 7.34688C130.323 6.45425 130.617 5.63028 130.985 4.80631C131.353 3.98234 131.647 3.22703 131.941 2.54039C132.236 1.85375 132.603 1.09845 132.971 0.480469H135.178C135.546 1.16711 135.84 1.85375 136.208 2.54039C136.502 3.22703 136.87 3.98234 137.238 4.80631C137.606 5.63028 137.9 6.45425 138.268 7.34688C138.636 8.23952 139.003 9.20082 139.371 10.2994H136.797ZM134.001 2.74639L132.53 6.45425H135.472L134.001 2.74639Z" fill="#10BFEB"/>
<path d="M98.6162 0.480469V2.3344H95.3793V10.2994H92.9517V2.40307H89.7148V0.480469H98.6162Z" fill="#10BFEB"/>
<path d="M100.676 0.481445H103.324V10.3004H100.676V0.481445Z" fill="#10BFEB"/>
<path d="M116.417 5.42447C116.417 6.3171 116.27 7.07241 115.975 7.75905C115.681 8.44569 115.313 8.99501 114.798 9.47565C114.283 9.9563 113.695 10.2996 113.033 10.5056C112.371 10.7116 111.635 10.8489 110.826 10.8489C110.09 10.8489 109.355 10.7116 108.693 10.5056C108.03 10.2996 107.442 9.9563 106.927 9.47565C106.412 8.99501 106.044 8.44569 105.75 7.75905C105.456 7.07241 105.309 6.3171 105.309 5.42447C105.309 4.53184 105.456 3.77653 105.75 3.08989C106.044 2.40325 106.486 1.85393 106.927 1.37328C107.442 0.892634 108.03 0.549313 108.693 0.343321C109.355 0.137328 110.09 0 110.826 0C111.562 0 112.297 0.137328 112.959 0.343321C113.621 0.549313 114.21 0.892634 114.725 1.37328C115.24 1.85393 115.608 2.40325 115.902 3.08989C116.196 3.77653 116.417 4.53184 116.417 5.42447ZM107.957 5.42447C107.957 5.90512 108.03 6.38577 108.178 6.79775C108.325 7.20974 108.472 7.55306 108.766 7.82771C108.987 8.10237 109.355 8.37703 109.649 8.51436C110.017 8.65168 110.458 8.72035 110.9 8.72035C111.341 8.72035 111.782 8.65168 112.15 8.51436C112.518 8.37703 112.812 8.10237 113.106 7.82771C113.327 7.55306 113.548 7.20974 113.695 6.79775C113.842 6.38577 113.916 5.90512 113.916 5.42447C113.916 4.94382 113.842 4.46317 113.695 4.05119C113.548 3.6392 113.401 3.29588 113.106 3.02122C112.886 2.74657 112.518 2.47191 112.15 2.33458C111.782 2.19725 111.341 2.12859 110.9 2.12859C110.458 2.12859 110.017 2.19725 109.649 2.40325C109.281 2.54057 108.987 2.81523 108.766 3.08989C108.545 3.36454 108.325 3.70786 108.178 4.11985C108.03 4.46317 107.957 4.87516 107.957 5.42447Z" fill="#10BFEB"/>
<path d="M147.466 8.37685V10.2994H140.625V0.480469H142.906V8.37685H147.466Z" fill="#10BFEB"/>
</svg>
