<svg width="62" height="62" viewBox="0 0 62 62" fill="none" xmlns="http://www.w3.org/2000/svg">
<circle cx="31" cy="31" r="31" fill="#10BFEB"/>
<path d="M28.4805 10.6421C28.1424 10.6421 27.917 10.9037 27.917 11.1654L27.9733 21.9975C27.9733 22.8871 26.79 23.358 26.1137 22.7301L18.0556 15.1424C17.8302 14.9331 17.4921 14.9331 17.2667 15.1424C17.0413 15.3517 17.0413 15.6657 17.2103 15.875L28.1424 28.0153C28.1987 28.0676 28.2551 28.0676 28.3678 28.0153C28.9876 27.5443 29.7202 27.2304 30.5091 27.1257C30.5654 27.1257 30.6218 27.0734 30.6218 27.0211L29.044 11.1131C29.044 10.8514 28.8186 10.6421 28.4805 10.6421Z" fill="white"/>
<path d="M44.8177 15.1424C44.5923 14.9331 44.2542 14.9331 44.0288 15.1424L35.9143 22.7301C35.2381 23.358 34.0547 22.9394 34.0547 21.9975L34.1111 11.1654C34.1111 10.8514 33.8293 10.6421 33.5476 10.6421C33.2658 10.6421 32.9841 10.8514 32.9841 11.1131L31.4062 27.0211C31.4062 27.0734 31.4626 27.1257 31.519 27.1257C32.3642 27.178 33.0968 27.492 33.7166 27.963C33.773 28.0153 33.8857 28.0153 33.942 27.963L44.8177 15.875C45.0431 15.6657 44.9868 15.3517 44.8177 15.1424Z" fill="white"/>
<path d="M52.5393 28.3271L40.8747 28.3794C39.9168 28.3794 39.4096 27.2805 40.0858 26.6526L48.313 19.1695C48.5384 18.9602 48.5384 18.6463 48.313 18.4369C48.0876 18.2276 47.7495 18.2276 47.5241 18.3846L34.5071 28.4841C34.4508 28.5364 34.4508 28.5888 34.5071 28.6934C35.0143 29.269 35.3524 29.9493 35.4087 30.7342C35.4087 30.7866 35.4651 30.8389 35.5778 30.8389L52.5957 29.426C52.8774 29.426 53.1028 29.1644 53.1028 28.9027C53.1592 28.5887 52.8774 28.3271 52.5393 28.3271Z" fill="white"/>
<path d="M48.3108 44.0284C48.5362 43.8191 48.5362 43.5051 48.3108 43.2958L40.1399 35.7605C39.4637 35.1325 39.9145 34.0336 40.9288 34.0336L52.5934 34.0859C52.9315 34.0859 53.1569 33.8243 53.1569 33.5626C53.1569 33.301 52.9315 33.0393 52.6498 33.0393L35.5755 31.6265C35.5192 31.6265 35.4065 31.6788 35.4065 31.7311C35.2938 32.5161 34.9557 33.1963 34.4485 33.772C34.3922 33.8243 34.3922 33.9289 34.4485 33.9813L47.4655 44.0808C47.7473 44.2377 48.0854 44.1854 48.3108 44.0284Z" fill="white"/>
<path d="M33.4912 51.7725C33.8293 51.7725 34.0547 51.5108 34.0547 51.2492L33.9984 40.4171C33.9984 39.5275 35.1817 39.0565 35.858 39.6845L43.9161 47.2722C44.1415 47.4815 44.4796 47.4815 44.705 47.2722C44.9304 47.0629 44.9304 46.7489 44.7614 46.5396L33.942 34.4516C33.8857 34.3993 33.8293 34.3993 33.7166 34.4516C33.0968 34.8702 32.3642 35.1842 31.519 35.2365C31.4626 35.2365 31.4062 35.2889 31.4062 35.3935L32.9277 51.3015C32.9841 51.5632 33.2095 51.7725 33.4912 51.7725Z" fill="white"/>
<path d="M17.2081 47.2724C17.4335 47.4817 17.7716 47.4817 17.997 47.2724L26.0552 39.6847C26.7314 39.0567 27.9147 39.4753 27.9147 40.4173L27.8584 51.2494C27.8584 51.5633 28.1401 51.7727 28.4219 51.7727C28.7037 51.7727 28.9854 51.5633 28.9854 51.3017L30.5069 35.3414C30.5069 35.289 30.4505 35.1844 30.3942 35.1844C29.6053 35.0797 28.8727 34.7657 28.2528 34.3471C28.1965 34.2948 28.0838 34.2948 28.0274 34.3471L17.2081 46.5398C16.9827 46.7491 16.9827 47.063 17.2081 47.2724Z" fill="white"/>
<path d="M8.86719 33.563C8.86719 33.877 9.14894 34.0863 9.43069 34.0863L21.0953 34.034C22.0532 34.034 22.5604 35.1329 21.8842 35.7609L13.7133 43.2439C13.4879 43.4532 13.4879 43.7672 13.7133 43.9765C13.9387 44.1858 14.2768 44.1858 14.5023 44.0288L27.632 33.8247C27.6883 33.7724 27.6883 33.72 27.632 33.6154C27.1811 33.0398 26.843 32.3595 26.7303 31.6269C26.7303 31.5745 26.674 31.5222 26.5613 31.5222L9.37434 32.9874C9.09259 33.0398 8.86719 33.2491 8.86719 33.563Z" fill="white"/>
<path d="M13.7133 18.3871C13.4879 18.5964 13.4879 18.9104 13.7133 19.1197L21.8842 26.6027C22.5604 27.2307 22.1096 28.3296 21.0953 28.3296H9.43069C9.09259 28.3296 8.86719 28.5912 8.86719 28.8529C8.86719 29.1145 9.09259 29.3762 9.37434 29.3762L26.5613 30.789C26.6176 30.789 26.7303 30.7367 26.7303 30.6844C26.843 29.9518 27.1248 29.2715 27.5756 28.6959C27.632 28.6436 27.632 28.5389 27.5756 28.4866L14.5023 18.3871C14.2768 18.1778 13.9387 18.2301 13.7133 18.3871Z" fill="white"/>
</svg>
