<svg width="282" height="252" viewBox="0 0 282 252" fill="none" xmlns="http://www.w3.org/2000/svg">
    <mask id="mask0_3045_24453" style="mask-type:alpha" maskUnits="userSpaceOnUse" x="0" y="0" width="282" height="252">
    <rect width="282" height="252" fill="#C4C4C4"/>
    </mask>
    <g mask="url(#mask0_3045_24453)">
    <g opacity="0.5">
    <path d="M227.147 532.494C225.11 534.02 223.582 536.054 222.564 538.597C221.545 543.173 223.073 547.75 226.637 549.784L286.214 591.991C291.306 595.551 297.925 594.025 300.981 589.449C302.508 587.415 303.527 585.38 303.527 583.346C303.527 579.787 301.49 576.736 298.944 574.702L271.447 555.378C262.281 548.767 262.281 535.037 271.447 528.426L298.944 508.594C304.036 505.034 305.054 498.423 301.49 493.847C297.925 488.762 291.306 487.744 286.723 491.304L227.147 532.494Z" fill="white"/>
    <path d="M227.147 241.112C225.11 242.638 223.583 244.672 222.564 247.214C221.546 251.791 223.073 256.368 226.638 258.402L286.214 300.609C291.306 304.169 297.926 302.643 300.981 298.066C302.508 296.032 303.527 293.998 303.527 291.456C303.527 287.896 301.999 284.845 298.944 282.811L271.447 263.487C262.282 256.876 262.282 243.146 271.447 236.535L299.453 217.212C304.545 213.652 305.564 207.041 301.999 202.465C298.435 197.379 291.815 196.362 287.232 199.922L227.147 241.112Z" fill="white"/>
    <path d="M225.62 5.66699C224.093 7.70105 223.583 9.73523 223.583 11.7693C223.583 15.3289 225.111 18.38 228.166 20.4141L281.123 57.5361C281.632 57.5361 281.632 58.0447 282.141 58.0447L286.724 61.0958C291.816 64.6554 298.436 63.1298 301.491 58.5532C303.018 56.519 303.528 54.485 303.528 52.4509C303.528 48.8913 302 45.8401 298.945 43.8061L245.988 6.68408C245.479 6.68408 245.479 6.17554 244.97 6.17554L240.896 3.12439C235.804 -0.435242 229.185 0.581787 225.62 5.66699Z" fill="white"/>
    <path d="M149.749 404.856C151.786 403.33 153.313 401.296 154.332 398.753C155.35 394.177 153.822 389.6 150.258 387.566L16.3385 293.998C11.2465 290.439 4.62697 291.964 1.57177 296.541C0.0441717 298.575 -0.465035 300.609 -0.465035 302.643C-0.465035 306.203 1.06257 309.254 4.11777 311.288L106.467 382.481C115.632 389.092 115.632 402.822 106.467 409.432L4.11777 480.625C-0.974227 484.185 -1.99263 490.796 1.57177 495.372C5.13616 500.458 11.7557 501.475 16.3385 497.915L149.749 404.856Z" fill="white"/>
    <path d="M75.4052 404.856C77.442 403.33 78.9696 401.296 79.988 398.753C81.0064 394.177 79.4788 389.6 75.9144 387.566L16.3381 345.867C11.2461 342.308 4.62649 343.833 1.5713 348.41C0.0437008 350.444 -0.465506 352.478 -0.465506 354.512C-0.465506 358.072 1.0621 361.123 4.11729 363.157L31.614 382.481C40.7796 389.092 40.7796 402.822 31.614 409.432L3.60808 428.756C-1.48391 432.316 -2.50231 438.927 1.06209 443.503C4.62648 448.588 11.2461 449.605 15.8289 446.046L75.4052 404.856Z" fill="white"/>
    <path d="M75.4044 4.65002C73.8768 6.68408 73.3676 8.7182 73.3676 10.7523C73.3676 14.3119 74.8952 17.363 77.9504 19.3972L180.299 90.59C189.465 97.2008 189.465 110.931 180.299 117.542L77.9504 188.734L3.60735 240.604C1.57055 242.129 0.0429631 244.163 -0.975435 246.706C-1.99383 251.283 -0.46624 255.859 3.09815 257.893L137.527 352.478L180.299 382.481C189.465 389.092 189.465 402.822 180.299 409.432L77.9504 480.625L3.60735 532.494C1.57055 534.02 0.0429631 536.054 -0.975435 538.597C-1.99383 543.173 -0.46624 547.75 3.09815 549.784L137.527 643.86C142.619 647.42 149.238 645.895 152.294 641.318C153.821 639.284 154.33 637.25 154.33 635.216C154.33 631.656 152.803 628.605 149.748 626.571L47.3985 555.378C38.2329 548.767 38.2329 535.037 47.3985 528.426L149.748 457.233L224.091 404.856C226.127 403.33 227.655 401.296 228.673 398.754C229.692 394.177 228.164 389.6 224.6 387.566L90.6804 293.998L47.9077 263.996C38.7421 257.385 38.7421 243.655 47.9077 237.044L150.257 165.851L224.6 113.982C226.637 112.456 228.164 110.422 229.183 107.88C230.201 103.303 228.673 98.7264 225.109 96.6923L91.1896 3.12445C85.5884 -1.45221 78.9688 -0.435181 75.4044 4.65002Z" fill="white"/>
    <path d="M149.748 4.64996C148.22 6.68402 147.711 8.71814 147.711 10.7522C147.711 14.3118 149.239 17.363 152.294 19.3971L254.643 90.59C263.809 97.2007 263.809 110.931 254.643 117.542L152.294 188.734L77.9509 240.604C75.9141 242.129 74.3865 244.163 73.3681 246.706C72.3497 251.283 73.8773 255.859 77.4417 257.893L211.87 352.478L254.643 382.481C263.809 389.092 263.809 402.822 254.643 409.432L152.294 480.625L77.9509 532.494C75.9141 534.02 74.3865 536.054 73.3681 538.597C72.3497 543.173 73.8773 547.75 77.4417 549.784L211.87 643.86C216.962 647.42 223.582 645.895 226.637 641.318C228.165 639.284 228.674 637.25 228.674 635.216C228.674 631.656 227.146 628.605 224.091 626.571L121.742 555.378C112.576 548.767 112.576 535.037 121.742 528.426L224.091 457.233L298.943 404.856C300.98 403.33 302.508 401.296 303.526 398.754C304.545 394.177 303.017 389.6 299.453 387.566L165.533 293.998L122.76 263.996C113.595 257.385 113.595 243.655 122.76 237.044L225.109 165.851L298.943 112.965C300.98 111.439 302.508 109.405 303.526 106.863C304.545 102.286 303.017 97.7093 299.453 95.6752L165.533 2.10736C159.932 -1.45227 153.312 -0.435242 149.748 4.64996Z" fill="white"/>
    <path d="M152.294 532.494C150.258 534.02 148.73 536.054 147.712 538.597C146.693 543.173 148.221 547.75 151.785 549.784L286.214 643.86C291.306 647.42 297.925 645.895 300.981 641.318C302.508 639.284 303.527 637.25 303.527 635.216C303.527 631.656 301.999 628.605 298.944 626.571L196.595 555.378C187.429 548.767 187.429 535.037 196.595 528.426L298.944 457.233C304.036 453.674 305.054 447.063 301.49 442.486C297.925 437.401 291.306 436.384 286.723 439.944L152.294 532.494Z" fill="white"/>
    <path d="M149.749 112.965C151.786 111.439 153.313 109.405 154.332 106.863C155.35 102.286 153.822 97.7093 150.258 95.6752L16.3385 2.10736C11.2465 -1.45227 4.62697 0.0733032 1.57177 4.65002C0.0441717 6.68408 -0.465035 8.7182 -0.465035 10.7523C-0.465035 14.3119 1.06257 17.363 4.11777 19.3971L106.467 90.59C115.632 97.2008 115.632 110.931 106.467 117.542L4.11777 188.734C-0.974227 192.294 -1.99263 198.905 1.57177 203.482C5.13616 208.567 11.7557 209.584 16.3385 206.024L149.749 112.965Z" fill="white"/>
    <path d="M75.4052 112.965C77.442 111.439 78.9696 109.405 79.988 106.863C81.0064 102.286 79.4788 97.7093 75.9144 95.6752L16.3381 53.9765C11.2461 50.4169 4.62649 51.9424 1.5713 56.5191C0.0437008 58.5532 -0.465506 60.5873 -0.465506 62.6214C-0.465506 66.181 1.0621 69.2321 4.11729 71.2662L31.614 90.59C40.7796 97.2008 40.7796 110.931 31.614 117.542L3.60808 136.865C-1.48391 140.425 -2.50231 147.036 1.06209 151.612C4.62648 156.698 11.2461 157.715 15.8289 154.155L75.4052 112.965Z" fill="white"/>
    <path d="M152.294 241.112C150.258 242.638 148.73 244.672 147.712 247.214C146.693 251.791 148.221 256.368 151.785 258.402L286.214 352.478C291.306 356.038 297.925 354.512 300.981 349.936C302.508 347.901 303.527 345.867 303.527 343.833C303.527 340.274 301.999 337.223 298.944 335.188L196.595 263.996C187.429 257.385 187.429 243.655 196.595 237.044L298.944 165.851C304.036 162.291 305.054 155.681 301.49 151.104C297.925 146.019 291.306 145.002 286.723 148.561L152.294 241.112Z" fill="white"/>
    <path d="M76.4239 641.318C77.9515 639.284 78.4607 637.25 78.4607 635.216C78.4607 631.656 76.9331 628.605 73.8779 626.571L20.9212 589.449C20.412 589.449 20.4119 588.94 19.9028 588.94L15.8292 585.889C10.7372 582.329 4.11757 583.855 1.06237 588.432C-0.465223 590.466 -0.974411 592.5 -0.974411 594.534C-0.974411 598.094 0.553175 601.145 3.60837 603.179L56.5651 640.301C56.5651 640.809 57.0743 640.809 57.0743 640.809L61.1479 643.86C66.2399 647.42 72.8595 646.403 76.4239 641.318Z" fill="white"/>
    </g>
    </g>
</svg>
