<svg width="336" height="748" viewBox="0 0 336 748" fill="none" xmlns="http://www.w3.org/2000/svg">
<g clip-path="url(#clip0_2659_19535)">
<path d="M166.383 280.289C167.995 281.447 169.312 282.97 170.228 284.732C171.143 286.495 171.631 288.449 171.652 290.435C171.674 292.422 171.227 294.386 170.35 296.168C169.473 297.95 168.189 299.5 166.602 300.693L18.8191 408.874C17.5575 409.794 16.1216 410.446 14.5995 410.791C13.0773 411.136 11.5008 411.167 9.96645 410.881C8.43205 410.596 6.97201 409.999 5.67561 409.129C4.37922 408.259 3.27373 407.134 2.42676 405.821C1.03514 403.747 0.286219 401.307 0.273892 398.809C0.257127 396.842 0.704725 394.899 1.58021 393.139C2.4557 391.378 3.7343 389.849 5.31181 388.677L117.927 306.24C120.34 304.414 122.297 302.053 123.645 299.342C124.993 296.631 125.694 293.645 125.694 290.617C125.694 287.589 124.993 284.602 123.645 281.891C122.297 279.18 120.34 276.819 117.927 274.993L5.36646 192.556C2.7847 190.599 1.04624 187.73 0.506006 184.534C-0.0342289 181.337 0.664501 178.055 2.45954 175.357C3.30524 174.043 4.4104 172.916 5.70709 172.045C7.00379 171.175 8.46463 170.578 9.99988 170.294C11.5351 170.009 13.1123 170.041 14.6346 170.389C16.1569 170.737 17.592 171.392 18.8519 172.316L166.383 280.289Z" fill="#04AEDE"/>
<path d="M84.3231 280.289C85.9351 281.447 87.252 282.97 88.1673 284.732C89.0827 286.495 89.5707 288.449 89.592 290.435C89.6133 292.422 89.1672 294.386 88.2898 296.168C87.4125 297.95 86.1284 299.5 84.5416 300.693L18.8191 348.832C17.5574 349.751 16.1216 350.404 14.5995 350.749C13.0773 351.094 11.5008 351.125 9.96643 350.839C8.43204 350.553 6.972 349.957 5.6756 349.087C4.37921 348.217 3.27372 347.092 2.42674 345.779C1.03819 343.685 0.300463 341.225 0.306662 338.712C0.290774 336.745 0.738758 334.803 1.61417 333.042C2.48959 331.282 3.76772 329.753 5.34459 328.581L35.9437 306.152C38.3566 304.327 40.3137 301.965 41.6613 299.255C43.0089 296.544 43.7103 293.557 43.7103 290.529C43.7103 287.501 43.0089 284.514 41.6613 281.804C40.3137 279.093 38.3566 276.732 35.9437 274.906L5.03859 252.51C2.45321 250.559 0.711635 247.691 0.171105 244.495C-0.369424 241.299 0.332064 238.017 2.13168 235.323C2.97758 234.009 4.08257 232.882 5.37891 232.011C6.67525 231.14 8.13561 230.544 9.67046 230.258C11.2053 229.972 12.7823 230.003 14.3047 230.349C15.8271 230.695 17.2629 231.349 18.5241 232.27L84.3231 280.289Z" fill="#04AEDE"/>
<path d="M169.235 6.8595C170.65 8.94122 171.411 11.3985 171.421 13.9162C171.435 15.8824 170.986 17.8242 170.111 19.5843C169.236 21.3445 167.959 22.8734 166.383 24.0472L53.8222 106.485C51.4093 108.311 49.4521 110.672 48.1045 113.383C46.7569 116.093 46.0556 119.08 46.0556 122.108C46.0556 125.136 46.7569 128.123 48.1045 130.834C49.4521 133.544 51.4093 135.906 53.8222 137.731L166.383 220.169L248.487 280.288C250.099 281.446 251.416 282.969 252.331 284.731C253.247 286.494 253.735 288.448 253.756 290.434C253.777 292.421 253.331 294.385 252.454 296.167C251.577 297.949 250.292 299.499 248.706 300.692L100.879 408.873L100.77 408.95L53.7129 443.391C51.3 445.216 49.3429 447.577 47.9953 450.288C46.6477 452.999 45.9463 455.986 45.9463 459.014C45.9463 462.042 46.6477 465.029 47.9953 467.739C49.3429 470.45 51.3 472.811 53.7129 474.637L166.274 557.075L248.389 617.248C250.001 618.406 251.318 619.927 252.233 621.689C253.148 623.451 253.637 625.404 253.658 627.389C253.679 629.375 253.233 631.338 252.356 633.119C251.478 634.9 250.194 636.45 248.607 637.642L100.879 745.779C99.6175 746.698 98.1817 747.351 96.6596 747.696C95.1374 748.041 93.5609 748.072 92.0265 747.786C90.4921 747.5 89.0321 746.904 87.7357 746.034C86.4393 745.164 85.3338 744.039 84.4868 742.726C83.1021 740.631 82.3682 738.171 82.3777 735.659C82.3618 733.692 82.8098 731.75 83.6852 729.989C84.5606 728.229 85.8387 726.7 87.4156 725.528L200.031 643.09C202.444 641.264 204.401 638.903 205.749 636.192C207.096 633.482 207.798 630.495 207.798 627.467C207.798 624.439 207.096 621.452 205.749 618.741C204.401 616.03 202.444 613.669 200.031 611.844L87.4702 529.406L5.25701 469.298C3.64501 468.139 2.32807 466.617 1.41272 464.854C0.497366 463.092 0.00931163 461.138 -0.0119682 459.151C-0.0332481 457.165 0.412845 455.201 1.29022 453.419C2.1676 451.637 3.45163 450.087 5.03844 448.894L152.821 340.713L152.93 340.636L199.988 306.195C202.4 304.369 204.358 302.008 205.705 299.297C207.053 296.587 207.754 293.6 207.754 290.572C207.754 287.544 207.053 284.557 205.705 281.846C204.358 279.136 202.4 276.775 199.988 274.949L87.4265 192.511L5.25701 132.392C3.64501 131.234 2.32807 129.711 1.41272 127.949C0.497366 126.186 0.00931163 124.232 -0.0119682 122.246C-0.0332481 120.259 0.412845 118.295 1.29022 116.513C2.1676 114.731 3.45163 113.181 5.03844 111.988L152.821 3.85082C154.08 2.92393 155.515 2.26455 157.038 1.91321C158.561 1.56187 160.14 1.52599 161.677 1.80777C163.214 2.08955 164.678 2.68304 165.978 3.55177C167.277 4.4205 168.386 5.54613 169.235 6.8595Z" fill="#04AEDE"/>
<path d="M251.296 6.8595C252.71 8.94122 253.472 11.3985 253.482 13.9162C253.496 15.8824 253.047 17.8242 252.172 19.5843C251.296 21.3445 250.019 22.8734 248.444 24.0472L135.883 106.485C133.47 108.311 131.513 110.672 130.165 113.383C128.817 116.093 128.116 119.08 128.116 122.108C128.116 125.136 128.817 128.123 130.165 130.834C131.513 133.544 133.47 135.906 135.883 137.731L248.444 220.169L330.559 280.277C332.167 281.438 333.48 282.962 334.392 284.724C335.305 286.486 335.791 288.439 335.813 290.424C335.834 292.409 335.389 294.371 334.515 296.153C333.64 297.934 332.36 299.485 330.777 300.681L182.918 408.873L182.809 408.95L135.752 443.391C133.339 445.216 131.382 447.577 130.034 450.288C128.686 452.999 127.985 455.986 127.985 459.014C127.985 462.042 128.686 465.029 130.034 467.739C131.382 470.45 133.339 472.811 135.752 474.637L248.313 557.075L330.427 617.248C332.037 618.407 333.352 619.929 334.266 621.691C335.18 623.452 335.668 625.405 335.689 627.39C335.71 629.375 335.265 631.337 334.389 633.118C333.513 634.899 332.231 636.448 330.646 637.642L182.918 745.779C181.656 746.698 180.22 747.351 178.698 747.696C177.176 748.041 175.6 748.072 174.065 747.786C172.531 747.5 171.071 746.904 169.774 746.034C168.478 745.164 167.372 744.039 166.526 742.726C165.137 740.632 164.399 738.172 164.405 735.659C164.39 733.692 164.838 731.75 165.713 729.989C166.588 728.229 167.866 726.7 169.443 725.528L282.004 643.09C284.419 641.266 286.378 638.905 287.727 636.194C289.076 633.483 289.778 630.496 289.778 627.467C289.778 624.438 289.076 621.451 287.727 618.74C286.378 616.029 284.419 613.668 282.004 611.844L169.443 529.406L87.3394 469.298C85.7274 468.139 84.4105 466.617 83.4951 464.854C82.5798 463.092 82.0917 461.138 82.0704 459.151C82.0492 457.165 82.4952 455.201 83.3726 453.419C84.25 451.637 85.534 450.087 87.1208 448.894L234.882 340.713L234.991 340.636L281.982 306.195C284.397 304.371 286.356 302.01 287.705 299.299C289.054 296.588 289.756 293.601 289.756 290.572C289.756 287.543 289.054 284.556 287.705 281.845C286.356 279.134 284.397 276.773 281.982 274.949L169.421 192.511L87.3175 132.403C85.7055 131.245 84.3886 129.722 83.4733 127.96C82.5579 126.197 82.0699 124.243 82.0486 122.256C82.0273 120.27 82.4734 118.306 83.3508 116.524C84.2281 114.742 85.5122 113.192 87.099 111.999L234.882 3.85082C236.141 2.92393 237.576 2.26455 239.099 1.91321C240.622 1.56187 242.2 1.52599 243.738 1.80777C245.275 2.08955 246.738 2.68304 248.038 3.55177C249.338 4.4205 250.447 5.54613 251.296 6.8595Z" fill="#04AEDE"/>
<path d="M169.377 132.393C167.765 131.234 166.448 129.712 165.533 127.949C164.617 126.186 164.129 124.233 164.108 122.246C164.087 120.259 164.533 118.296 165.41 116.514C166.288 114.732 167.572 113.182 169.159 111.988L316.941 3.85128C318.202 2.93 319.638 2.27632 321.161 1.9303C322.683 1.58428 324.26 1.55322 325.795 1.83903C327.33 2.12483 328.79 2.72147 330.086 3.59238C331.383 4.46328 332.488 5.59009 333.334 6.90371C334.729 8.99161 335.471 11.4484 335.465 13.9604C335.474 15.9173 335.026 17.8493 334.155 19.6011C333.284 21.353 332.014 22.8759 330.449 24.0477L217.888 106.485C215.473 108.31 213.514 110.67 212.165 113.381C210.816 116.092 210.114 119.08 210.114 122.109C210.114 125.137 210.816 128.125 212.165 130.836C213.514 133.547 215.473 135.907 217.888 137.732L330.449 220.169C333.035 222.123 334.777 224.992 335.317 228.19C335.858 231.388 335.156 234.672 333.356 237.368C332.51 238.682 331.405 239.809 330.108 240.68C328.811 241.551 327.35 242.147 325.815 242.432C324.28 242.716 322.703 242.684 321.18 242.336C319.658 241.989 318.223 241.333 316.963 240.41L169.377 132.393Z" fill="#04AEDE"/>
<path d="M251.438 132.392C249.826 131.234 248.509 129.711 247.593 127.949C246.678 126.186 246.19 124.232 246.169 122.246C246.147 120.259 246.594 118.295 247.471 116.513C248.348 114.731 249.632 113.181 251.219 111.988L316.942 63.8493C318.203 62.928 319.638 62.2744 321.161 61.9283C322.683 61.5823 324.26 61.5513 325.795 61.8371C327.33 62.1229 328.79 62.7195 330.087 63.5904C331.383 64.4613 332.488 65.5881 333.334 66.9018C335.118 69.5936 335.813 72.8641 335.277 76.0499C334.741 79.2357 333.015 82.0982 330.449 84.0567L299.85 106.485C297.433 108.308 295.472 110.668 294.122 113.379C292.772 116.091 292.069 119.079 292.069 122.108C292.069 125.138 292.772 128.126 294.122 130.837C295.472 133.548 297.433 135.908 299.85 137.731L330.678 160.171C333.26 162.127 334.999 164.997 335.539 168.193C336.079 171.389 335.38 174.671 333.585 177.369C332.739 178.682 331.633 179.808 330.336 180.678C329.039 181.548 327.579 182.143 326.044 182.428C324.509 182.713 322.933 182.681 321.411 182.334C319.889 181.987 318.453 181.333 317.193 180.411L251.438 132.392Z" fill="#04AEDE"/>
<path d="M166.384 617.194C167.996 618.351 169.313 619.872 170.228 621.634C171.143 623.396 171.631 625.349 171.653 627.335C171.674 629.321 171.228 631.284 170.35 633.065C169.473 634.846 168.189 636.395 166.602 637.587L18.8195 745.779C17.5578 746.699 16.122 747.351 14.5998 747.696C13.0777 748.041 11.5012 748.072 9.96682 747.786C8.43243 747.5 6.97238 746.904 5.67599 746.034C4.37959 745.164 3.2741 744.039 2.42713 742.726C1.03858 740.632 0.30085 738.173 0.307049 735.659C0.29116 733.692 0.739144 731.75 1.61456 729.989C2.48998 728.229 3.7681 726.7 5.34497 725.528L117.961 643.09C120.373 641.264 122.331 638.903 123.678 636.192C125.026 633.481 125.727 630.495 125.727 627.467C125.727 624.439 125.026 621.452 123.678 618.741C122.331 616.03 120.373 613.669 117.961 611.844L5.39961 529.406C2.81863 527.451 1.08047 524.584 0.540201 521.389C-6.96778e-05 518.195 0.698317 514.914 2.4927 512.218C3.3386 510.905 4.44359 509.778 5.73993 508.907C7.03627 508.036 8.49663 507.439 10.0315 507.153C11.5663 506.868 13.1433 506.899 14.6657 507.245C16.1882 507.591 17.624 508.244 18.8851 509.166L166.384 617.194Z" fill="#04AEDE"/>
<path d="M84.3227 617.194C85.9346 618.351 87.2516 619.873 88.167 621.635C89.0824 623.396 89.5705 625.349 89.5918 627.335C89.6131 629.321 89.1669 631.284 88.2895 633.065C87.4121 634.846 86.128 636.395 84.5413 637.587L18.8188 685.726C17.5578 686.646 16.1225 687.299 14.6008 687.645C13.0791 687.991 11.5029 688.023 9.96856 687.738C8.43422 687.453 6.97401 686.858 5.6772 685.99C4.3804 685.121 3.27425 683.996 2.4264 682.684C1.03904 680.589 0.301429 678.13 0.306322 675.617C0.289557 673.65 0.737157 671.707 1.61264 669.947C2.48813 668.186 3.76673 666.658 5.34425 665.486L35.9433 643.047C38.3562 641.221 40.3134 638.86 41.661 636.149C43.0086 633.438 43.7099 630.451 43.7099 627.423C43.7099 624.395 43.0086 621.409 41.661 618.698C40.3134 615.987 38.3562 613.626 35.9433 611.8L5.11475 589.372C2.52859 587.419 0.786725 584.549 0.246232 581.351C-0.294261 578.153 0.407565 574.87 2.20784 572.173C3.05374 570.86 4.15873 569.733 5.45507 568.862C6.75141 567.991 8.21177 567.394 9.74661 567.109C11.2815 566.823 12.8584 566.854 14.3809 567.2C15.9033 567.546 17.3391 568.2 18.6002 569.121L84.3227 617.194Z" fill="#04AEDE"/>
<path d="M169.377 469.298C167.765 468.14 166.448 466.617 165.533 464.855C164.617 463.092 164.129 461.138 164.108 459.152C164.087 457.165 164.533 455.201 165.41 453.419C166.288 451.637 167.572 450.087 169.159 448.894L316.941 340.713C318.201 339.79 319.636 339.134 321.159 338.786C322.681 338.439 324.258 338.406 325.793 338.691C327.329 338.976 328.789 339.572 330.086 340.443C331.383 341.314 332.488 342.441 333.334 343.755C335.131 346.45 335.833 349.73 335.297 352.927C334.761 356.123 333.027 358.993 330.449 360.953L217.888 443.391C215.473 445.215 213.514 447.576 212.165 450.287C210.816 452.998 210.114 455.985 210.114 459.014C210.114 462.043 210.816 465.03 212.165 467.741C213.514 470.452 215.473 472.813 217.888 474.637L330.449 557.075C333.034 559.026 334.776 561.894 335.316 565.09C335.857 568.286 335.155 571.568 333.356 574.263C332.51 575.576 331.405 576.703 330.108 577.574C328.812 578.445 327.352 579.042 325.817 579.327C324.282 579.613 322.705 579.582 321.182 579.236C319.66 578.89 318.224 578.236 316.963 577.315L169.377 469.298Z" fill="#04AEDE"/>
<path d="M251.438 469.298C249.826 468.14 248.509 466.617 247.593 464.854C246.678 463.092 246.19 461.138 246.169 459.151C246.147 457.165 246.594 455.201 247.471 453.419C248.348 451.637 249.632 450.087 251.219 448.894L316.942 400.755C318.202 399.833 319.637 399.179 321.159 398.832C322.681 398.485 324.258 398.453 325.793 398.738C327.328 399.023 328.788 399.618 330.085 400.488C331.382 401.358 332.487 402.484 333.334 403.797C334.729 405.889 335.471 408.349 335.465 410.864C335.479 412.83 335.03 414.772 334.155 416.532C333.28 418.293 332.003 419.822 330.427 420.995L299.828 443.435C297.411 445.258 295.45 447.618 294.1 450.329C292.75 453.04 292.047 456.028 292.047 459.058C292.047 462.087 292.75 465.075 294.1 467.787C295.45 470.498 297.411 472.858 299.828 474.681L330.657 497.109C333.238 499.066 334.977 501.935 335.517 505.132C336.057 508.328 335.359 511.61 333.563 514.308C332.718 515.622 331.613 516.748 330.316 517.619C329.02 518.49 327.56 519.087 326.025 519.373C324.49 519.658 322.913 519.627 321.39 519.281C319.868 518.935 318.432 518.282 317.171 517.36L251.438 469.298Z" fill="#04AEDE"/>
<path d="M333.869 681.011C335.259 683.105 336.001 685.564 336 688.078C336.014 690.044 335.566 691.986 334.69 693.746C333.815 695.506 332.538 697.035 330.962 698.209L272.529 740.965C272.212 741.195 271.906 741.436 271.611 741.676L267.032 745.024C265.772 745.946 264.336 746.6 262.814 746.947C261.292 747.294 259.716 747.326 258.181 747.041C256.646 746.756 255.186 746.161 253.889 745.291C252.592 744.421 251.486 743.295 250.64 741.983C248.849 739.302 248.142 736.041 248.661 732.858C249.181 729.676 250.888 726.809 253.437 724.839L311.925 682.083C312.242 681.853 312.548 681.612 312.843 681.372L317.422 678.024C318.681 677.09 320.117 676.425 321.643 676.069C323.168 675.713 324.75 675.674 326.291 675.954C327.832 676.234 329.3 676.827 330.603 677.696C331.907 678.566 333.018 679.694 333.869 681.011Z" fill="#04AEDE"/>
<path d="M86.4761 5.27353C88.2646 7.96974 88.9595 11.247 88.4195 14.4381C87.8794 17.6292 86.145 20.4944 83.5691 22.4503L25.0811 65.2282C24.7642 65.447 24.4582 65.6986 24.1632 65.9393L19.5842 69.2872C18.3232 70.2074 16.888 70.8605 15.3663 71.2065C13.8445 71.5524 12.2683 71.584 10.734 71.2994C9.19966 71.0147 7.73945 70.4197 6.44264 69.5507C5.14584 68.6818 4.03969 67.5572 3.19184 66.2457C1.803 64.1507 1.06178 61.6924 1.06083 59.178C1.04758 57.2105 1.49665 55.2674 2.37179 53.5056C3.24693 51.7438 4.52361 50.2128 6.09876 49.0361L64.5321 6.31289C64.849 6.08314 65.155 5.84244 65.4501 5.60175L70.029 2.24297C71.2904 1.3117 72.7291 0.64927 74.2563 0.296595C75.7835 -0.0560799 77.3667 -0.0915039 78.9081 0.192516C80.4495 0.476535 81.9163 1.07396 83.218 1.94789C84.5197 2.82181 85.6285 3.95367 86.4761 5.27353Z" fill="#04AEDE"/>
</g>
<defs>
<clipPath id="clip0_2659_19535">
<rect width="336" height="748" fill="white"/>
</clipPath>
</defs>
</svg>
